<svg width="25" height="24" viewBox="0 0 25 24" fill="none" xmlns="http://www.w3.org/2000/svg">
<path fill-rule="evenodd" clip-rule="evenodd" d="M11.986 1.21065C12.3471 0.929784 12.8528 0.929784 13.2139 1.21065L22.2139 8.21065C22.4575 8.4001 22.6 8.69141 22.6 9V20C22.6 20.7957 22.2839 21.5587 21.7213 22.1213C21.1587 22.6839 20.3956 23 19.6 23H5.59998C4.80433 23 4.04126 22.6839 3.47866 22.1213C2.91605 21.5587 2.59998 20.7957 2.59998 20V9C2.59998 8.69141 2.74245 8.4001 2.98603 8.21065L11.986 1.21065ZM4.59998 9.48908V20C4.59998 20.2652 4.70533 20.5196 4.89287 20.7071C5.08041 20.8946 5.33476 21 5.59998 21H19.6C19.8652 21 20.1195 20.8946 20.3071 20.7071C20.4946 20.5196 20.6 20.2652 20.6 20V9.48908L12.6 3.26686L4.59998 9.48908Z" fill="#50B780"/>
<path fill-rule="evenodd" clip-rule="evenodd" d="M8.59998 12C8.59998 11.4477 9.04769 11 9.59998 11H15.6C16.1523 11 16.6 11.4477 16.6 12V22C16.6 22.5523 16.1523 23 15.6 23C15.0477 23 14.6 22.5523 14.6 22V13H10.6V22C10.6 22.5523 10.1523 23 9.59998 23C9.04769 23 8.59998 22.5523 8.59998 22V12Z" fill="#50B780"/>
</svg>
