<svg width="200" height="200" viewBox="0 0 200 200" fill="none" xmlns="http://www.w3.org/2000/svg">
<path d="M164.364 110.2L169.704 110.088L172.336 110.044C173.212 110.024 174.08 110.044 174.956 110.02L174.776 110.2L174.756 105.724L174.956 105.924L169.66 105.896C167.892 105.896 166.128 105.852 164.364 105.832L164.472 105.724C164.472 106.456 164.436 107.192 164.42 107.936L164.364 110.2ZM164.364 110.2L164.304 107.984C164.304 107.236 164.26 106.484 164.252 105.724V105.6H164.364C166.128 105.6 167.892 105.54 169.66 105.536L174.956 105.512H175.156V105.712L175.132 110.188V110.4H174.956C174.06 110.4 173.168 110.4 172.276 110.38L169.612 110.336L164.364 110.2Z" fill="#EBEBEB"/>
<path d="M170.272 115.844L175.612 115.732L178.244 115.688C179.12 115.668 179.992 115.688 180.864 115.664L180.684 115.844V111.368L180.884 111.568L175.588 111.54C173.82 111.54 172.056 111.496 170.292 111.476L170.4 111.368C170.4 112.1 170.364 112.836 170.348 113.58L170.272 115.844ZM170.272 115.844L170.216 113.628C170.196 112.88 170.168 112.128 170.16 111.368V111.26H170.272C172.036 111.24 173.8 111.2 175.568 111.196L180.864 111.172H181.064V111.372L181.04 115.848V116.028H180.864C179.972 116.028 179.076 116.028 178.184 116.008L175.52 115.964L170.272 115.844Z" fill="#EBEBEB"/>
<path d="M158.432 115.84H169.024V111.364H158.432V115.84Z" fill="#EBEBEB"/>
<path d="M19.136 146.74L24.48 146.628L27.112 146.584C27.984 146.584 28.856 146.584 29.728 146.56L29.552 146.74L29.528 142.264L29.728 142.464L24.432 142.436C22.668 142.436 20.904 142.392 19.136 142.372L19.244 142.264C19.244 142.996 19.212 143.732 19.192 144.476L19.136 146.74ZM19.136 146.74L19.08 144.524C19.06 143.776 19.036 143.024 19.028 142.264V142.156H19.136C20.904 142.136 22.668 142.096 24.432 142.092L29.728 142.068H29.928V142.268V146.744V146.924H29.748C28.856 146.924 27.96 146.924 27.072 146.904L24.4 146.852L19.136 146.74Z" fill="#EBEBEB"/>
<path d="M25.048 152.38H35.64V147.904H25.048V152.38Z" fill="#EBEBEB"/>
<path d="M46.58 63.1438L51.924 63.0318L54.556 62.9878C55.428 62.9678 56.3 62.9878 57.172 62.9678L56.996 63.1438L56.972 58.6678L57.172 58.8678L51.876 58.8438C50.112 58.8438 48.344 58.7998 46.58 58.7758L46.688 58.6678C46.688 59.3998 46.656 60.1398 46.636 60.8838L46.58 63.1438ZM46.58 63.1438L46.524 60.9318C46.524 60.1838 46.48 59.4278 46.472 58.6678V58.5598H46.58C48.344 58.5398 50.112 58.4958 51.876 58.4958L57.172 58.4678H57.372V58.6678L57.352 63.1438V63.3238H57.176C56.284 63.3238 55.388 63.3238 54.5 63.2998L51.836 63.2558L46.58 63.1438Z" fill="#EBEBEB"/>
<path d="M24.992 24.4556H35.584V19.9796H24.992V24.4556Z" fill="#EBEBEB"/>
<path d="M19.088 30.0998L24.428 29.9998L27.06 29.9558C27.936 29.9558 28.804 29.9558 29.68 29.9558L29.5 30.1318V25.6558L29.7 25.8558L24.4 25.7998C22.632 25.7998 20.868 25.7558 19.104 25.7318L19.212 25.6238C19.212 26.3558 19.176 27.0918 19.16 27.8398L19.088 30.0998ZM19.088 30.0998L19.028 27.8878C19.028 27.1398 18.984 26.3838 18.976 25.6238V25.5158H19.088C20.852 25.5158 22.616 25.4518 24.384 25.4478L29.68 25.4238H29.88V25.6238L29.856 30.0998V30.2798H29.68C28.784 30.2798 27.892 30.2798 27 30.2558L24.336 30.2118L19.088 30.0998Z" fill="#EBEBEB"/>
<path d="M164.364 24.4558L169.704 24.3438L172.336 24.2998C173.212 24.2998 174.08 24.2998 174.956 24.2998L174.776 24.4758L174.756 19.9998L174.956 20.1998L169.66 20.1758C167.892 20.1758 166.128 20.1318 164.364 20.1078L164.472 19.9998C164.472 20.7318 164.436 21.4678 164.42 22.2158L164.364 24.4558ZM164.364 24.4558L164.304 22.2438C164.304 21.4958 164.26 20.7398 164.252 19.9798V19.8718H164.364C166.128 19.8718 167.892 19.8078 169.66 19.8038L174.956 19.7798H175.156V19.9998L175.132 24.4758V24.6558H174.956C174.06 24.6558 173.168 24.6558 172.276 24.6318L169.6 24.5678L164.364 24.4558Z" fill="#EBEBEB"/>
<path d="M147.62 80.4277H158.212V75.9517H147.62V80.4277Z" fill="#EBEBEB"/>
<path d="M34.892 47.7599C35.0907 47.6383 35.3191 47.574 35.552 47.574C35.785 47.574 36.0134 47.6383 36.212 47.7599L36.552 47.9559C36.668 48.0159 36.784 48.0759 36.904 48.1319C37.1152 48.2288 37.2956 48.3819 37.4255 48.5745C37.5553 48.7672 37.6295 48.9919 37.64 49.2239L37.688 50.8479L42.984 50.6839L42.932 49.0599C42.9267 48.8266 42.9859 48.5964 43.103 48.3945C43.2202 48.1927 43.3908 48.0271 43.596 47.9159C43.8271 47.7949 44.0514 47.6614 44.268 47.5159C44.4582 47.3818 44.6819 47.3029 44.9142 47.288C45.1464 47.2732 45.3783 47.323 45.584 47.4319L47.012 48.1959L49.516 43.5279L48.088 42.7599C47.8832 42.6497 47.7131 42.4847 47.5966 42.2834C47.4801 42.0821 47.4217 41.8524 47.428 41.6199C47.4366 41.353 47.4286 41.0859 47.404 40.8199C47.3783 40.5852 47.4195 40.348 47.5228 40.1356C47.6261 39.9233 47.7874 39.7445 47.988 39.6199L49.368 38.7999L46.568 34.2999L45.2 35.1439C45.0021 35.2657 44.7744 35.3301 44.542 35.3301C44.3097 35.3301 44.0819 35.2657 43.884 35.1439C43.776 35.0759 43.66 35.0119 43.548 34.9519C43.436 34.8919 43.316 34.8279 43.196 34.7759C42.9843 34.6788 42.8034 34.5251 42.6736 34.3317C42.5437 34.1383 42.4698 33.9127 42.46 33.6799L42.4 32.0439L37.104 32.2079L37.156 33.8079C37.1632 34.0416 37.1048 34.2726 36.9874 34.4748C36.8701 34.677 36.6985 34.8423 36.492 34.9519C36.261 35.0731 36.0366 35.2066 35.82 35.3519C35.6302 35.487 35.4065 35.5664 35.174 35.5812C34.9415 35.5961 34.7095 35.5458 34.504 35.4359L33.076 34.6719L30.572 39.3759L32 40.1439C32.2047 40.2541 32.3745 40.4191 32.4904 40.6205C32.6063 40.8219 32.6637 41.0517 32.656 41.2839C32.6509 41.5509 32.6603 41.818 32.684 42.0839C32.7093 42.3186 32.6679 42.5557 32.5646 42.7679C32.4613 42.9802 32.3003 43.159 32.1 43.2839L30.72 44.1399L33.52 48.6399L34.892 47.7599ZM36.216 39.3999C36.6203 38.6427 37.24 38.0223 37.9968 37.6173C38.7537 37.2122 39.6136 37.0407 40.468 37.1244C41.3223 37.2082 42.1326 37.5434 42.7964 38.0876C43.4602 38.6319 43.9477 39.3608 44.1972 40.1821C44.4468 41.0035 44.4471 41.8804 44.1983 42.7019C43.9494 43.5235 43.4625 44.2528 42.7992 44.7976C42.1358 45.3424 41.3258 45.6783 40.4716 45.7627C39.6173 45.8471 38.7572 45.6764 38 45.2719C36.9857 44.729 36.2281 43.8058 35.8937 42.7049C35.5592 41.604 35.6751 40.4154 36.216 39.3999Z" fill="#EBEBEB"/>
<path d="M173.6 102.216C173.683 102.075 173.804 101.959 173.949 101.883C174.093 101.807 174.257 101.772 174.42 101.784H174.968C175.128 101.775 175.287 101.811 175.428 101.886C175.569 101.962 175.686 102.074 175.768 102.212L176.336 103.2L179.536 101.344L178.968 100.36C178.887 100.218 178.847 100.057 178.852 99.8933C178.858 99.73 178.909 99.5715 179 99.4358C179.101 99.2785 179.193 99.1185 179.276 98.9558C179.35 98.8077 179.465 98.6834 179.606 98.5971C179.747 98.5108 179.91 98.466 180.076 98.4678H181.212V94.7558H180.076C179.911 94.7585 179.748 94.7145 179.606 94.6289C179.465 94.5433 179.35 94.4195 179.276 94.2718C179.194 94.1065 179.101 93.9462 179 93.7918C178.909 93.6561 178.858 93.4977 178.852 93.3344C178.847 93.1711 178.887 93.0095 178.968 92.8678L179.536 91.8798L176.336 90.0278L175.764 91.0158C175.683 91.1541 175.566 91.2676 175.424 91.3437C175.283 91.4199 175.124 91.4559 174.964 91.4478C174.872 91.4478 174.78 91.4478 174.688 91.4478C174.596 91.4478 174.508 91.4478 174.416 91.4478C174.253 91.4579 174.09 91.4229 173.945 91.3467C173.801 91.2705 173.68 91.1561 173.596 91.0158L173.028 90.0278L169.828 91.8798L170.396 92.8638C170.477 93.0055 170.517 93.1671 170.512 93.3304C170.506 93.4937 170.455 93.6521 170.364 93.7878C170.265 93.9452 170.173 94.1052 170.088 94.2678C170.014 94.4163 169.9 94.5408 169.758 94.6272C169.617 94.7135 169.454 94.7581 169.288 94.7558H168.152V98.4678H169.288C169.454 98.466 169.617 98.5108 169.758 98.5971C169.899 98.6834 170.014 98.8077 170.088 98.9558C170.17 99.1211 170.263 99.2814 170.364 99.4358C170.455 99.5715 170.506 99.73 170.512 99.8933C170.517 100.057 170.477 100.218 170.396 100.36L169.828 101.344L173.028 103.2L173.6 102.216ZM171.652 96.6158C171.651 96.0144 171.829 95.4263 172.162 94.9258C172.496 94.4254 172.97 94.0351 173.526 93.8044C174.081 93.5737 174.693 93.5129 175.283 93.6298C175.873 93.7466 176.415 94.0358 176.84 94.4608C177.266 94.8858 177.556 95.4275 177.673 96.0173C177.791 96.6071 177.731 97.2185 177.501 97.7743C177.271 98.33 176.881 98.805 176.381 99.1392C175.881 99.4734 175.293 99.6518 174.692 99.6518C173.887 99.6497 173.116 99.3292 172.548 98.7603C171.979 98.1914 171.658 97.4204 171.656 96.6158H171.652Z" fill="#EBEBEB"/>
<path d="M19.752 55.0679C19.8935 55.1505 20.009 55.2711 20.0853 55.416C20.1617 55.561 20.1959 55.7245 20.184 55.8879C20.184 55.9759 20.184 56.0679 20.184 56.1599C20.184 56.2519 20.184 56.3439 20.184 56.4359C20.1925 56.5956 20.1571 56.7546 20.0816 56.8956C20.0062 57.0366 19.8936 57.1543 19.756 57.2359L18.768 57.8039L20.624 61.0039L21.6 60.4639C21.742 60.3834 21.9034 60.3438 22.0665 60.3494C22.2296 60.3551 22.388 60.4058 22.524 60.4959C22.68 60.5959 22.84 60.6919 23.004 60.7759C23.1497 60.8478 23.2725 60.9589 23.3587 61.0966C23.4448 61.2344 23.491 61.3934 23.492 61.5559V62.6919H27.2V61.5559C27.2002 61.3937 27.2456 61.2348 27.3311 61.097C27.4166 60.9592 27.5388 60.848 27.684 60.7759C27.8494 60.6921 28.0097 60.5986 28.164 60.4959C28.3001 60.4058 28.4584 60.3551 28.6215 60.3494C28.7846 60.3438 28.946 60.3834 29.088 60.4639L30.076 61.0319L31.928 57.8319L30.94 57.2599C30.8026 57.1778 30.6899 57.0602 30.6139 56.9193C30.5378 56.7785 30.5012 56.6198 30.508 56.4599C30.508 56.3679 30.508 56.2799 30.508 56.1879C30.508 56.0959 30.508 56.0039 30.508 55.9159C30.4975 55.7526 30.5323 55.5897 30.6085 55.445C30.6848 55.3003 30.7995 55.1795 30.94 55.0959L31.928 54.5279L30.076 51.3279L29.092 51.8959C28.9503 51.9772 28.7887 52.0173 28.6254 52.0117C28.4622 52.006 28.3037 51.9548 28.168 51.8639C28.0133 51.7652 27.8533 51.6732 27.688 51.5879C27.5396 51.514 27.415 51.3998 27.3287 51.2582C27.2423 51.1167 27.1977 50.9536 27.2 50.7879V49.6519H23.5V50.7879C23.5018 50.9535 23.457 51.1164 23.3707 51.2578C23.2844 51.3993 23.1601 51.5136 23.012 51.5879C22.8467 51.6703 22.6864 51.7625 22.532 51.8639C22.3955 51.9547 22.2364 52.0059 22.0725 52.0115C21.9087 52.0172 21.7464 51.9771 21.604 51.8959L20.624 51.3279L18.768 54.5279L19.752 55.0679ZM25.352 53.1199C25.9534 53.1191 26.5416 53.2967 27.042 53.6302C27.5425 53.9638 27.9327 54.4383 28.1634 54.9937C28.3942 55.5491 28.4549 56.1605 28.3381 56.7505C28.2212 57.3404 27.932 57.8825 27.507 58.308C27.082 58.7336 26.5404 59.0235 25.9506 59.1411C25.3607 59.2588 24.7493 59.1988 24.1936 58.9688C23.6379 58.7389 23.1628 58.3492 22.8286 57.8492C22.4944 57.3492 22.316 56.7613 22.316 56.1599C22.3171 55.3546 22.6371 54.5826 23.2062 54.0128C23.7752 53.4431 24.5468 53.122 25.352 53.1199Z" fill="#EBEBEB"/>
<path d="M52.784 189.188C68.8224 189.188 81.824 187.327 81.824 185.032C81.824 182.737 68.8224 180.876 52.784 180.876C36.7457 180.876 23.744 182.737 23.744 185.032C23.744 187.327 36.7457 189.188 52.784 189.188Z" fill="#EBEBEB"/>
<path d="M158.464 140.492C155.504 134.408 150.324 131.292 144.464 133.008C138.604 134.724 137.72 142.876 142.064 144.932C146.408 146.988 150.78 140.988 153.084 139.752C155.388 138.516 158.464 140.492 158.464 140.492Z" fill="#50B780"/>
<path d="M161.332 156.692C161.332 155.96 161.288 155.224 161.26 154.492C161.208 153.028 161.16 151.564 161.108 150.092C161.008 147.416 160.708 144.784 159.608 142.316C158.628 140.078 156.99 138.19 154.912 136.904C154.142 136.438 153.311 136.078 152.444 135.836C151.659 135.033 150.657 134.477 149.56 134.236C148.209 133.962 146.82 133.927 145.456 134.132C145.404 134.132 145.408 134.216 145.456 134.208C146.758 134.044 148.079 134.137 149.344 134.484C149.884 134.636 150.408 134.841 150.908 135.096C151.223 135.265 151.525 135.456 151.812 135.668C150.634 135.425 149.417 135.437 148.244 135.704C147.822 135.803 147.408 135.937 147.008 136.104C146.688 136.035 146.36 136.007 146.032 136.02C145.606 136.036 145.182 136.097 144.768 136.2C143.923 136.438 143.116 136.793 142.368 137.252C142.324 137.276 142.368 137.34 142.408 137.316C143.145 136.915 143.934 136.617 144.752 136.432C145.147 136.344 145.548 136.285 145.952 136.256C146.176 136.244 146.4 136.244 146.624 136.256C144.96 137.025 143.622 138.359 142.848 140.02C142.828 140.064 142.896 140.104 142.916 140.056C143.376 139.095 144.046 138.249 144.877 137.582C145.708 136.915 146.678 136.442 147.716 136.2C147.844 136.168 147.976 136.152 148.116 136.124C148.072 136.312 148.08 136.524 148.056 136.712C148.016 137.008 147.968 137.304 147.908 137.596C147.786 138.2 147.627 138.796 147.432 139.38C147.234 139.97 146.998 140.546 146.724 141.104C146.463 141.698 146.131 142.258 145.736 142.772C145.731 142.776 145.728 142.781 145.726 142.787C145.723 142.793 145.722 142.799 145.723 142.805C145.723 142.811 145.725 142.817 145.728 142.822C145.731 142.827 145.735 142.832 145.74 142.835C145.745 142.839 145.751 142.841 145.757 142.842C145.763 142.843 145.769 142.842 145.775 142.84C145.78 142.839 145.786 142.836 145.79 142.831C145.794 142.827 145.798 142.822 145.8 142.816C146.148 142.268 146.556 141.76 146.876 141.192C147.187 140.648 147.455 140.079 147.676 139.492C147.901 138.9 148.075 138.29 148.196 137.668C148.264 137.34 148.312 137.008 148.352 136.676C148.39 136.477 148.402 136.274 148.388 136.072C149.074 135.969 149.771 135.956 150.46 136.032C150.204 137.484 149.924 138.996 149.112 140.256C149.084 140.3 149.156 140.34 149.18 140.292C149.56 139.624 149.895 138.93 150.18 138.216C150.449 137.524 150.619 136.797 150.684 136.056C151.889 136.218 153.053 136.607 154.112 137.204C156.106 138.366 157.698 140.107 158.676 142.196C159.706 144.448 160.281 146.882 160.368 149.356C160.56 152.464 160.6 155.596 160.912 158.696C160.932 158.9 161.252 158.968 161.312 158.736C161.38 158.057 161.387 157.373 161.332 156.692Z" fill="#263238"/>
<path d="M154.488 136.42C154.293 136.183 154.067 135.973 153.816 135.796C153.572 135.596 153.324 135.396 153.064 135.228C152.552 134.871 151.984 134.601 151.384 134.428C151.336 134.428 151.316 134.496 151.384 134.504C151.987 134.654 152.552 134.926 153.044 135.304C153.292 135.488 153.528 135.68 153.76 135.884C153.966 136.1 154.194 136.293 154.44 136.46C154.464 136.516 154.52 136.464 154.488 136.42Z" fill="#263238"/>
<path d="M145.04 138.624C144.55 139.195 144.096 139.794 143.68 140.42C143.277 141.051 142.939 141.721 142.672 142.42C142.672 142.44 142.696 142.452 142.708 142.42C143.39 141.095 144.193 139.837 145.108 138.66C145.128 138.64 145.072 138.588 145.04 138.624Z" fill="#263238"/>
<path d="M151.408 138.024C151.346 138.404 151.234 138.773 151.076 139.124C150.912 139.463 150.724 139.789 150.512 140.1C150.512 140.12 150.512 140.14 150.544 140.124C151.056 139.537 151.383 138.812 151.484 138.04C151.492 138 151.416 137.972 151.408 138.024Z" fill="#263238"/>
<path d="M160.92 140.644C160.92 140.644 165.112 135.372 173.2 137.24C180.892 139.016 184.44 153.12 176.672 154.804C168.904 156.488 170.272 143.444 167.436 141.228C165.36 139.6 162.372 139.952 160.92 140.644Z" fill="#50B780"/>
<path d="M179.452 144.944C178.924 144.482 178.367 144.054 177.784 143.664C177.235 143.289 176.637 142.991 176.008 142.776C175.692 142.297 175.339 141.844 174.952 141.42C174.238 140.654 173.414 139.998 172.508 139.472H172.748C173.176 139.45 173.604 139.45 174.032 139.472C174.896 139.527 175.743 139.737 176.532 140.092C176.576 140.092 176.608 140.04 176.564 140.024C175.765 139.678 174.929 139.426 174.072 139.272C173.655 139.198 173.232 139.162 172.808 139.164C172.581 139.165 172.354 139.179 172.128 139.204H171.996C171.254 138.83 170.472 138.543 169.664 138.348L169.892 138.284C170.288 138.198 170.689 138.133 171.092 138.088C171.898 137.996 172.713 138.008 173.516 138.124C173.524 138.121 173.531 138.116 173.536 138.109C173.541 138.103 173.544 138.094 173.544 138.086C173.544 138.078 173.541 138.069 173.536 138.063C173.531 138.056 173.524 138.051 173.516 138.048C172.704 137.952 171.885 137.92 171.068 137.952C170.382 137.971 169.7 138.059 169.032 138.216C168.546 138.126 168.054 138.07 167.56 138.048C164.736 137.928 161.66 138.98 159.924 141.3C158.188 143.62 157.848 146.716 157.524 149.516C157.05 153.419 156.947 157.358 157.216 161.28C157.216 161.508 157.56 161.468 157.564 161.248C157.672 157.924 157.788 154.596 158.108 151.284C158.256 149.748 158.416 148.208 158.672 146.688C158.859 145.379 159.235 144.105 159.788 142.904C160.389 141.677 161.339 140.655 162.52 139.968C163.704 139.286 165.026 138.876 166.388 138.768C167.608 138.666 168.836 138.781 170.016 139.108C169.974 139.344 169.967 139.586 169.996 139.824C170.024 140.124 170.084 140.421 170.176 140.708C170.262 140.985 170.374 141.253 170.512 141.508C170.664 141.784 170.852 142.032 171.02 142.308C171.044 142.348 171.112 142.308 171.08 142.264C170.748 141.787 170.533 141.239 170.452 140.664C170.404 140.391 170.372 140.116 170.356 139.84C170.356 139.632 170.356 139.42 170.356 139.212C171.639 139.607 172.837 140.24 173.888 141.076C174.084 141.236 174.288 141.4 174.46 141.572C174.194 141.821 173.962 142.105 173.772 142.416C173.495 142.821 173.254 143.249 173.052 143.696C172.681 144.592 172.429 145.534 172.304 146.496C172.304 146.544 172.376 146.56 172.38 146.496C172.531 145.561 172.844 144.66 173.304 143.832C173.517 143.417 173.756 143.016 174.02 142.632C174.156 142.44 174.296 142.232 174.444 142.06C174.524 141.96 174.612 141.856 174.684 141.748C175.636 142.68 176.414 143.774 176.98 144.98C176.594 145.401 176.276 145.88 176.04 146.4C175.75 146.915 175.498 147.449 175.284 148C174.893 149.077 174.57 150.178 174.316 151.296C174.316 151.344 174.384 151.36 174.392 151.296C174.64 150.169 175.025 149.077 175.54 148.044C175.784 147.54 176.04 147.04 176.308 146.548C176.587 146.09 176.841 145.618 177.068 145.132C177.607 146.313 177.92 147.584 177.992 148.88C177.992 148.928 178.072 148.924 178.068 148.88C177.919 146.847 177.297 144.878 176.252 143.128C176.748 143.34 177.244 143.528 177.72 143.8C178.328 144.128 178.893 144.531 179.4 145C179.436 145.036 179.488 144.976 179.452 144.944Z" fill="#263238"/>
<path d="M173.516 145.24C173.276 146.04 172.968 146.816 172.748 147.64C172.53 148.408 172.413 149.202 172.4 150C172.4 150.024 172.436 150.024 172.44 150C172.66 148.385 173.048 146.798 173.6 145.264C173.602 145.259 173.602 145.253 173.601 145.247C173.601 145.241 173.599 145.236 173.596 145.231C173.593 145.226 173.59 145.222 173.585 145.218C173.581 145.214 173.576 145.212 173.57 145.21C173.565 145.209 173.559 145.208 173.553 145.209C173.547 145.209 173.542 145.211 173.537 145.214C173.532 145.217 173.527 145.221 173.524 145.225C173.52 145.23 173.518 145.235 173.516 145.24Z" fill="#263238"/>
<path d="M178.644 143.26C178.326 142.954 177.965 142.697 177.572 142.496C177.172 142.314 176.757 142.167 176.332 142.056C176.284 142.056 176.268 142.12 176.332 142.132C176.753 142.239 177.157 142.405 177.532 142.624C177.915 142.823 178.282 143.049 178.632 143.3C178.636 143.299 178.64 143.297 178.643 143.294C178.646 143.291 178.648 143.288 178.65 143.284C178.651 143.28 178.651 143.275 178.65 143.271C178.649 143.267 178.647 143.263 178.644 143.26Z" fill="#263238"/>
<path d="M164.904 133.6C164.904 133.6 165.676 124.136 172.712 121.068C178.588 118.508 181.952 125.108 177.8 129.152C174.44 132.424 169.052 130.948 164.904 133.6Z" fill="#50B780"/>
<path d="M176.5 122.904C175.428 123.338 174.382 123.833 173.368 124.388C172.526 124.871 171.715 125.405 170.94 125.988C171.056 125.748 171.156 125.5 171.276 125.264C171.46 124.9 171.656 124.54 171.872 124.196C172.305 123.479 172.826 122.819 173.424 122.232C173.46 122.2 173.4 122.144 173.368 122.18C172.772 122.767 172.226 123.403 171.736 124.08C171.494 124.423 171.271 124.78 171.068 125.148C170.861 125.489 170.7 125.856 170.592 126.24L170.516 126.296C169.287 127.275 168.161 128.377 167.156 129.584C167.176 129.492 167.192 129.4 167.22 129.312C167.352 128.852 167.492 128.392 167.644 127.936C167.948 126.966 168.376 126.038 168.916 125.176C168.944 125.136 168.876 125.096 168.848 125.14C168.296 126.002 167.804 126.902 167.376 127.832C167.18 128.286 167.016 128.754 166.888 129.232C166.786 129.543 166.71 129.861 166.66 130.184C166.352 130.584 166.052 130.964 165.768 131.384C162.748 135.684 161.232 140.884 160.868 146.092C160.761 147.643 160.735 149.198 160.788 150.752C160.795 152.32 160.929 153.885 161.188 155.432C161.208 155.532 161.36 155.5 161.36 155.404C161.324 154.036 161.184 152.676 161.156 151.308C161.13 149.936 161.174 148.564 161.288 147.196C161.509 144.465 162.024 141.765 162.824 139.144C163.641 136.458 164.846 133.906 166.4 131.568C166.696 131.508 166.992 131.428 167.284 131.352C167.576 131.276 167.988 131.172 168.336 131.076C169.012 130.901 169.668 130.66 170.296 130.356C170.3 130.353 170.304 130.35 170.307 130.346C170.31 130.342 170.312 130.337 170.313 130.333C170.314 130.328 170.314 130.323 170.313 130.318C170.312 130.313 170.311 130.308 170.308 130.304C170.305 130.3 170.302 130.296 170.298 130.293C170.294 130.291 170.289 130.288 170.285 130.287C170.28 130.286 170.275 130.286 170.27 130.287C170.265 130.288 170.26 130.289 170.256 130.292C169.632 130.63 168.956 130.862 168.256 130.976C167.704 131.088 167.132 131.156 166.58 131.284C167.092 130.54 167.636 129.82 168.216 129.132C169.557 129.254 170.908 129.154 172.216 128.836C172.912 128.668 173.596 128.454 174.264 128.196C174.972 127.924 175.636 127.576 176.332 127.284C176.341 127.28 176.348 127.272 176.351 127.263C176.355 127.253 176.354 127.243 176.35 127.234C176.346 127.225 176.338 127.218 176.329 127.215C176.319 127.211 176.309 127.212 176.3 127.216C175.04 127.903 173.666 128.353 172.244 128.544C170.989 128.746 169.72 128.85 168.448 128.856C168.948 128.284 169.464 127.724 170.016 127.2C171.864 125.44 174.06 123.824 176.492 122.98C176.568 122.964 176.544 122.888 176.5 122.904Z" fill="#263238"/>
<path d="M170.772 122.936C170.454 123.334 170.165 123.755 169.908 124.196C169.646 124.66 169.438 125.153 169.288 125.664C169.288 125.664 169.288 125.692 169.316 125.664C169.552 125.2 169.748 124.716 169.988 124.256C170.22 123.8 170.502 123.371 170.828 122.976C170.86 122.948 170.8 122.896 170.772 122.936Z" fill="#263238"/>
<path d="M177.316 126.084C176.859 126.339 176.374 126.541 175.872 126.688C175.391 126.849 174.9 126.983 174.404 127.088C174.38 127.088 174.384 127.132 174.404 127.128C174.923 127.074 175.434 126.962 175.928 126.796C176.415 126.611 176.89 126.397 177.352 126.156C177.4 126.128 177.36 126.06 177.316 126.084Z" fill="#263238"/>
<path d="M159.432 131.904C159.388 132.304 158.368 128.464 152.416 125.052C147.016 121.952 140.564 113.888 145.864 108.792C150.14 104.68 161.408 113.644 159.432 131.904Z" fill="#50B780"/>
<path d="M163.528 153.948C163.441 149.951 163.126 145.962 162.584 142C162.114 138.354 161.27 134.766 160.068 131.292C159.628 130.04 159.12 128.812 158.572 127.6C158.602 127.128 158.594 126.655 158.548 126.184C158.52 125.576 158.464 124.984 158.408 124.368C158.352 123.752 158.292 123.168 158.22 122.556C158.148 121.944 158.02 121.356 157.996 120.752C157.998 120.746 157.999 120.74 157.998 120.734C157.997 120.727 157.994 120.721 157.99 120.716C157.987 120.711 157.982 120.707 157.976 120.704C157.971 120.701 157.964 120.7 157.958 120.7C157.952 120.7 157.945 120.701 157.94 120.704C157.934 120.707 157.929 120.711 157.926 120.716C157.922 120.721 157.919 120.727 157.918 120.734C157.918 120.74 157.918 120.746 157.92 120.752C158.039 121.385 158.11 122.025 158.132 122.668C158.18 123.252 158.212 123.836 158.228 124.42C158.248 125.008 158.228 125.592 158.228 126.18C158.228 126.388 158.228 126.612 158.208 126.84C157.652 125.64 157.052 124.492 156.4 123.36C156.8 120.892 156.28 118.312 155.776 115.9C155.776 115.852 155.692 115.876 155.704 115.924C155.953 117.184 156.087 118.464 156.104 119.748C156.128 120.76 156.08 121.772 156.076 122.784C155.932 122.544 155.792 122.3 155.644 122.06C154.872 120.8 154.044 119.564 153.172 118.368C153.243 117.784 153.225 117.191 153.116 116.612C153.018 115.961 152.874 115.319 152.684 114.688C152.492 114.06 152.284 113.44 152.024 112.832C151.764 112.224 151.424 111.612 151.176 110.988C151.152 110.932 151.076 110.988 151.104 111.016C151.422 111.609 151.672 112.235 151.848 112.884C152.047 113.492 152.21 114.11 152.336 114.736C152.464 115.36 152.564 115.988 152.652 116.624C152.712 117.024 152.748 117.476 152.82 117.896C151.546 116.185 150.155 114.566 148.656 113.048C148.62 113.012 148.568 113.068 148.6 113.104C150.869 115.654 152.895 118.41 154.652 121.336L154.84 121.664C154.512 121.46 154.136 121.296 153.828 121.124L152.096 120.172L150.408 119.252C150.12 119.092 149.836 118.924 149.54 118.772C149.189 118.616 148.852 118.43 148.532 118.216C148.524 118.21 148.514 118.208 148.504 118.21C148.495 118.211 148.486 118.216 148.48 118.224C148.474 118.232 148.472 118.242 148.473 118.252C148.475 118.262 148.48 118.27 148.488 118.276C149.06 118.592 149.568 119.076 150.12 119.412C150.672 119.748 151.24 120.108 151.82 120.432C152.876 121.02 154.024 121.444 155.068 122.056C155.788 123.32 156.455 124.615 157.068 125.94C156.436 125.54 155.792 125.14 155.136 124.78C154.716 124.544 154.292 124.312 153.864 124.088C153.439 123.891 153.036 123.649 152.664 123.364C152.656 123.361 152.648 123.359 152.639 123.361C152.631 123.363 152.623 123.367 152.617 123.373C152.612 123.379 152.608 123.387 152.607 123.396C152.606 123.404 152.608 123.413 152.612 123.42C153.305 124.047 154.074 124.584 154.9 125.02C155.664 125.468 156.436 125.9 157.232 126.288C157.867 127.686 158.44 129.106 158.952 130.548C161.456 137.64 162.376 145.168 162.816 152.644C162.948 154.872 163.016 157.1 163.044 159.332C163.072 161.564 162.952 163.788 162.956 166.016C162.956 166.08 163.064 166.096 163.076 166.016C163.344 164.04 163.388 162.016 163.476 160.04C163.564 158.064 163.572 155.976 163.528 153.948Z" fill="#263238"/>
<path d="M152.716 121.844C151.63 121.366 150.575 120.821 149.556 120.212C148.523 119.628 147.52 118.991 146.552 118.304C146.552 118.304 146.52 118.304 146.532 118.332C147.447 119.064 148.41 119.732 149.416 120.332C150.47 120.921 151.561 121.443 152.68 121.896C152.728 121.932 152.764 121.864 152.716 121.844Z" fill="#263238"/>
<path d="M154.44 113.828C154.352 113.484 154.244 113.144 154.128 112.808C154.132 112.802 154.133 112.795 154.133 112.788C154.133 112.781 154.132 112.774 154.128 112.768C154.052 112.576 153.972 112.368 153.896 112.196L153.868 112.124C153.868 112.088 153.836 112.052 153.824 112.016C153.812 111.98 153.8 112.016 153.804 112.016C153.808 112.016 153.84 112.148 153.86 112.212C153.869 112.249 153.88 112.285 153.892 112.32C154.286 113.643 154.582 114.993 154.776 116.36C154.776 116.404 154.848 116.404 154.844 116.36C154.789 115.505 154.654 114.657 154.44 113.828Z" fill="#263238"/>
<path d="M169.816 155.388L169.392 160.42L168.092 175.768H154.168L152.868 160.42L152.444 155.388H169.816Z" fill="#37474F"/>
<path d="M169.816 155.388L169.392 160.42H152.868L152.444 155.388H169.816Z" fill="#263238"/>
<path d="M171.18 153.368H151.076V158.196H171.18V153.368Z" fill="#37474F"/>
<path d="M18.976 175.768L39.232 175.672L59.488 175.636L100 175.568L140.512 175.632L160.768 175.668L181.024 175.768L160.768 175.864L140.512 175.9L100 175.968L59.488 175.9L39.232 175.864L18.976 175.768Z" fill="#263238"/>
<path d="M133.804 22.6279H66.204C65.2953 22.6337 64.3967 22.8188 63.5597 23.1725C62.7227 23.5263 61.9638 24.0419 61.3265 24.6896C60.6891 25.3373 60.1859 26.1045 59.8457 26.9471C59.5056 27.7898 59.3351 28.6913 59.344 29.5999V168.8C59.328 170.631 60.04 172.394 61.3234 173.701C62.6068 175.008 64.3566 175.751 66.188 175.768H133.788C134.697 175.762 135.595 175.576 136.432 175.223C137.269 174.869 138.028 174.354 138.666 173.707C139.304 173.06 139.808 172.293 140.149 171.451C140.491 170.61 140.663 169.708 140.656 168.8V29.5999C140.664 28.6922 140.493 27.7918 140.153 26.9502C139.813 26.1086 139.31 25.3422 138.674 24.6948C138.038 24.0473 137.28 23.5316 136.445 23.177C135.609 22.8223 134.712 22.6358 133.804 22.6279ZM136.376 164.496C136.376 168.16 133.632 171.124 130.248 171.124H69.756C66.364 171.124 63.62 168.16 63.62 164.496V34.8719C63.62 27.4079 66.364 27.0439 69.756 27.0439H81.872C82.576 27.0439 83.152 27.8439 83.152 28.8359V29.2639C83.152 31.5999 84.424 31.5999 86 31.5999H114C115.572 31.5999 116.836 31.5999 116.836 29.2679V28.8359C116.836 27.8439 117.4 27.0439 118.116 27.0439H130.236C133.62 27.0439 136.364 28.0359 136.364 34.8719L136.376 164.496Z" fill="#263238"/>
<path d="M103.82 28.692H96.176C96.114 28.692 96.0527 28.6798 95.9954 28.6561C95.9381 28.6324 95.8861 28.5976 95.8423 28.5538C95.7984 28.51 95.7637 28.4579 95.7399 28.4007C95.7162 28.3434 95.704 28.282 95.704 28.22C95.704 28.0949 95.7537 27.9748 95.8423 27.8863C95.9308 27.7978 96.0508 27.748 96.176 27.748H103.82C103.945 27.748 104.065 27.7978 104.154 27.8863C104.242 27.9748 104.292 28.0949 104.292 28.22C104.292 28.282 104.28 28.3434 104.256 28.4007C104.232 28.4579 104.198 28.51 104.154 28.5538C104.11 28.5976 104.058 28.6324 104.001 28.6561C103.943 28.6798 103.882 28.692 103.82 28.692Z" fill="white"/>
<path d="M136.4 34.8719V164.496C136.4 168.16 133.656 171.124 130.272 171.124H69.756C66.364 171.124 63.62 168.16 63.62 164.496V34.8719C63.62 27.4079 66.364 27.0439 69.756 27.0439H81.872C82.576 27.0439 83.152 27.8439 83.152 28.8359V29.2639C83.152 31.5999 84.424 31.5999 86 31.5999H114C115.576 31.5999 116.836 31.5999 116.836 29.2679V28.8359C116.836 27.8439 117.404 27.0439 118.12 27.0439H130.24C133.636 27.0439 136.4 28.0359 136.4 34.8719Z" fill="white"/>
<path d="M70.984 39.82L68.832 37.808L70.984 35.792L71.316 36.148L69.548 37.808L71.316 39.468L70.984 39.82Z" fill="#C7C7C7"/>
<path d="M130.744 36.5519C130.744 36.6358 130.719 36.7178 130.673 36.7875C130.626 36.8572 130.56 36.9116 130.482 36.9437C130.405 36.9758 130.32 36.9842 130.237 36.9678C130.155 36.9514 130.08 36.9111 130.02 36.8518C129.961 36.7925 129.921 36.7169 129.904 36.6347C129.888 36.5524 129.896 36.4672 129.928 36.3897C129.96 36.3122 130.015 36.246 130.084 36.1994C130.154 36.1528 130.236 36.1279 130.32 36.1279C130.376 36.1274 130.431 36.138 130.483 36.1591C130.535 36.1803 130.582 36.2115 130.621 36.2509C130.661 36.2904 130.692 36.3374 130.713 36.3891C130.734 36.4407 130.745 36.4961 130.744 36.5519Z" fill="#C7C7C7"/>
<path d="M130.744 38.0559C130.744 38.1397 130.719 38.2217 130.673 38.2914C130.626 38.3611 130.56 38.4155 130.482 38.4476C130.405 38.4797 130.32 38.4881 130.237 38.4717C130.155 38.4553 130.08 38.415 130.02 38.3557C129.961 38.2964 129.921 38.2208 129.904 38.1386C129.888 38.0563 129.896 37.9711 129.928 37.8936C129.96 37.8161 130.015 37.7499 130.084 37.7033C130.154 37.6567 130.236 37.6319 130.32 37.6319C130.376 37.6313 130.431 37.6419 130.483 37.663C130.535 37.6842 130.582 37.7154 130.621 37.7549C130.661 37.7943 130.692 37.8413 130.713 37.893C130.734 37.9446 130.745 38 130.744 38.0559Z" fill="#C7C7C7"/>
<path d="M130.744 39.5598C130.744 39.6436 130.719 39.7256 130.673 39.7953C130.626 39.8651 130.56 39.9194 130.482 39.9515C130.405 39.9836 130.32 39.992 130.237 39.9756C130.155 39.9593 130.08 39.9189 130.02 39.8596C129.961 39.8003 129.921 39.7247 129.904 39.6425C129.888 39.5602 129.896 39.475 129.928 39.3975C129.96 39.32 130.015 39.2538 130.084 39.2072C130.154 39.1606 130.236 39.1358 130.32 39.1358C130.376 39.1352 130.431 39.1458 130.483 39.167C130.535 39.1881 130.582 39.2193 130.621 39.2588C130.661 39.2982 130.692 39.3452 130.713 39.3969C130.734 39.4486 130.745 39.5039 130.744 39.5598Z" fill="#C7C7C7"/>
<path d="M79.78 29.9559L79.664 30.0719L79.596 30.1359C79.2963 29.8379 78.8907 29.6707 78.468 29.6707C78.0453 29.6707 77.6398 29.8379 77.34 30.1359L77.276 30.0679L77.16 29.9519L77.308 29.8199C77.4153 29.7368 77.5305 29.6644 77.652 29.6039C77.7958 29.5313 77.9495 29.4801 78.108 29.4519C78.182 29.437 78.2568 29.4264 78.332 29.4199H78.532H78.684C78.8274 29.4371 78.9683 29.4706 79.104 29.5199C79.2007 29.5565 79.2943 29.6007 79.384 29.6519C79.4789 29.7063 79.5686 29.7692 79.652 29.8399L79.776 29.9519L79.78 29.9559Z" fill="#C7C7C7"/>
<path d="M77.712 30.5041L77.524 30.3201C77.7751 30.071 78.1144 29.9312 78.468 29.9312C78.8217 29.9312 79.161 30.071 79.412 30.3201L79.224 30.5041C79.0232 30.3043 78.7514 30.1922 78.468 30.1922C78.1847 30.1922 77.9129 30.3043 77.712 30.5041Z" fill="#C7C7C7"/>
<path d="M79.04 30.6917L78.856 30.8717C78.8032 30.82 78.7407 30.7792 78.672 30.7517C78.6034 30.7243 78.5299 30.7107 78.456 30.7117C78.3817 30.7103 78.3078 30.7241 78.239 30.7523C78.1702 30.7805 78.1079 30.8225 78.056 30.8757C77.996 30.8117 77.932 30.7517 77.872 30.6917C77.9468 30.6118 78.0373 30.5481 78.1377 30.5045C78.2382 30.461 78.3465 30.4385 78.456 30.4385C78.5655 30.4385 78.6738 30.461 78.7743 30.5045C78.8747 30.5481 78.9652 30.6118 79.04 30.6917Z" fill="#C7C7C7"/>
<path d="M78.636 31.04C78.636 31.0846 78.6183 31.1273 78.5868 31.1588C78.5553 31.1903 78.5126 31.208 78.468 31.208C78.4461 31.208 78.4245 31.2037 78.4043 31.1952C78.3841 31.1867 78.3659 31.1742 78.3506 31.1586C78.3353 31.1429 78.3233 31.1244 78.3153 31.104C78.3073 31.0837 78.3035 31.0619 78.304 31.04C78.304 30.9965 78.3213 30.9548 78.352 30.9241C78.3828 30.8933 78.4245 30.876 78.468 30.876C78.4899 30.8755 78.5116 30.8793 78.532 30.8873C78.5524 30.8953 78.5709 30.9073 78.5866 30.9226C78.6022 30.9379 78.6147 30.9562 78.6232 30.9763C78.6316 30.9965 78.636 31.0181 78.636 31.04Z" fill="#C7C7C7"/>
<path d="M68.364 30.3077C68.364 30.2118 68.3925 30.1181 68.4459 30.0384C68.4992 29.9587 68.5751 29.8967 68.6637 29.8602C68.7524 29.8237 68.8499 29.8143 68.9439 29.8333C69.0379 29.8523 69.1242 29.8988 69.1917 29.9669C69.2592 30.035 69.305 30.1216 69.3232 30.2158C69.3414 30.3099 69.3313 30.4074 69.294 30.4957C69.2568 30.5841 69.1941 30.6594 69.114 30.7121C69.0339 30.7648 68.9399 30.7925 68.844 30.7917C68.7807 30.7917 68.7179 30.7792 68.6594 30.7548C68.6009 30.7304 68.5478 30.6947 68.5032 30.6497C68.4586 30.6047 68.4233 30.5513 68.3994 30.4926C68.3755 30.4339 68.3635 30.3711 68.364 30.3077Z" fill="#C7C7C7"/>
<path d="M69.88 30.308C69.8816 30.2127 69.9113 30.1199 69.9654 30.0414C70.0196 29.9628 70.0957 29.902 70.1843 29.8666C70.2728 29.8312 70.3699 29.8228 70.4632 29.8423C70.5566 29.8619 70.6421 29.9086 70.709 29.9766C70.7759 30.0446 70.8212 30.1309 70.8392 30.2245C70.8573 30.3182 70.8472 30.4151 70.8104 30.5031C70.7735 30.591 70.7115 30.6661 70.6321 30.719C70.5526 30.7718 70.4594 30.8 70.364 30.8C70.2998 30.8 70.2362 30.7873 70.1769 30.7624C70.1177 30.7376 70.064 30.7012 70.0189 30.6555C69.9739 30.6097 69.9384 30.5554 69.9145 30.4957C69.8907 30.4361 69.8789 30.3723 69.88 30.308Z" fill="#C7C7C7"/>
<path d="M71.4 30.308C71.4016 30.2127 71.4313 30.1199 71.4855 30.0414C71.5396 29.9628 71.6157 29.902 71.7043 29.8666C71.7929 29.8312 71.8899 29.8228 71.9833 29.8423C72.0766 29.8619 72.1621 29.9086 72.229 29.9766C72.2959 30.0446 72.3412 30.1309 72.3592 30.2245C72.3773 30.3182 72.3672 30.4151 72.3304 30.5031C72.2935 30.591 72.2315 30.6661 72.1521 30.719C72.0727 30.7718 71.9794 30.8 71.884 30.8C71.8198 30.8 71.7562 30.7873 71.6969 30.7624C71.6377 30.7376 71.584 30.7012 71.5389 30.6555C71.4939 30.6097 71.4584 30.5554 71.4346 30.4957C71.4107 30.4361 71.399 30.3723 71.4 30.308Z" fill="#C7C7C7"/>
<path d="M72.92 30.308C72.9216 30.2125 72.9514 30.1195 73.0057 30.0409C73.06 29.9623 73.1364 29.9015 73.2252 29.8662C73.314 29.831 73.4113 29.8227 73.5047 29.8426C73.5982 29.8625 73.6837 29.9096 73.7504 29.978C73.8171 30.0464 73.8621 30.1331 73.8797 30.227C73.8973 30.3209 73.8866 30.4179 73.8492 30.5058C73.8117 30.5937 73.7491 30.6686 73.6691 30.7209C73.5892 30.7733 73.4956 30.8008 73.4 30.8C73.336 30.8 73.2725 30.7872 73.2135 30.7624C73.1545 30.7375 73.101 30.7011 73.0563 30.6552C73.0116 30.6094 72.9764 30.555 72.953 30.4954C72.9296 30.4358 72.9184 30.3721 72.92 30.308Z" fill="#C7C7C7"/>
<path d="M74.44 30.308C74.4416 30.2125 74.4714 30.1195 74.5257 30.0409C74.5801 29.9623 74.6564 29.9015 74.7452 29.8662C74.834 29.831 74.9313 29.8227 75.0247 29.8426C75.1182 29.8625 75.2037 29.9096 75.2704 29.978C75.3371 30.0464 75.3821 30.1331 75.3997 30.227C75.4173 30.3209 75.4067 30.4179 75.3692 30.5058C75.3317 30.5937 75.2691 30.6686 75.1892 30.7209C75.1092 30.7733 75.0156 30.8008 74.92 30.8C74.856 30.8 74.7926 30.7872 74.7335 30.7624C74.6745 30.7375 74.621 30.7011 74.5763 30.6552C74.5316 30.6094 74.4965 30.555 74.4731 30.4954C74.4497 30.4358 74.4384 30.3721 74.44 30.308Z" fill="#C7C7C7"/>
<path d="M130.924 31.364H126.992V29.54H130.924V31.364ZM127.2 31.16H130.72V29.744H127.2V31.16Z" fill="#C7C7C7"/>
<path d="M129.852 29.8521H127.32V31.0521H129.852V29.8521Z" fill="#C7C7C7"/>
<path d="M131.272 29.9639H130.924V30.9359H131.272V29.9639Z" fill="#C7C7C7"/>
<path d="M74.676 163.2H74.12V165.74H73.088V164.444H71.256V165.74H70.224V163.2H69.672L72.172 160.612L74.676 163.2Z" fill="#EBEBEB"/>
<path d="M130.332 160.612H124.3V161.472H130.332V160.612Z" fill="#EBEBEB"/>
<path d="M130.332 162.744H124.3V163.604H130.332V162.744Z" fill="#EBEBEB"/>
<path d="M130.332 164.876H124.3V165.736H130.332V164.876Z" fill="#EBEBEB"/>
<path d="M101.716 162.832L100 164.664L98.284 162.832L98.588 162.552L100 164.056L101.412 162.552L101.716 162.832Z" fill="#EBEBEB"/>
<path d="M100 166.556C99.3837 166.556 98.7813 166.373 98.2689 166.031C97.7565 165.688 97.3571 165.202 97.1212 164.632C96.8854 164.063 96.8237 163.436 96.9439 162.832C97.0641 162.227 97.3609 161.672 97.7967 161.236C98.2325 160.801 98.7877 160.504 99.3921 160.384C99.9966 160.263 100.623 160.325 101.192 160.561C101.762 160.797 102.249 161.196 102.591 161.709C102.933 162.221 103.116 162.823 103.116 163.44C103.114 164.265 102.785 165.057 102.201 165.641C101.617 166.225 100.826 166.554 100 166.556ZM100 160.736C99.4652 160.736 98.9424 160.894 98.4978 161.191C98.0531 161.489 97.7065 161.911 97.5019 162.405C97.2972 162.899 97.2437 163.443 97.348 163.967C97.4523 164.492 97.7099 164.974 98.088 165.352C98.4662 165.73 98.948 165.987 99.4725 166.092C99.997 166.196 100.541 166.143 101.035 165.938C101.529 165.733 101.951 165.387 102.248 164.942C102.545 164.497 102.704 163.975 102.704 163.44C102.704 162.723 102.419 162.035 101.912 161.528C101.405 161.021 100.717 160.736 100 160.736Z" fill="#EBEBEB"/>
<path d="M95.348 152.244C95.348 152.45 95.287 152.651 95.1727 152.822C95.0585 152.993 94.896 153.126 94.706 153.205C94.516 153.284 94.3069 153.304 94.1051 153.264C93.9034 153.224 93.7181 153.125 93.5726 152.98C93.4272 152.834 93.3281 152.649 93.288 152.447C93.2479 152.245 93.2685 152.036 93.3472 151.846C93.4259 151.656 93.5592 151.494 93.7302 151.379C93.9012 151.265 94.1023 151.204 94.308 151.204C94.4447 151.204 94.5802 151.23 94.7066 151.282C94.833 151.334 94.9479 151.411 95.0446 151.508C95.1413 151.604 95.2178 151.719 95.2699 151.845C95.322 151.972 95.3485 152.107 95.348 152.244Z" fill="#DBDBDB"/>
<path d="M101.688 152.244C101.688 152.556 101.596 152.86 101.422 153.12C101.249 153.379 101.003 153.581 100.715 153.7C100.427 153.819 100.11 153.85 99.8045 153.79C99.4988 153.729 99.218 153.579 98.9976 153.358C98.7772 153.138 98.6271 152.857 98.5663 152.551C98.5055 152.246 98.5367 151.929 98.656 151.641C98.7753 151.353 98.9773 151.107 99.2364 150.934C99.4956 150.76 99.8003 150.668 100.112 150.668C100.53 150.668 100.931 150.834 101.226 151.13C101.522 151.425 101.688 151.826 101.688 152.244Z" fill="#50B780"/>
<path d="M106.956 152.244C106.956 152.45 106.895 152.651 106.781 152.822C106.666 152.993 106.504 153.126 106.314 153.205C106.124 153.284 105.915 153.304 105.713 153.264C105.511 153.224 105.326 153.125 105.181 152.98C105.035 152.834 104.936 152.649 104.896 152.447C104.856 152.245 104.876 152.036 104.955 151.846C105.034 151.656 105.167 151.494 105.338 151.379C105.509 151.265 105.71 151.204 105.916 151.204C106.053 151.204 106.188 151.23 106.315 151.282C106.441 151.334 106.556 151.411 106.653 151.508C106.749 151.604 106.826 151.719 106.878 151.845C106.93 151.972 106.957 152.107 106.956 152.244Z" fill="#DBDBDB"/>
<path d="M113.812 123.268H85.74V132.196H113.812V123.268Z" fill="#50B780"/>
<path d="M93.6 128.984V126.584C93.5995 126.554 93.6049 126.525 93.616 126.498C93.627 126.47 93.6435 126.445 93.6644 126.424C93.6853 126.403 93.7102 126.387 93.7377 126.376C93.7651 126.365 93.7944 126.359 93.824 126.36C93.8538 126.359 93.8833 126.365 93.911 126.376C93.9386 126.387 93.9638 126.403 93.985 126.424C94.0062 126.445 94.0231 126.47 94.0346 126.497C94.0461 126.525 94.052 126.554 94.052 126.584V128.772H95.164C95.2245 128.772 95.2825 128.796 95.3252 128.839C95.368 128.881 95.392 128.939 95.392 129C95.392 129.06 95.368 129.118 95.3252 129.161C95.2825 129.204 95.2245 129.228 95.164 129.228H93.824C93.7928 129.228 93.762 129.222 93.7334 129.209C93.7048 129.197 93.6792 129.178 93.6581 129.155C93.637 129.132 93.621 129.105 93.611 129.076C93.601 129.046 93.5972 129.015 93.6 128.984Z" fill="white"/>
<path d="M98 126.696C98.2665 126.975 98.4153 127.346 98.4153 127.732C98.4153 128.118 98.2665 128.489 98 128.768C97.8768 128.905 97.7264 129.015 97.5583 129.091C97.3903 129.166 97.2083 129.206 97.024 129.208C96.8354 129.207 96.6489 129.168 96.4762 129.092C96.3034 129.017 96.1481 128.906 96.02 128.768C95.758 128.487 95.6123 128.116 95.6123 127.732C95.6123 127.347 95.758 126.977 96.02 126.696C96.1475 126.557 96.3027 126.446 96.4756 126.37C96.6485 126.294 96.8353 126.255 97.024 126.256C97.2085 126.257 97.3907 126.296 97.5588 126.372C97.7269 126.448 97.8773 126.558 98 126.696ZM97.948 127.732C97.948 127.466 97.848 127.211 97.668 127.016C97.5867 126.925 97.4875 126.853 97.3766 126.802C97.2658 126.752 97.1457 126.725 97.024 126.724C96.8991 126.723 96.7754 126.749 96.661 126.799C96.5466 126.85 96.4441 126.923 96.36 127.016C96.1787 127.21 96.0785 127.466 96.08 127.732C96.0774 127.997 96.1778 128.252 96.36 128.444C96.4439 128.537 96.5463 128.611 96.6607 128.662C96.775 128.713 96.8988 128.74 97.024 128.74C97.146 128.738 97.2662 128.71 97.377 128.659C97.4878 128.608 97.5869 128.535 97.668 128.444C97.8426 128.248 97.9369 127.994 97.932 127.732H97.948Z" fill="white"/>
<path d="M99.08 127.736C99.0866 127.455 99.1711 127.182 99.3241 126.946C99.477 126.71 99.6925 126.522 99.9464 126.401C100.2 126.281 100.483 126.234 100.762 126.265C101.041 126.295 101.306 126.403 101.528 126.576C101.577 126.614 101.608 126.67 101.616 126.732C101.623 126.793 101.606 126.855 101.568 126.904C101.53 126.953 101.474 126.984 101.412 126.992C101.351 126.999 101.289 126.982 101.24 126.944C101.056 126.801 100.829 126.724 100.596 126.724C100.459 126.722 100.323 126.747 100.196 126.799C100.068 126.85 99.953 126.927 99.856 127.024C99.7589 127.115 99.6814 127.224 99.6284 127.346C99.5755 127.468 99.5481 127.599 99.5481 127.732C99.5481 127.865 99.5755 127.996 99.6284 128.118C99.6814 128.24 99.7589 128.349 99.856 128.44C99.953 128.537 100.068 128.614 100.196 128.665C100.323 128.717 100.459 128.742 100.596 128.74C100.793 128.739 100.986 128.685 101.156 128.584V128.024H100.568C100.506 128.022 100.448 127.996 100.405 127.952C100.362 127.908 100.337 127.85 100.336 127.788C100.337 127.727 100.362 127.669 100.405 127.627C100.449 127.584 100.507 127.56 100.568 127.56H101.368C101.399 127.559 101.43 127.564 101.458 127.575C101.487 127.586 101.513 127.602 101.536 127.624C101.558 127.645 101.576 127.67 101.588 127.699C101.601 127.727 101.608 127.757 101.608 127.788V128.696C101.61 128.719 101.61 128.741 101.608 128.764C101.594 128.806 101.565 128.841 101.528 128.864C101.307 129.037 101.043 129.145 100.765 129.176C100.486 129.208 100.204 129.161 99.9509 129.041C99.6974 128.922 99.4821 128.734 99.329 128.5C99.1759 128.265 99.0911 127.992 99.084 127.712L99.08 127.736Z" fill="white"/>
<path d="M102.576 126.564C102.575 126.534 102.581 126.505 102.592 126.478C102.603 126.45 102.62 126.425 102.64 126.404C102.661 126.383 102.686 126.367 102.714 126.356C102.741 126.345 102.77 126.339 102.8 126.34C102.83 126.339 102.86 126.345 102.888 126.356C102.915 126.367 102.941 126.383 102.962 126.404C102.984 126.425 103.001 126.449 103.013 126.477C103.025 126.504 103.031 126.534 103.032 126.564V128.964C103.03 129.024 103.005 129.081 102.961 129.123C102.918 129.165 102.86 129.188 102.8 129.188C102.77 129.188 102.741 129.183 102.714 129.172C102.686 129.161 102.661 129.144 102.64 129.123C102.62 129.103 102.603 129.078 102.592 129.05C102.581 129.023 102.575 128.993 102.576 128.964V126.564Z" fill="white"/>
<path d="M104.248 128.984C104.248 129.043 104.224 129.1 104.182 129.142C104.14 129.184 104.083 129.208 104.024 129.208C103.965 129.208 103.908 129.184 103.866 129.142C103.824 129.1 103.8 129.043 103.8 128.984V126.584C103.799 126.547 103.807 126.511 103.823 126.479C103.839 126.446 103.863 126.418 103.892 126.396C103.941 126.363 104 126.35 104.057 126.359C104.115 126.368 104.168 126.398 104.204 126.444L105.528 128.276V126.6C105.528 126.571 105.534 126.542 105.545 126.516C105.556 126.489 105.572 126.465 105.592 126.444C105.613 126.424 105.637 126.408 105.664 126.397C105.691 126.386 105.719 126.38 105.748 126.38C105.807 126.38 105.863 126.403 105.905 126.444C105.947 126.485 105.971 126.541 105.972 126.6V129C105.971 129.059 105.947 129.115 105.905 129.157C105.864 129.199 105.807 129.223 105.748 129.224C105.716 129.223 105.684 129.216 105.654 129.201C105.625 129.187 105.6 129.166 105.58 129.14L105.56 129.116L104.248 127.296V128.984Z" fill="white"/>
<path d="M106.8 54.1557V57.0797H104.732V54.1557C104.732 51.3557 102.616 49.1117 100.016 49.1117C97.416 49.1117 95.3 51.3717 95.3 54.1557V61.4757H93.2V54.1557C93.2 50.1557 96.244 46.9277 100 46.9277C103.756 46.9277 106.8 50.1717 106.8 54.1557Z" fill="#C7C7C7"/>
<path d="M93.216 57.0879L95.284 57.1719V61.4759H93.216V57.0879Z" fill="#A6A6A6"/>
<path d="M109.436 59.0239H90.564V76.1439H109.436V59.0239Z" fill="#50B780"/>
<path opacity="0.1" d="M109.436 59.0239H100V76.1439H109.436V59.0239Z" fill="black"/>
<path d="M100.8 68.2119L101.6 71.9559H98.248L99.048 68.2119C98.7377 68.0193 98.4986 67.7308 98.367 67.3901C98.2353 67.0494 98.2183 66.6751 98.3184 66.3238C98.4186 65.9726 98.6304 65.6636 98.922 65.4435C99.2135 65.2235 99.5688 65.1045 99.934 65.1045C100.299 65.1045 100.655 65.2235 100.946 65.4435C101.238 65.6636 101.449 65.9726 101.55 66.3238C101.65 66.6751 101.633 67.0494 101.501 67.3901C101.369 67.7308 101.13 68.0193 100.82 68.2119H100.8Z" fill="#263238"/>
<path d="M124.304 95.0361H75.7V103.356H124.304V95.0361Z" fill="white"/>
<path d="M124.5 103.556H75.5V94.8359H124.5V103.556ZM75.9 103.156H124.1V95.2359H75.9V103.156Z" fill="#EBEBEB"/>
<path d="M80.744 97.332H80.344V100.888H80.744V97.332Z" fill="#37474F"/>
<path d="M82.324 98.9077H78.768V99.3077H82.324V98.9077Z" fill="#37474F"/>
<path d="M81.6623 97.7071L79.147 100.221L79.4297 100.504L81.9451 97.9901L81.6623 97.7071Z" fill="#37474F"/>
<path d="M79.4268 97.7093L79.1439 97.9922L81.6584 100.507L81.9412 100.224L79.4268 97.7093Z" fill="#37474F"/>
<path d="M86.776 97.332H86.376V100.888H86.776V97.332Z" fill="#37474F"/>
<path d="M88.356 98.9077H84.8V99.3077H88.356V98.9077Z" fill="#37474F"/>
<path d="M87.6931 97.7115L85.1777 100.225L85.4604 100.508L87.9758 97.9944L87.6931 97.7115Z" fill="#37474F"/>
<path d="M85.46 97.7084L85.1772 97.9912L87.6917 100.506L87.9745 100.223L85.46 97.7084Z" fill="#37474F"/>
<path d="M92.808 97.332H92.408V100.888H92.808V97.332Z" fill="#37474F"/>
<path d="M94.388 98.9077H90.832V99.3077H94.388V98.9077Z" fill="#37474F"/>
<path d="M93.7238 97.712L91.2085 100.226L91.4912 100.509L94.0066 97.9949L93.7238 97.712Z" fill="#37474F"/>
<path d="M91.4933 97.7069L91.2105 97.9897L93.725 100.504L94.0078 100.221L91.4933 97.7069Z" fill="#37474F"/>
<path d="M98.844 97.332H98.444V100.888H98.844V97.332Z" fill="#37474F"/>
<path d="M100.42 98.9077H96.864V99.3077H100.42V98.9077Z" fill="#37474F"/>
<path d="M99.7586 97.712L97.2432 100.226L97.526 100.509L100.041 97.9949L99.7586 97.712Z" fill="#37474F"/>
<path d="M97.5294 97.7108L97.2466 97.9937L99.761 100.508L100.044 100.225L97.5294 97.7108Z" fill="#37474F"/>
<path d="M104.876 97.332H104.476V100.888H104.876V97.332Z" fill="#37474F"/>
<path d="M106.452 98.9077H102.896V99.3077H106.452V98.9077Z" fill="#37474F"/>
<path d="M105.789 97.712L103.274 100.226L103.557 100.509L106.072 97.9949L105.789 97.712Z" fill="#37474F"/>
<path d="M103.559 97.7054L103.276 97.9883L105.79 100.503L106.073 100.22L103.559 97.7054Z" fill="#37474F"/>
<path d="M110.908 97.332H110.508V100.888H110.908V97.332Z" fill="#37474F"/>
<path d="M112.488 98.9077H108.932V99.3077H112.488V98.9077Z" fill="#37474F"/>
<path d="M111.823 97.7095L109.308 100.223L109.59 100.506L112.106 97.9925L111.823 97.7095Z" fill="#37474F"/>
<path d="M109.592 97.7045L109.309 97.9873L111.824 100.502L112.106 100.219L109.592 97.7045Z" fill="#37474F"/>
<path d="M120.152 100.48C119.718 100.454 119.295 100.333 118.913 100.126C118.531 99.9182 118.198 99.6295 117.94 99.2799L117.852 99.1599L117.94 99.0439C118.182 98.6825 118.509 98.3864 118.893 98.1816C119.277 97.9768 119.705 97.8696 120.14 97.8696C120.575 97.8696 121.003 97.9768 121.387 98.1816C121.771 98.3864 122.098 98.6825 122.34 99.0439L122.424 99.1599L122.34 99.2799C122.084 99.6268 121.756 99.9138 121.378 100.121C121 100.328 120.582 100.451 120.152 100.48ZM118.36 99.1759C118.566 99.4601 118.837 99.6915 119.15 99.851C119.463 100.011 119.809 100.094 120.16 100.094C120.511 100.094 120.857 100.011 121.17 99.851C121.483 99.6915 121.754 99.4601 121.96 99.1759C121.754 98.8917 121.483 98.6603 121.17 98.5008C120.857 98.3413 120.511 98.2581 120.16 98.2581C119.809 98.2581 119.463 98.3413 119.15 98.5008C118.837 98.6603 118.566 98.8917 118.36 99.1759Z" fill="#EBEBEB"/>
<path d="M120.148 100.076C120.645 100.076 121.048 99.6729 121.048 99.1759C121.048 98.6788 120.645 98.2759 120.148 98.2759C119.651 98.2759 119.248 98.6788 119.248 99.1759C119.248 99.6729 119.651 100.076 120.148 100.076Z" fill="#EBEBEB"/>
<path d="M121.63 97.3713L118.434 100.567L118.717 100.85L121.913 97.6541L121.63 97.3713Z" fill="#EBEBEB"/>
<path d="M86.932 86.3719H86.292V87.4959C86.292 87.5723 86.2617 87.6455 86.2077 87.6995C86.1537 87.7536 86.0804 87.7839 86.004 87.7839C85.9277 87.7839 85.8544 87.7536 85.8004 87.6995C85.7464 87.6455 85.716 87.5723 85.716 87.4959V84.4359C85.716 84.3983 85.7235 84.361 85.738 84.3263C85.7526 84.2916 85.7738 84.2601 85.8006 84.2337C85.8274 84.2072 85.8592 84.1864 85.8941 84.1724C85.929 84.1583 85.9664 84.1514 86.004 84.1519H86.932C87.0834 84.1428 87.235 84.1648 87.3776 84.2164C87.5202 84.2681 87.6507 84.3484 87.7611 84.4524C87.8715 84.5563 87.9594 84.6818 88.0196 84.821C88.0797 84.9602 88.1107 85.1103 88.1107 85.2619C88.1107 85.4135 88.0797 85.5636 88.0196 85.7028C87.9594 85.842 87.8715 85.9675 87.7611 86.0714C87.6507 86.1754 87.5202 86.2557 87.3776 86.3074C87.235 86.359 87.0834 86.381 86.932 86.3719ZM86.292 85.7959H86.932C87.006 85.8023 87.0806 85.7933 87.1509 85.7693C87.2212 85.7454 87.2858 85.7071 87.3406 85.6569C87.3953 85.6067 87.439 85.5457 87.469 85.4777C87.4989 85.4097 87.5143 85.3362 87.5143 85.2619C87.5143 85.1876 87.4989 85.1141 87.469 85.0461C87.439 84.9781 87.3953 84.9171 87.3406 84.8669C87.2858 84.8167 87.2212 84.7784 87.1509 84.7545C87.0806 84.7305 87.006 84.7215 86.932 84.7279H86.292V85.7959Z" fill="#50B780"/>
<path d="M90.232 86.924H88.972L88.716 87.6C88.6936 87.6527 88.6563 87.6978 88.6087 87.7297C88.5612 87.7617 88.5053 87.7791 88.448 87.78C88.415 87.7861 88.3811 87.7861 88.348 87.78C88.2763 87.753 88.218 87.6988 88.1858 87.6292C88.1536 87.5596 88.1501 87.4802 88.176 87.408L89.324 84.352C89.347 84.298 89.3855 84.2521 89.4347 84.22C89.4838 84.188 89.5414 84.1713 89.6 84.172C89.6584 84.1704 89.7158 84.1868 89.7644 84.219C89.8131 84.2513 89.8507 84.2977 89.872 84.352L91.02 87.408C91.046 87.4802 91.0424 87.5596 91.0103 87.6292C90.9781 87.6988 90.9198 87.753 90.848 87.78C90.8151 87.787 90.781 87.787 90.748 87.78C90.691 87.7799 90.6354 87.7627 90.5883 87.7306C90.5412 87.6985 90.5049 87.653 90.484 87.6L90.232 86.924ZM90.02 86.356L89.6 85.24L89.2 86.356H90.02Z" fill="#50B780"/>
<path d="M91.528 86.8799C91.5505 86.8493 91.5793 86.8238 91.6123 86.8052C91.6454 86.7865 91.6821 86.7751 91.7199 86.7717C91.7577 86.7683 91.7958 86.773 91.8317 86.7854C91.8676 86.7978 91.9004 86.8178 91.928 86.8439C92.2067 87.0809 92.5548 87.2213 92.92 87.2439C93.1507 87.2486 93.3772 87.1815 93.568 87.0519C93.6329 87.0128 93.6872 86.9585 93.7262 86.8937C93.7653 86.8288 93.7879 86.7554 93.792 86.6799C93.7932 86.6216 93.7765 86.5643 93.744 86.5159C93.7038 86.4533 93.6506 86.4001 93.588 86.3599C93.368 86.2348 93.1265 86.152 92.876 86.1159C92.6444 86.0763 92.4186 86.0078 92.204 85.9119C92.0088 85.8275 91.8422 85.6886 91.724 85.5119C91.6437 85.3852 91.602 85.2378 91.604 85.0879C91.6074 84.9389 91.6453 84.7927 91.7147 84.6608C91.7841 84.529 91.8831 84.415 92.004 84.3279C92.267 84.1459 92.5803 84.0508 92.9 84.0559C93.3088 84.0734 93.703 84.2127 94.032 84.4559C94.061 84.4752 94.0859 84.5001 94.1053 84.5291C94.1246 84.5581 94.138 84.5906 94.1447 84.6249C94.1514 84.6591 94.1513 84.6943 94.1443 84.7284C94.1373 84.7626 94.1236 84.795 94.104 84.8239C94.0857 84.8539 94.0615 84.88 94.0328 84.9004C94.0041 84.9209 93.9716 84.9352 93.9372 84.9427C93.9028 84.9502 93.8672 84.9506 93.8326 84.9439C93.798 84.9373 93.7652 84.9236 93.736 84.9039C93.4976 84.7107 93.206 84.5949 92.9 84.5719C92.693 84.5683 92.4901 84.6299 92.32 84.7479C92.2626 84.7818 92.2146 84.8297 92.1803 84.8869C92.1461 84.9442 92.1267 85.0092 92.124 85.0759C92.1202 85.1265 92.1328 85.177 92.16 85.2199C92.1974 85.2739 92.2449 85.3201 92.3 85.3559C92.4993 85.4729 92.7193 85.5504 92.948 85.5839C93.1943 85.6276 93.4346 85.7001 93.664 85.7999C93.8744 85.8924 94.0545 86.042 94.184 86.2319C94.2645 86.3646 94.3073 86.5167 94.308 86.6719C94.3022 86.8312 94.2586 86.9869 94.1807 87.126C94.1028 87.2651 93.9929 87.3837 93.86 87.4719C93.5812 87.6702 93.2461 87.774 92.904 87.7679C92.4162 87.7456 91.9493 87.5628 91.576 87.2479C91.5229 87.204 91.4884 87.1416 91.4795 87.0733C91.4706 87.005 91.4879 86.9359 91.528 86.8799Z" fill="#50B780"/>
<path d="M94.94 86.8799C94.9621 86.8525 94.9894 86.8297 95.0204 86.8131C95.0514 86.7964 95.0854 86.786 95.1204 86.7827C95.1555 86.7793 95.1908 86.783 95.2244 86.7935C95.258 86.804 95.2891 86.8211 95.316 86.8439C95.5947 87.0809 95.9428 87.2213 96.308 87.2439C96.5388 87.2492 96.7654 87.182 96.956 87.0519C97.0209 87.0128 97.0752 86.9585 97.1142 86.8937C97.1533 86.8288 97.1759 86.7554 97.18 86.6799C97.1812 86.6216 97.1645 86.5643 97.132 86.5159C97.0928 86.4524 97.0394 86.399 96.976 86.3599C96.7575 86.2347 96.5173 86.1519 96.268 86.1159C96.0375 86.0768 95.813 86.0083 95.6 85.9119C95.4043 85.8266 95.2366 85.688 95.116 85.5119C95.0371 85.3845 94.9955 85.2376 94.996 85.0879C94.9994 84.9389 95.0373 84.7927 95.1067 84.6608C95.1761 84.529 95.2751 84.415 95.396 84.3279C95.659 84.1459 95.9723 84.0508 96.292 84.0559C96.7008 84.0734 97.095 84.2127 97.424 84.4559C97.453 84.4752 97.4779 84.5001 97.4973 84.5291C97.5166 84.5581 97.53 84.5906 97.5367 84.6249C97.5434 84.6591 97.5432 84.6943 97.5363 84.7284C97.5293 84.7626 97.5156 84.795 97.496 84.8239C97.4777 84.8539 97.4535 84.88 97.4248 84.9004C97.3961 84.9209 97.3636 84.9352 97.3292 84.9427C97.2947 84.9502 97.2592 84.9506 97.2246 84.9439C97.19 84.9373 97.1572 84.9236 97.128 84.9039C96.8896 84.7107 96.598 84.5949 96.292 84.5719C96.085 84.5683 95.8821 84.6299 95.712 84.7479C95.6546 84.7818 95.6066 84.8297 95.5723 84.8869C95.5381 84.9442 95.5187 85.0092 95.516 85.0759C95.5122 85.1265 95.5248 85.177 95.552 85.2199C95.5894 85.2739 95.6369 85.3201 95.692 85.3559C95.8916 85.4722 96.1115 85.5496 96.34 85.5839C96.5863 85.6276 96.8266 85.7001 97.056 85.7999C97.2657 85.8917 97.4447 86.0416 97.572 86.2319C97.6553 86.3633 97.6984 86.5162 97.696 86.6719C97.691 86.8309 97.6481 86.9865 97.5709 87.1256C97.4937 87.2648 97.3843 87.3835 97.252 87.4719C96.9721 87.671 96.6355 87.7748 96.292 87.7679C95.8041 87.7456 95.3373 87.5628 94.964 87.2479C94.9153 87.2003 94.886 87.1364 94.8815 87.0685C94.8771 87.0005 94.8979 86.9334 94.94 86.8799Z" fill="#50B780"/>
<path d="M103.168 84.5799L101.896 87.5999C101.891 87.618 101.881 87.6344 101.868 87.6479C101.868 87.6479 101.868 87.6679 101.844 87.6799L101.808 87.7039C101.808 87.7039 101.784 87.7319 101.76 87.7359H101.716H101.592H101.556C101.538 87.7311 101.522 87.7197 101.512 87.7039L101.476 87.6799C101.476 87.6799 101.476 87.6599 101.456 87.6479C101.454 87.632 101.454 87.6159 101.456 87.5999L100.776 85.9999L100.096 87.5999C100.096 87.5999 100.096 87.6359 100.076 87.6479L100.044 87.6799C100.032 87.6856 100.021 87.6938 100.012 87.7039L99.972 87.7359C99.9588 87.7331 99.9452 87.7331 99.932 87.7359H99.804H99.764C99.7458 87.7291 99.7294 87.7181 99.716 87.7039C99.716 87.7039 99.696 87.7039 99.68 87.6799L99.656 87.6479C99.656 87.6479 99.656 87.6159 99.628 87.5999L98.352 84.5759C98.329 84.5076 98.3328 84.4331 98.3627 84.3675C98.3925 84.3019 98.4462 84.2501 98.5129 84.2226C98.5795 84.1952 98.6541 84.194 98.7216 84.2195C98.789 84.245 98.8442 84.2952 98.876 84.3599L99.892 86.7599L100.564 85.1599C100.586 85.1073 100.624 85.0625 100.671 85.0312C100.719 84.9999 100.775 84.9834 100.832 84.9839C100.889 84.9847 100.945 85.0015 100.993 85.0327C101.042 85.0638 101.08 85.1079 101.104 85.1599L101.772 86.7599L102.784 84.3599C102.814 84.2901 102.87 84.235 102.941 84.2065C103.011 84.1781 103.09 84.1786 103.16 84.2079C103.206 84.2586 103.232 84.3241 103.233 84.3924C103.235 84.4608 103.212 84.5274 103.168 84.5799Z" fill="#50B780"/>
<path d="M106.8 84.5999C107.137 84.9544 107.325 85.4248 107.325 85.9139C107.325 86.4029 107.137 86.8733 106.8 87.2279C106.642 87.4001 106.451 87.538 106.238 87.633C106.024 87.7279 105.794 87.7779 105.56 87.7799C105.322 87.7785 105.086 87.7289 104.868 87.6341C104.649 87.5392 104.452 87.401 104.288 87.2279C103.959 86.8693 103.777 86.4004 103.777 85.9139C103.777 85.4273 103.959 84.9584 104.288 84.5999C104.451 84.4259 104.648 84.2873 104.867 84.1923C105.086 84.0974 105.322 84.0482 105.56 84.0479C105.794 84.0488 106.025 84.0984 106.238 84.1934C106.452 84.2884 106.643 84.4268 106.8 84.5999ZM106.732 85.9119C106.732 85.5771 106.606 85.2544 106.38 85.0079C106.277 84.8924 106.15 84.8 106.009 84.7366C105.868 84.6732 105.715 84.6403 105.56 84.6399C105.402 84.6387 105.246 84.6709 105.101 84.7343C104.956 84.7977 104.826 84.8909 104.72 85.0079C104.492 85.2536 104.366 85.5768 104.368 85.9119C104.365 86.2472 104.491 86.571 104.72 86.8159C104.827 86.9327 104.956 87.0262 105.101 87.0902C105.246 87.1543 105.402 87.1875 105.56 87.1879C105.715 87.1857 105.868 87.1516 106.009 87.0876C106.15 87.0235 106.276 86.931 106.38 86.8159C106.602 86.5675 106.722 86.2447 106.716 85.9119H106.732Z" fill="#50B780"/>
<path d="M110.732 87.3518C110.744 87.3872 110.75 87.4248 110.747 87.4622C110.745 87.4997 110.735 87.5363 110.718 87.5699C110.702 87.6035 110.678 87.6334 110.65 87.6577C110.621 87.6821 110.588 87.7005 110.552 87.7118C110.514 87.718 110.474 87.718 110.436 87.7118C110.365 87.7134 110.296 87.6939 110.236 87.6558C110.165 87.6113 110.108 87.5493 110.068 87.4758C109.986 87.2786 109.949 87.0653 109.96 86.8518C109.959 86.7727 109.937 86.6953 109.896 86.6278C109.857 86.566 109.804 86.515 109.74 86.4798C109.652 86.4227 109.554 86.3808 109.452 86.3558H108.84V87.4798C108.84 87.5176 108.832 87.5549 108.817 87.5897C108.802 87.6244 108.78 87.6559 108.753 87.6823C108.726 87.7086 108.694 87.7294 108.659 87.7434C108.623 87.7574 108.586 87.7643 108.548 87.7638C108.473 87.7638 108.4 87.7338 108.347 87.6806C108.294 87.6273 108.264 87.5551 108.264 87.4798V84.4198C108.263 84.3823 108.27 84.3452 108.285 84.3105C108.299 84.2758 108.32 84.2442 108.346 84.2178C108.372 84.1913 108.404 84.1704 108.439 84.1563C108.473 84.1422 108.511 84.1352 108.548 84.1358H109.476C109.705 84.1348 109.928 84.2047 110.116 84.3358C110.303 84.4669 110.445 84.6528 110.523 84.868C110.6 85.0832 110.61 85.3171 110.549 85.5376C110.488 85.7582 110.361 85.9545 110.184 86.0998C110.253 86.1548 110.314 86.2195 110.364 86.2918C110.477 86.4568 110.537 86.652 110.536 86.8518C110.528 86.9549 110.535 87.0585 110.556 87.1598C110.599 87.1738 110.639 87.1989 110.669 87.2326C110.7 87.2662 110.722 87.3073 110.732 87.3518ZM110 85.2638C110.001 85.1932 109.987 85.1233 109.96 85.058C109.934 84.9928 109.894 84.9335 109.844 84.8836C109.794 84.8337 109.735 84.7942 109.67 84.7675C109.605 84.7407 109.535 84.7272 109.464 84.7278H108.828V85.7958H109.464C109.606 85.7958 109.741 85.7399 109.842 85.6402C109.942 85.5405 109.999 85.4052 110 85.2638Z" fill="#50B780"/>
<path d="M111.576 87.4959V84.4359C111.575 84.3984 111.582 84.3613 111.597 84.3266C111.611 84.2919 111.632 84.2603 111.658 84.2339C111.684 84.2074 111.716 84.1865 111.751 84.1724C111.785 84.1583 111.823 84.1513 111.86 84.1519H112.472C112.938 84.1738 113.378 84.3745 113.701 84.7123C114.023 85.0501 114.203 85.499 114.203 85.9659C114.203 86.4328 114.023 86.8817 113.701 87.2195C113.378 87.5573 112.938 87.758 112.472 87.7799H111.86C111.785 87.7799 111.712 87.75 111.659 87.6967C111.606 87.6434 111.576 87.5712 111.576 87.4959ZM112.152 87.2039H112.472C112.788 87.1859 113.085 87.0476 113.303 86.8174C113.52 86.5872 113.642 86.2826 113.642 85.9659C113.642 85.6492 113.52 85.3445 113.303 85.1143C113.085 84.8841 112.788 84.7459 112.472 84.7279H112.152V87.2039Z" fill="#50B780"/>
<path d="M173.624 40.1118C173.624 40.1118 170.572 64.5358 165.556 70.0318C159.556 76.6238 155.156 75.6598 152.756 79.0598C150.324 75.6558 145.956 76.6238 139.956 70.0278C134.94 64.5318 131.896 40.1078 131.896 40.1078C145.096 33.7078 152.776 26.5078 152.776 26.5078C152.976 26.7358 160.616 33.7998 173.624 40.1118Z" fill="#37474F"/>
<path d="M152.74 26.5158V79.0598C150.308 75.6558 145.94 76.6238 139.94 70.0278C134.924 64.5318 131.88 40.1078 131.88 40.1078C145.08 33.7078 152.76 26.5078 152.76 26.5078L152.74 26.5158Z" fill="#455A64"/>
<path d="M170.4 42.0799C170.4 42.0799 167.824 62.7119 163.6 67.3559C158.508 72.9319 154.8 72.1119 152.764 74.9839C150.712 72.1119 147.02 72.9319 141.928 67.3559C137.696 62.7119 135.128 42.0799 135.128 42.0799C146.288 36.6599 152.768 30.5879 152.768 30.5879C152.768 30.5879 159.22 36.6599 170.4 42.0799Z" fill="#455A64"/>
<path d="M135.1 42.0796C135.1 42.0796 137.676 62.7076 141.9 67.3556C146.984 72.9276 150.672 72.1156 152.728 74.9796V30.5796C152.544 30.7996 146.088 36.7436 135.1 42.0796Z" fill="#37474F"/>
<path d="M158.526 58.5712C161.721 55.3768 161.721 50.1975 158.526 47.003C155.332 43.8085 150.153 43.8085 146.958 47.003C143.764 50.1975 143.764 55.3768 146.958 58.5712C150.153 61.7657 155.332 61.7657 158.526 58.5712Z" fill="#50B780"/>
<path d="M151.808 58.1L148.164 54.312L149.516 53.012L151.524 55.1L155.852 48.46L157.424 49.484L151.808 58.1Z" fill="white"/>
<path d="M32.148 98.832H60.212V93.02H32.148V98.832Z" fill="#C7C7C7"/>
<path d="M52.68 98.7842L53.464 106.212L63.168 175.748H65.94L58.284 106.212L57.664 98.7842H52.68Z" fill="#C7C7C7"/>
<path d="M26.412 175.748H29.188L38.892 106.212L39.676 98.7842H34.692L34.072 106.212L26.412 175.748Z" fill="#C7C7C7"/>
<path d="M31.096 153.032H62.052V151.288H31.096V153.032Z" fill="#C7C7C7"/>
<path d="M58.284 105.952H53.464L52.68 98.7842H57.664L58.284 105.952Z" fill="#A6A6A6"/>
<path d="M34.072 105.952H38.892L39.676 98.7842H34.692L34.072 105.952Z" fill="#A6A6A6"/>
<path d="M35.892 65.0881C37.092 65.7041 37.3 67.8281 41.036 67.7121C41.568 67.7121 42.004 67.4841 42.492 67.6641C43.208 67.9241 43.772 68.4961 44.408 68.9121C44.9195 69.256 45.5019 69.4802 46.112 69.5681C47.2824 69.7065 48.4646 69.4336 49.456 68.7961C50.068 68.4201 50.58 67.9001 51.172 67.4921C51.764 67.0841 55.336 66.2201 55.94 64.2121C56.34 62.9361 56.264 61.4841 54.74 59.6201C54.3889 59.2877 54.1499 58.8544 54.056 58.3801C54.057 57.9645 54.1513 57.5544 54.332 57.1801C54.5416 56.7553 54.6182 56.2772 54.552 55.8081C54.3819 55.3596 54.1077 54.9579 53.752 54.6361C53.192 53.9601 53.296 52.9841 53.752 51.7841C53.9328 51.2749 53.9944 50.731 53.9319 50.1943C53.8695 49.6575 53.6848 49.1423 53.392 48.6881C53.0248 48.1679 52.5919 47.6973 52.104 47.2881C51.42 46.6401 51.304 46.0401 50.996 45.1241C50.416 43.3641 49.508 42.5761 48.44 42.0321C47.476 41.5481 47.508 41.7321 46.476 41.8881C45.4304 41.2501 44.1995 40.985 42.984 41.1361C41.856 41.2801 40.924 42.0361 40.072 42.7601C39.312 43.4081 38.616 44.1041 38.576 45.1961C38.552 45.8241 38.704 46.4481 38.676 47.0761C38.636 47.8761 38.192 48.3841 37.66 48.8881C36.8667 49.5628 36.3195 50.4814 36.104 51.5001C35.964 52.3521 36.804 53.6761 35.82 54.9361C34.956 56.0481 33.42 57.3361 33.02 58.7281C31.8 63.0761 34.76 64.4961 35.892 65.0881Z" fill="#263238"/>
<path d="M50.36 67.4321C52.076 67.1721 54.712 67.4961 55.624 65.5841C55.9849 65.29 56.2707 64.9142 56.4578 64.4879C56.6449 64.0616 56.7279 63.5968 56.7 63.1321C56.5822 62.1395 56.1225 61.2188 55.4 60.5281C54.9808 60.1334 54.615 59.6856 54.312 59.1961C54.2152 58.8147 54.1443 58.4271 54.1 58.0361C54.1707 57.5357 54.3051 57.0464 54.5 56.5801C54.124 57.3801 53.776 58.2441 54.124 59.1241C54.1751 59.2496 54.2352 59.3713 54.304 59.4881C54.429 59.9509 54.6005 60.3998 54.816 60.8281C55.38 61.9481 55.896 62.9601 55.82 64.2681C55.8067 64.705 55.7018 65.1343 55.512 65.5281C54.7697 66.1791 53.8424 66.5819 52.86 66.6801C52.836 66.6801 52.836 66.7241 52.86 66.7201C53.7485 66.6302 54.6007 66.321 55.34 65.8201C54.344 67.2481 52.028 67.0521 50.352 67.3841C50.308 67.3841 50.324 67.4361 50.36 67.4321ZM55.756 65.2601V65.2241C56.053 64.1642 55.9768 63.0344 55.54 62.0241C55.268 61.3561 54.86 60.7561 54.592 60.0841C54.548 59.9681 54.504 59.8521 54.464 59.7321C54.864 60.2561 55.368 60.6921 55.744 61.2041C56.544 62.3161 56.8 63.6401 56.036 64.8441C55.9533 64.9896 55.8597 65.1287 55.756 65.2601Z" fill="#263238"/>
<path d="M51.88 47.0283C52.5203 47.5847 53.1306 48.1749 53.708 48.7963C54.1109 49.2041 54.3525 49.7441 54.388 50.3163C54.4029 50.8928 54.2209 51.4571 53.872 51.9163C53.744 52.1083 53.612 52.3163 53.496 52.5043C53.4686 52.8767 53.5275 53.2504 53.668 53.5963C53.948 54.2563 54.568 54.6643 54.868 55.3323C55.332 56.4123 54.816 57.3003 54.36 58.2643C54.692 57.4643 55.16 56.6923 54.896 55.7963C54.688 55.0643 54.152 54.6683 53.748 54.0723C53.5021 53.6937 53.3638 53.2554 53.348 52.8043C52.988 53.5323 52.864 54.3003 53.5 55.0643C53.528 55.1003 53.5 55.1483 53.452 55.1163C52.652 54.3163 52.86 53.3123 53.352 52.4523C53.3823 51.9443 53.4944 51.4445 53.684 50.9723C53.684 50.9243 53.776 50.9723 53.768 51.0083C53.696 51.3843 53.6 51.7603 53.548 52.1323L53.632 52.0083C54.272 51.0923 54.524 50.0083 53.788 49.0483C53.236 48.3163 52.484 47.7403 51.868 47.0483C51.84 47.0403 51.864 47.0123 51.88 47.0283Z" fill="#263238"/>
<path d="M56.692 122.556C56.692 122.556 49.528 138.468 49.52 138.48C48.136 141.516 46.972 144.2 46.504 145.648C46.5009 145.656 46.5009 145.664 46.504 145.672C46.3561 145.998 46.2862 146.354 46.3 146.712C46.3 146.712 46.3 146.732 46.3 146.736C46.924 147.764 70.86 159.536 71.836 159.676C72.812 159.816 73.256 157.044 72.692 155.844C72.128 154.644 64.976 146.036 64.976 146.036L72 130.06L56.692 122.556Z" fill="#EB9481"/>
<path d="M50.992 135.2C50.992 135.2 49.528 138.456 49.52 138.468C48.136 141.504 46.972 144.188 46.504 145.636C46.5009 145.644 46.5009 145.652 46.504 145.66C46.394 145.997 46.3255 146.347 46.3 146.7C46.3 146.7 46.3 146.72 46.3 146.724C46.924 147.752 70.86 159.524 71.836 159.664C72.812 159.804 73.256 157.032 72.692 155.832C72.128 154.632 64.976 146.024 64.976 146.024L66.516 142.728L50.992 135.2Z" fill="#EBEBEB"/>
<path d="M71.828 159.644C70.852 159.516 46.908 147.756 46.28 146.728C46.036 146.328 47.544 142.752 49.48 138.468L49.54 138.332L65.076 145.748L64.94 146.008C64.94 146.008 72.096 154.612 72.664 155.812C73.232 157.012 72.8 159.776 71.828 159.644Z" fill="#263238"/>
<path d="M72.6159 158.964C72.9639 159.34 72.1639 160.736 71.8159 160.7C71.4679 160.664 45.4159 147.724 45.0159 147.404C44.6159 147.084 45.564 145.576 46.12 145.748C46.676 145.92 72.6159 158.964 72.6159 158.964Z" fill="#50B780"/>
<path d="M66.232 146.692C64.788 145.616 62.728 144.904 60.956 145.44C60.888 145.44 60.92 145.56 60.98 145.568C62.7386 145.823 64.4646 146.267 66.128 146.892C66.1532 146.898 66.1798 146.896 66.2035 146.885C66.2272 146.874 66.2466 146.856 66.2586 146.833C66.2706 146.81 66.2745 146.783 66.2697 146.758C66.2648 146.732 66.2516 146.709 66.232 146.692Z" fill="white"/>
<path d="M67.04 147.948C65.596 146.868 63.536 146.16 61.764 146.696C61.696 146.716 61.728 146.812 61.788 146.824C63.5465 147.078 65.2724 147.52 66.936 148.144C66.9614 148.154 66.9893 148.153 67.0145 148.144C67.0398 148.134 67.0607 148.115 67.0733 148.092C67.086 148.068 67.0896 148.04 67.0835 148.014C67.0774 147.987 67.0619 147.964 67.04 147.948Z" fill="white"/>
<path d="M67.848 149.2C66.404 148.124 64.34 147.412 62.572 147.948C62.504 147.972 62.532 148.068 62.572 148.076C64.332 148.331 66.0593 148.775 67.724 149.4C67.7505 149.417 67.7825 149.422 67.8129 149.415C67.8432 149.408 67.8695 149.389 67.886 149.362C67.9024 149.336 67.9077 149.304 67.9005 149.273C67.8934 149.243 67.8745 149.217 67.848 149.2Z" fill="white"/>
<path d="M52.196 142.956C50.884 141.236 48.196 143.268 49.52 144.992C50.844 146.716 53.508 144.68 52.196 142.956Z" fill="white"/>
<path d="M60.916 108.724C60.756 113.352 51.836 133.34 51.836 133.34L67.48 140.54C67.48 140.54 80.108 118.312 78.936 108.072C77.936 99.3841 56.076 83.3161 52.568 78.7881C52.048 78.1161 52.224 75.4121 52.224 75.4121H38.032V78.8001C43.452 90.3041 59.664 104.104 60.864 108.156C60.9113 108.341 60.9289 108.533 60.916 108.724Z" fill="#37474F"/>
<path d="M67.392 137.2C64.816 135.964 65.572 136.28 62.992 135.076C61.724 134.488 55.364 131.508 54.084 131.176C54.0771 131.173 54.0692 131.172 54.0621 131.175C54.0549 131.178 54.0492 131.183 54.046 131.19C54.0428 131.197 54.0425 131.205 54.0451 131.212C54.0477 131.219 54.0531 131.225 54.06 131.228C55.156 131.972 61.584 134.8 62.86 135.364C65.472 136.516 64.736 136.164 67.36 137.276C67.404 137.3 67.44 137.22 67.392 137.2Z" fill="#263238"/>
<path d="M41.6 81.2203C45.8837 87.7494 50.6731 93.9323 55.924 99.7123C57.212 101.116 58.536 102.48 59.86 103.848C60.98 105.004 62.124 106.288 62.4 107.932C62.712 109.764 62 111.588 61.428 113.296C60.8 115.176 60.168 117.052 59.5 118.92C58.78 120.92 55.836 128.196 55.352 129.176C55.108 129.664 59.248 119.176 59.92 117.24C60.592 115.304 61.272 113.38 61.844 111.42C62.1753 110.422 62.3111 109.37 62.244 108.32C62.114 107.308 61.7102 106.351 61.076 105.552C59.924 104.016 58.428 102.712 57.12 101.312C54.408 98.4083 51.8226 95.3923 49.364 92.2643C46.5659 88.731 43.9544 85.054 41.54 81.2483C41.5381 81.2443 41.5371 81.2401 41.5369 81.2357C41.5367 81.2314 41.5374 81.227 41.5389 81.223C41.5403 81.2189 41.5426 81.2151 41.5456 81.2119C41.5485 81.2087 41.552 81.2061 41.556 81.2043C41.5599 81.2024 41.5642 81.2014 41.5685 81.2012C41.5729 81.201 41.5772 81.2017 41.5813 81.2032C41.5854 81.2046 41.5891 81.2069 41.5923 81.2099C41.5955 81.2128 41.5981 81.2163 41.6 81.2203Z" fill="#263238"/>
<path d="M33.2 157.248C33.2 157.248 32.504 174.692 32.5 174.704C32.58 178.04 32.708 180.964 32.9 182.468C32.8984 182.477 32.8984 182.487 32.9 182.496C32.9185 182.856 33.0212 183.207 33.2 183.52V183.54C34.208 184.188 60.888 184.34 61.82 184.032C62.752 183.724 61.948 181.04 60.92 180.208C59.892 179.376 49.692 174.752 49.692 174.752L50.224 157.32L33.2 157.248Z" fill="#EB9481"/>
<path d="M32.628 171.252C32.628 171.252 32.492 174.692 32.488 174.704C32.568 178.04 32.696 180.964 32.888 182.468C32.8863 182.477 32.8863 182.487 32.888 182.496C32.9519 182.848 33.0566 183.192 33.2 183.52V183.54C34.208 184.188 60.888 184.34 61.82 184.032C62.752 183.724 61.948 181.04 60.92 180.208C59.892 179.376 49.692 174.752 49.692 174.752L49.8 171.224L32.628 171.252Z" fill="#EBEBEB"/>
<path d="M61.8 184C60.868 184.308 34.2 184.184 33.176 183.536C32.776 183.296 32.58 179.408 32.464 174.7V174.552L49.664 174.44V174.732C49.664 174.732 59.856 179.348 60.896 180.18C61.936 181.012 62.736 183.696 61.8 184Z" fill="#263238"/>
<path d="M62.212 183.048C62.688 183.236 62.58 184.84 62.232 184.964C61.884 185.088 32.8 184.828 32.304 184.716C31.808 184.604 32 182.828 32.576 182.74C33.152 182.652 62.212 183.048 62.212 183.048Z" fill="#50B780"/>
<path d="M51.112 174.8C49.344 174.46 47.176 174.724 45.82 175.976C45.768 176.024 45.82 176.1 45.892 176.08C47.5827 175.544 49.326 175.19 51.092 175.024C51.1217 175.027 51.1512 175.017 51.1741 174.998C51.197 174.979 51.2113 174.952 51.214 174.922C51.2166 174.892 51.2073 174.863 51.1882 174.84C51.1691 174.817 51.1417 174.803 51.112 174.8Z" fill="white"/>
<path d="M52.4 175.572C50.632 175.232 48.468 175.496 47.108 176.748C47.056 176.796 47.108 176.872 47.184 176.852C48.8745 176.315 50.6178 175.961 52.384 175.796C52.4137 175.798 52.443 175.788 52.4655 175.769C52.488 175.749 52.5018 175.722 52.5039 175.692C52.5061 175.662 52.4963 175.633 52.4768 175.61C52.4573 175.588 52.4297 175.574 52.4 175.572Z" fill="white"/>
<path d="M53.66 176.348C51.892 176.008 49.724 176.268 48.368 177.524C48.312 177.572 48.368 177.648 48.44 177.628C50.1305 177.091 51.8739 176.737 53.64 176.572C53.6697 176.575 53.6992 176.565 53.7221 176.546C53.745 176.527 53.7593 176.5 53.762 176.47C53.7646 176.44 53.7554 176.411 53.7362 176.388C53.7171 176.365 53.6897 176.351 53.66 176.348Z" fill="white"/>
<path d="M36.852 177.564C34.92 176.588 33.4 179.588 35.332 180.564C37.264 181.54 38.8 178.544 36.852 177.564Z" fill="white"/>
<path d="M50.16 169.144L32.72 169.288C32.72 169.288 35.624 98.06 33.68 95.732C29.056 90.2 29.792 82.824 32.908 75.416H48.8C48.8 75.416 48.036 86.664 48.112 86.992C53 108.312 50.16 169.144 50.16 169.144Z" fill="#37474F"/>
<path d="M49.2 165.572C45.396 165.276 35.376 165.6 34.112 165.792C34.1061 165.795 34.1012 165.8 34.0977 165.805C34.0943 165.811 34.0925 165.817 34.0925 165.824C34.0925 165.831 34.0943 165.837 34.0977 165.843C34.1012 165.848 34.1061 165.853 34.112 165.856C35.364 166.108 46.852 165.748 49.196 165.656C49.2051 165.654 49.2132 165.649 49.2191 165.641C49.2251 165.634 49.2285 165.625 49.229 165.616C49.2294 165.606 49.2269 165.597 49.2216 165.589C49.2164 165.581 49.2088 165.575 49.2 165.572Z" fill="#263238"/>
<path d="M49.176 79.7883C49.016 81.7883 49.096 85.2363 47.932 85.2883C46.768 85.3403 46.972 81.1403 46.94 80.1723C46.908 79.2963 46.608 79.4163 46.576 80.4483C46.488 83.2483 46.576 85.7243 48.048 85.6083C49.52 85.4923 49.524 81.1523 49.488 80.1603C49.468 79.6483 49.224 79.1523 49.176 79.7883Z" fill="#263238"/>
<path d="M48 85.4199C47.9275 86.1271 47.9423 86.8404 48.044 87.5439C48.064 87.5999 48.288 87.5439 48.312 87.5079C48.448 87.2159 48.34 85.8399 48.376 85.4679C48.3823 85.4181 48.3686 85.3677 48.3379 85.328C48.3227 85.3083 48.3037 85.2918 48.2821 85.2794C48.2605 85.2671 48.2367 85.2591 48.212 85.2559C48.1621 85.2496 48.1118 85.2633 48.072 85.294C48.0323 85.3248 48.0063 85.3701 48 85.4199Z" fill="#263238"/>
<path d="M48.5 87.9004C48.996 89.6604 49.504 93.0284 49.384 93.9004C49.384 93.9804 49.256 94.0084 49.24 93.9244C49.08 92.9804 48.376 88.4404 48.304 87.9644C48.232 87.4884 48.36 87.4084 48.5 87.9004Z" fill="#263238"/>
<path d="M45.44 89.2884C45.6721 89.0609 45.9208 88.851 46.184 88.6604C46.444 88.4564 46.704 88.2604 46.984 88.0644C47.536 87.6644 48.104 87.3204 48.684 86.9764C49.264 86.6324 49.832 86.3324 50.424 86.0324C51.016 85.7324 51.696 85.4844 52.312 85.1764C52.348 85.1564 52.38 85.2084 52.344 85.2284C51.76 85.5524 51.216 85.9564 50.648 86.3124C50.08 86.6684 49.512 87.0364 48.94 87.3924C48.368 87.7484 47.828 88.0964 47.268 88.4404C46.9773 88.6217 46.6813 88.7977 46.38 88.9684C46.1103 89.1422 45.8297 89.2985 45.54 89.4364C45.444 89.4724 45.388 89.3484 45.44 89.2884Z" fill="#263238"/>
<path d="M35.348 132.084C35.6 126.376 36 120 36.096 114.3C36.1413 111.444 36.1627 108.587 36.16 105.728C36.16 102.892 36.16 99.1042 36.032 96.2722C35.956 94.8322 33.42 93.7202 32.904 89.5282C32.5465 87.1408 32.7366 84.7033 33.46 82.4002C33.6399 81.8404 33.8523 81.2914 34.096 80.7562C34.096 80.7202 34.164 80.7562 34.148 80.7882C33.1329 83.1422 32.7113 85.7093 32.92 88.2642C32.9937 89.5523 33.2635 90.8215 33.72 92.0282C34.4 93.7202 36.076 95.0922 36.164 95.9922C36.296 97.3322 36.316 98.4922 36.332 99.8402C36.348 101.188 36.364 102.64 36.372 104.04C36.388 106.899 36.38 109.756 36.348 112.612C36.284 118.3 36.1347 123.986 35.9 129.668C35.66 135.352 34.188 163.812 34.092 164.468C34.092 164.54 33.964 164.524 33.968 164.468C34.144 161.6 35.092 137.792 35.348 132.084Z" fill="#263238"/>
<path d="M44.768 62.2881C48.552 70.0961 53.356 78.5521 57.852 79.8881C62.132 81.1481 70.428 70.6401 73.052 67.8881C73.988 66.8881 66.384 61.1681 65.204 62.0361C62.98 63.6721 58.984 68.1281 58.312 67.9721C57.64 67.8161 52.028 62.4801 46.972 58.0001C43.908 55.2841 42.148 56.8761 44.768 62.2881Z" fill="#EB9481"/>
<path d="M79.6319 62.9321C80.6719 62.4961 88.6799 62.2401 88.6799 60.5041C88.6799 58.7681 78.4839 59.2561 78.4839 59.2561L79.6319 62.9321Z" fill="#EB9481"/>
<path d="M64.272 63.1361C65.672 61.3961 66.904 59.5361 68.12 59.1761C68.964 58.9361 78.028 59.3281 79.448 59.2441C80.868 59.1601 85.916 59.2881 86.036 60.5281C86.2 62.2841 80.216 62.2681 79.58 63.1681C77.376 66.2641 68.996 70.8481 68.996 70.8481L64.272 63.1361Z" fill="#EB9481"/>
<path d="M86.168 60.5562C86.0804 60.2269 85.8737 59.9418 85.588 59.7562C84.968 59.3242 84.152 59.2842 83.424 59.2282C82.3201 59.125 81.2094 59.1156 80.104 59.2002C80.0987 59.2002 80.0936 59.2023 80.0898 59.206C80.0861 59.2098 80.084 59.2149 80.084 59.2202C80.084 59.2255 80.0861 59.2306 80.0898 59.2343C80.0936 59.2381 80.0987 59.2402 80.104 59.2402C80.932 59.2402 81.76 59.2602 82.588 59.3282C83.3464 59.36 84.0989 59.4753 84.832 59.6722C85.1634 59.7603 85.463 59.9406 85.696 60.1922C85.7786 60.28 85.8377 60.3873 85.8677 60.5041C85.8978 60.6209 85.8979 60.7434 85.868 60.8602C85.624 61.6242 84.116 61.8522 83.42 62.0082C82.512 62.2122 81.568 62.4082 80.652 62.5762C80.612 62.5762 80.652 62.6482 80.672 62.6402C81.62 62.4522 82.624 62.3762 83.576 62.2042C84.348 62.0642 85.176 61.9082 85.8 61.4042C85.9343 61.3112 86.0399 61.1825 86.1049 61.0327C86.17 60.8828 86.1918 60.7178 86.168 60.5562Z" fill="#263238"/>
<path d="M72.0724 56.7749L72.3361 55.4244L88.0944 58.5018C88.2371 58.5297 88.3628 58.613 88.444 58.7336C88.5252 58.8542 88.5551 59.002 88.5273 59.1447L88.4736 59.4195C88.4457 59.5621 88.3624 59.6879 88.2418 59.769C88.1212 59.8502 87.9734 59.8801 87.8307 59.8523L72.0724 56.7749Z" fill="#50B780"/>
<path opacity="0.1" d="M72.3342 55.4273L72.0705 56.7778L73.9706 57.1489L74.2343 55.7984L72.3342 55.4273Z" fill="black"/>
<path d="M66.308 53.7082L65.844 56.1082C65.6849 56.9198 65.8546 57.7613 66.316 58.4477C66.7773 59.1341 67.4924 59.6091 68.304 59.7682C69.1155 59.9273 69.9571 59.7576 70.6435 59.2962C71.3299 58.8349 71.8049 58.1198 71.964 57.3082L72.432 54.9082C72.5108 54.5061 72.5096 54.0924 72.4285 53.6908C72.3474 53.2891 72.188 52.9074 71.9594 52.5673C71.7308 52.2273 71.4374 51.9356 71.0961 51.7089C70.7547 51.4822 70.3721 51.325 69.97 51.2462C69.5679 51.1674 69.1542 51.1686 68.7525 51.2497C68.3509 51.3308 67.9691 51.4902 67.6291 51.7188C66.9423 52.1805 66.4671 52.8961 66.308 53.7082ZM71.452 54.3042C71.368 54.6594 71.176 54.9797 70.9023 55.2212C70.6286 55.4626 70.2868 55.6132 69.924 55.6522C70.2438 55.8271 70.5025 56.0955 70.6655 56.4215C70.8285 56.7475 70.888 57.1155 70.836 57.4762C70.648 58.4282 69.6 59.0282 68.492 58.8122C67.384 58.5962 66.636 57.6442 66.82 56.6962C66.9058 56.3413 67.0989 56.0214 67.3731 55.7802C67.6472 55.539 67.989 55.3882 68.352 55.3482C68.0306 55.1751 67.7705 54.907 67.6073 54.5806C67.4441 54.2541 67.3856 53.8852 67.44 53.5242C67.628 52.5682 68.676 51.9762 69.784 52.1922C70.892 52.4082 71.64 53.3522 71.452 54.3042Z" fill="#50B780"/>
<path d="M72.4534 54.816L71.9513 57.3874C71.9246 57.524 72.0137 57.6564 72.1503 57.6831L72.2759 57.7076C72.4125 57.7343 72.5449 57.6452 72.5715 57.5086L73.0737 54.9371C73.1004 54.8005 73.0113 54.6682 72.8747 54.6415L72.749 54.617C72.6125 54.5903 72.4801 54.6794 72.4534 54.816Z" fill="#50B780"/>
<path d="M73.074 54.9386L72.5719 57.51C72.5452 57.6466 72.6343 57.7789 72.7709 57.8056L72.8965 57.8302C73.0331 57.8568 73.1655 57.7677 73.1921 57.6311L73.6943 55.0597C73.721 54.9231 73.6319 54.7908 73.4953 54.7641L73.3696 54.7395C73.2331 54.7129 73.1007 54.802 73.074 54.9386Z" fill="#50B780"/>
<path d="M84.32 57.1879L84.788 57.2799L85.052 55.9159L85.456 55.9959L85.316 56.7079L85.784 56.7999L85.924 56.0879L86.276 56.1559L86.06 57.2799L86.528 57.3719L86.748 56.2479L87.252 56.3479L86.96 57.8479L87.428 57.9399L87.72 56.4399L88.196 56.5319L87.824 58.4479L83.632 57.6319L84.004 55.7119L84.584 55.8279L84.32 57.1879Z" fill="#50B780"/>
<path d="M30.624 77.8242L52.952 78.1922L51.2 71.5042C51.7825 70.6649 52.1742 69.7083 52.3476 68.7015C52.5211 67.6947 52.472 66.6621 52.204 65.6762C51.668 63.7082 49.128 60.7602 47.568 58.8762C43.776 54.3162 40.48 56.3762 39.428 57.5482C35.416 62.0402 30.624 77.8242 30.624 77.8242Z" fill="#50B780"/>
<path d="M41.62 60.148V58.876L42.464 59.82L43.376 59.536L42.932 60.336L43.36 60.784L42.696 60.852V61.716L41.968 61.108L41.376 61.6L41.444 60.872L40.58 60.472L41.62 60.148ZM51.132 74.44L50.428 75.084L49.78 74.74L50.008 75.48L49.168 75.916L49.968 76.26L49.772 76.9L50.356 76.676L50.932 77.404L51.02 76.452L52.22 76.052L51.052 75.544L51.132 74.44ZM42.968 69.692L43.652 71.052L44.328 69.752L45.616 69.976L44.932 68.608L45.888 67.696L44.532 67.744L44.26 66.416L43.548 67.792L41.74 67.652L42.804 68.752L41.82 69.508L42.968 69.692ZM48.292 61.832L48.62 61.28L48.004 61.336L47.792 60.828L47.46 61.38L46.92 61.248L47.244 61.72L46.844 62.12L47.496 62.06L47.856 62.732L48.004 62.108L48.492 62.284L48.292 61.832ZM37.82 76.4L38.148 75.852L37.536 75.904L37.32 75.396L36.992 75.952L36.452 75.816L36.776 76.288L36.376 76.688L37.028 76.632L37.388 77.304L37.536 76.676L38.028 76.856L37.82 76.4ZM41.492 66.484L41.82 65.936L41.204 65.988L40.992 65.48L40.664 66.036L40.12 65.9L40.444 66.372L40.044 66.772L40.696 66.716L41.056 67.384L41.204 66.76L41.696 66.936L41.492 66.484ZM37.516 67.972L37.404 67.612L37.188 67.904L36.88 67.796L36.992 68.16L36.724 68.344L37.056 68.388V68.724L37.284 68.412L37.72 68.52L37.504 68.208L37.776 68.06L37.516 67.972ZM47.88 76.552L47.768 76.192L47.548 76.484L47.244 76.38L47.356 76.74L47.084 76.928L47.42 76.968V77.304L47.648 76.996L48.084 77.1L47.868 76.788L48.14 76.644L47.88 76.552ZM50.98 66.096L51.264 65.844L50.908 65.768L50.876 65.444L50.592 65.696L50.312 65.528L50.412 65.848L50.112 66L50.488 66.08L50.572 66.524L50.768 66.196L51.012 66.384L50.98 66.096ZM45.38 72.852L45.66 72.6L45.304 72.524L45.272 72.2L44.992 72.452L44.708 72.284L44.808 72.604L44.508 72.756L44.884 72.836L44.968 73.28L45.164 72.952L45.408 73.14L45.38 72.852ZM33.852 74.972L34.132 74.72L33.776 74.64L33.748 74.316L33.464 74.572L33.2 74.4L33.296 74.724L32.996 74.872L33.372 74.956L33.46 75.396L33.652 75.072L33.896 75.26L33.852 74.972Z" fill="white"/>
<path d="M45.228 71.1119C46.1827 71.0239 47.1428 71.0079 48.1 71.0639C48.576 71.0959 49.048 71.1519 49.52 71.2199C49.752 71.2519 49.988 71.2759 50.224 71.2999C50.4711 71.3299 50.7209 71.3299 50.968 71.2999C50.968 71.2999 50.996 71.3279 50.968 71.3359C50.7398 71.3872 50.5087 71.4246 50.276 71.4479C50.0482 71.4619 49.8198 71.4619 49.592 71.4479C49.112 71.4159 48.628 71.3639 48.148 71.3319C47.176 71.2599 46.204 71.1919 45.228 71.1919C45.2 71.1999 45.2 71.1159 45.228 71.1119Z" fill="#263238"/>
<path d="M43.06 72.364C43.8189 72.1429 44.5894 71.964 45.368 71.828C45.768 71.764 46.168 71.72 46.544 71.688L47.108 71.6479C47.316 71.6479 47.508 71.6479 47.732 71.6479C47.756 71.6479 47.76 71.68 47.732 71.684C47.536 71.704 47.332 71.756 47.148 71.784L46.564 71.876L45.396 72.0599C44.6173 72.1719 43.8386 72.2973 43.06 72.4359C43.028 72.4359 43.02 72.376 43.06 72.364Z" fill="#263238"/>
<path d="M41.6 57.2963C41.696 57.6963 43.6 60.2763 45.42 60.1883C46.012 60.1563 45.996 56.9163 45.996 56.9163L46.048 56.6763L46.8 53.3203L42.864 50.8003L42.296 50.4683C42.296 50.4683 42.152 51.4003 41.984 52.5603C41.984 52.6163 41.984 52.6683 41.984 52.7243C41.984 52.7803 41.96 52.8523 41.952 52.9163C41.924 53.0883 41.896 53.2643 41.876 53.4403C41.856 53.6163 41.84 53.7083 41.824 53.8403L41.776 54.2643C41.6494 55.2698 41.5906 56.2828 41.6 57.2963Z" fill="#EB9481"/>
<path d="M42 52.5563C42.3414 53.4974 42.883 54.3532 43.5874 55.0645C44.2918 55.7758 45.1423 56.3257 46.08 56.6763L46.8 53.3203L42.864 50.8003L42.296 50.4683C42.296 50.4683 42.152 51.3963 42 52.5563Z" fill="#263238"/>
<path d="M51.532 47.8443C52.704 53.7643 49.288 55.1323 48.012 55.3843C46.856 55.6123 42.88 56.2363 41.104 50.4723C39.328 44.7083 41.712 42.2923 44.336 41.6323C46.96 40.9723 50.364 41.9283 51.532 47.8443Z" fill="#EB9481"/>
<path d="M49.804 46.9403C49.672 46.9703 49.5385 46.993 49.404 47.0083C49.2637 47.0544 49.1123 47.0544 48.972 47.0083C48.9314 46.9838 48.9001 46.9466 48.8827 46.9025C48.8654 46.8584 48.863 46.8098 48.876 46.7643C48.9157 46.678 48.9779 46.6039 49.056 46.5497C49.1341 46.4955 49.2252 46.4633 49.32 46.4563C49.5088 46.4122 49.7073 46.4407 49.876 46.5363C49.9107 46.5614 49.9375 46.5958 49.9536 46.6355C49.9696 46.6752 49.9741 46.7187 49.9666 46.7608C49.9591 46.803 49.9398 46.8422 49.9111 46.8739C49.8823 46.9057 49.8452 46.9286 49.804 46.9403Z" fill="#263238"/>
<path d="M45.6 48.1523C45.7347 48.1317 45.8683 48.1037 46 48.0683C46.1479 48.0598 46.2887 48.0021 46.4 47.9043C46.4302 47.8677 46.4467 47.8218 46.4467 47.7743C46.4467 47.7268 46.4302 47.6809 46.4 47.6443C46.3327 47.5771 46.2482 47.5296 46.1559 47.507C46.0635 47.4845 45.9667 47.4877 45.876 47.5163C45.6834 47.5411 45.5074 47.6384 45.384 47.7883C45.3563 47.8244 45.34 47.8681 45.3373 47.9135C45.3346 47.959 45.3456 48.0042 45.3688 48.0434C45.3921 48.0825 45.4265 48.1138 45.4677 48.1332C45.5089 48.1527 45.555 48.1593 45.6 48.1523Z" fill="#263238"/>
<path d="M46.4879 48.9121C46.4879 48.9121 46.4599 48.9121 46.4639 48.9521C46.5359 49.3521 46.5519 49.8321 46.2079 50.0201C46.2079 50.0201 46.2079 50.0481 46.2079 50.0441C46.6519 49.9121 46.6239 49.2801 46.4879 48.9121Z" fill="#263238"/>
<path d="M46.0639 48.54C45.4039 48.588 45.5479 49.908 46.1599 49.86C46.7719 49.812 46.6159 48.5 46.0639 48.54Z" fill="#263238"/>
<path d="M45.812 48.6401C45.704 48.7241 45.608 48.8681 45.468 48.9001C45.328 48.9321 45.176 48.8081 45.068 48.6881C45.092 48.9401 45.216 49.1881 45.492 49.1961C45.768 49.2041 45.892 48.9601 45.928 48.7001C45.904 48.6681 45.856 48.6041 45.812 48.6401Z" fill="#263238"/>
<path d="M48.996 48.5283C48.996 48.5283 49.028 48.5283 49.028 48.5603C49.06 48.9603 49.16 49.4363 49.544 49.5323V49.5563C49.084 49.5403 48.956 48.9203 48.996 48.5283Z" fill="#263238"/>
<path d="M49.316 48.0644C49.968 47.9484 50.152 49.2644 49.548 49.3684C48.944 49.4724 48.768 48.1644 49.316 48.0644Z" fill="#263238"/>
<path d="M49.5999 48.1121C49.7159 48.1681 49.8359 48.2801 49.9599 48.2681C50.0839 48.2561 50.1919 48.1001 50.2639 47.9521C50.2639 47.9521 50.2639 47.9521 50.2879 47.9521C50.3279 48.2001 50.2879 48.4761 50.0479 48.5561C49.8079 48.6361 49.6479 48.4401 49.5479 48.1961C49.5319 48.1641 49.5559 48.0881 49.5999 48.1121Z" fill="#263238"/>
<path d="M47.232 52.3602C47.336 52.4522 47.444 52.5762 47.592 52.5802C47.7448 52.5663 47.8931 52.5214 48.028 52.4482C48.028 52.4482 48.052 52.4482 48.028 52.4482C47.9748 52.5323 47.8999 52.6005 47.8112 52.6456C47.7225 52.6907 47.6232 52.7109 47.524 52.7042C47.4475 52.6876 47.3769 52.6506 47.3199 52.597C47.2628 52.5435 47.2214 52.4755 47.2 52.4002C47.2 52.4002 47.2 52.3482 47.232 52.3602Z" fill="#263238"/>
<path d="M48.756 50.6799C48.756 50.6799 48.916 51.2759 48.952 51.5639C48.952 51.5919 48.888 51.6119 48.788 51.6319C48.5463 51.7067 48.2888 51.7137 48.0434 51.6524C47.798 51.591 47.5741 51.4636 47.396 51.2839C47.396 51.2599 47.396 51.2239 47.436 51.2399C47.8332 51.4459 48.2866 51.5175 48.728 51.4439C48.728 51.3639 48.42 50.4279 48.464 50.4199C48.69 50.4126 48.916 50.4354 49.136 50.4879C48.844 49.2319 48.336 48.0319 48.076 46.7759C48.076 46.7319 48.132 46.7079 48.148 46.7479C48.7169 48.0165 49.1564 49.3392 49.46 50.6959C49.496 50.8559 48.88 50.7119 48.756 50.6799Z" fill="#263238"/>
<path d="M48.748 51.5283C48.6174 51.7828 48.4231 51.9992 48.184 52.1563C48.0512 52.2389 47.896 52.278 47.74 52.2683C47.404 52.2403 47.34 51.9443 47.34 51.6803C47.3504 51.5445 47.3758 51.4104 47.416 51.2803C47.8217 51.5042 48.2888 51.5912 48.748 51.5283Z" fill="#263238"/>
<path d="M48.184 52.1559C48.0512 52.2385 47.896 52.2776 47.74 52.2679C47.404 52.2399 47.34 51.9439 47.34 51.6799C47.5139 51.651 47.6924 51.6824 47.8459 51.769C47.9995 51.8556 48.1188 51.9921 48.184 52.1559Z" fill="#FF9ABB"/>
<path d="M41.764 50.9922C42.896 50.9922 42.82 48.3922 42.82 48.3922C42.82 48.3922 47.444 46.9162 47.3 43.0082C48.1196 44.4912 49.4791 45.6014 51.096 46.1082C51.096 46.1082 50.332 41.9082 46.864 41.5602C46.864 41.5602 42.492 40.6362 40.62 44.2682C38.748 47.9002 41.004 51.0042 41.764 50.9922Z" fill="#263238"/>
<path d="M47.276 42.7202C47.414 43.307 47.4262 43.9163 47.312 44.5082C47.2081 45.1103 46.9792 45.684 46.64 46.1922C46.556 46.3195 46.4638 46.4411 46.364 46.5562L46.224 46.7362C46.172 46.7922 46.116 46.8442 46.06 46.8962C46.004 46.9482 45.844 47.1082 45.732 47.2082L45.364 47.4802C45.304 47.5242 45.244 47.5682 45.18 47.6082L44.984 47.7202L44.584 47.9402C44.312 48.0602 44.032 48.1642 43.752 48.2642C44.008 48.1082 44.272 47.9802 44.52 47.8242L44.888 47.5762L45.068 47.4522C45.128 47.4082 45.18 47.3602 45.236 47.3122L45.568 47.0322C45.676 46.9322 45.772 46.8242 45.872 46.7202L46.024 46.5642L46.156 46.3922C46.247 46.2815 46.3312 46.1653 46.408 46.0442C46.7325 45.5556 46.9693 45.0142 47.108 44.4442C47.1796 44.1618 47.2291 43.8743 47.256 43.5842C47.2856 43.2972 47.2922 43.0083 47.276 42.7202Z" fill="#263238"/>
<path d="M40 47.436L39.72 48.004L41.592 49.372L42.192 48.096L40 47.436ZM41.46 48.788L40.168 47.948L40.228 47.816L41.68 48.34L41.46 48.788Z" fill="#50B780"/>
<path d="M40.0799 46.4323L40.0359 47.0643L42.288 47.6283L42.364 46.2163L40.0799 46.4323ZM41.944 47.1323L40.428 46.8443V46.6963L41.972 46.6363L41.944 47.1323Z" fill="#50B780"/>
<path d="M42.632 50.4842C42.632 50.4842 41.116 48.7522 40.32 49.3122C39.524 49.8722 40.8 52.4802 41.836 52.7402C41.9667 52.7837 42.1049 52.8002 42.2421 52.7887C42.3794 52.7771 42.5129 52.7378 42.6345 52.6731C42.7561 52.6084 42.8632 52.5196 42.9494 52.4121C43.0357 52.3047 43.0991 52.1809 43.136 52.0482L42.632 50.4842Z" fill="#EB9481"/>
<path d="M40.704 50.0519C40.704 50.0519 40.704 50.0719 40.704 50.0759C41.0416 50.201 41.3493 50.3956 41.607 50.6471C41.8647 50.8986 42.0667 51.2014 42.2 51.5359C42.1519 51.4704 42.0901 51.4161 42.019 51.3769C41.9478 51.3377 41.8689 51.3144 41.7879 51.3087C41.7068 51.3029 41.6255 51.315 41.5495 51.3438C41.4735 51.3727 41.4048 51.4178 41.348 51.4759C41.348 51.4759 41.348 51.5159 41.372 51.5119C41.49 51.459 41.6214 51.4441 41.7483 51.4692C41.8751 51.4943 41.991 51.5581 42.08 51.6519C42.2313 51.8107 42.3654 51.985 42.48 52.1719C42.516 52.2319 42.628 52.1719 42.596 52.1159C42.5 51.1999 41.672 50.0359 40.704 50.0519Z" fill="#263238"/>
<path d="M38.0999 58.88C33.0119 67.656 25.4079 87.7999 24.0319 90.68C23.0999 92.636 33.3239 97.792 33.7599 96.368C34.3119 94.548 41.4079 71.084 41.8719 60.6159C42.0879 55.7679 39.7279 56.072 38.0999 58.88Z" fill="#EB9481"/>
<path d="M29.6 100.848C30.14 100.376 30.4 100.656 30.156 101.904C29.912 103.152 27.936 107.904 29.648 108.444C31.36 108.984 34.048 102.268 34.296 100.16C34.544 98.0521 34.16 94.5601 34.16 94.5601C33.372 95.7681 31.2 98.5041 29.6 100.848Z" fill="#EB9481"/>
<path d="M32.6 108.184L19.8 105.88C19.4 105.848 19.156 105.584 19.224 105.288L20.396 100.056C20.4601 99.9016 20.574 99.7728 20.7196 99.6902C20.8653 99.6076 21.0343 99.5759 21.2 99.6003L34 101.892C34.4 101.928 34.644 102.192 34.576 102.484L33.404 107.716C33.3437 107.874 33.231 108.007 33.0847 108.092C32.9384 108.178 32.7673 108.21 32.6 108.184Z" fill="#A6A6A6"/>
<path d="M32.748 107.568L19.924 105.264C19.524 105.228 19.284 104.964 19.348 104.672L20.524 99.4403C20.5835 99.2824 20.6954 99.1498 20.8411 99.0646C20.9867 98.9794 21.1572 98.9468 21.324 98.9723L34.148 101.276C34.548 101.308 34.788 101.572 34.724 101.864L33.56 107.1C33.4988 107.26 33.3848 107.393 33.2369 107.478C33.0891 107.563 32.9165 107.595 32.748 107.568Z" fill="#C7C7C7"/>
<path d="M32.508 105.908C32.212 105.796 31.932 105.908 31.884 106.156C31.8775 106.298 31.9184 106.439 32.0002 106.555C32.082 106.672 32.2 106.758 32.336 106.8C32.632 106.912 32.912 106.8 32.96 106.556C32.9673 106.413 32.9268 106.272 32.845 106.155C32.7632 106.037 32.6446 105.951 32.508 105.908Z" fill="#263238"/>
<path d="M24.7159 89.7603C22.1039 93.2803 19.7919 97.4243 19.7359 102.004C19.719 102.513 19.8725 103.013 20.1719 103.424C20.1119 105.472 21.0599 106.12 21.0599 106.12C21.5879 108.044 22.6599 108.572 22.6599 108.572C22.6599 108.572 22.8119 110.224 23.9759 110.2C25.1399 110.176 25.7799 107.468 26.7759 105.492C29.1079 100.956 33.3479 95.8043 34.1479 94.5643L24.7159 89.7603Z" fill="#EB9481"/>
<path d="M25.548 99.6643C24.8522 100.984 24.2468 102.35 23.736 103.752C23.2709 105.324 22.9233 106.929 22.696 108.552C22.696 108.563 22.6918 108.573 22.6843 108.581C22.6767 108.588 22.6666 108.592 22.656 108.592C22.6454 108.592 22.6352 108.588 22.6277 108.581C22.6202 108.573 22.616 108.563 22.616 108.552C22.7433 105.38 23.7365 102.304 25.488 99.6563C25.528 99.5723 25.6 99.6003 25.548 99.6643Z" fill="#263238"/>
<path d="M23.016 97.8603C22.448 99.2083 21.464 101.58 21.108 106.124C21.108 106.124 21.084 106.124 21.08 106.124C20.9244 103.24 21.5724 100.37 22.952 97.8323C22.996 97.7523 23.056 97.7683 23.016 97.8603Z" fill="#263238"/>
<path d="M21.6399 96.9162C20.7599 99.2442 20.4959 100.824 20.1839 103.412H20.1559C20.2039 100.432 20.5559 99.3522 21.5639 96.8722C21.5999 96.8002 21.6719 96.8242 21.6399 96.9162Z" fill="#263238"/>
</svg>
