<svg width="200" height="200" viewBox="0 0 200 200" fill="none" xmlns="http://www.w3.org/2000/svg">
<path d="M176.932 39.252C176.21 37.6439 175.375 36.0893 174.432 34.6C168.952 26.752 158.956 19.308 140.728 18.932C101.576 18.132 112.944 84.084 63.188 90.044C15.892 95.676 11.648 141.6 26.524 157.2C47.324 176.284 67.92 184.68 112.888 182.8C147.332 181.372 169.732 174.492 180.628 160.852C187.46 152.296 190.736 141.112 191.828 127.356C194.344 95.452 184.4 55.424 176.932 39.252Z" fill="#50B780"/>
<path opacity="0.7" d="M176.932 39.252C176.21 37.6439 175.375 36.0893 174.432 34.6C168.952 26.752 158.956 19.308 140.728 18.932C101.576 18.132 112.944 84.084 63.188 90.044C15.892 95.676 11.648 141.6 26.524 157.2C47.324 176.284 67.92 184.68 112.888 182.8C147.332 181.372 169.732 174.492 180.628 160.852C187.46 152.296 190.736 141.112 191.828 127.356C194.344 95.452 184.4 55.424 176.932 39.252Z" fill="white"/>
<path d="M180.628 160.88C169.732 174.52 147.332 181.4 112.888 182.828C67.92 184.692 47.34 176.296 26.524 157.228H176.924L180.628 160.88Z" fill="#999999"/>
<path d="M8.37199 157.212H175.188" stroke="#263238" stroke-linecap="round" stroke-linejoin="round"/>
<path d="M176.932 33.1201V157.212L187.96 168.24" stroke="#263238" stroke-linecap="round" stroke-linejoin="round"/>
<path d="M143.992 40.4681V18.8921" stroke="#263238" stroke-linecap="round" stroke-linejoin="round"/>
<path d="M134.68 49.7799C134.654 48.541 134.876 47.3095 135.332 46.1575C135.789 45.0055 136.47 43.9561 137.338 43.0709C138.205 42.1857 139.24 41.4824 140.382 41.0023C141.524 40.5222 142.751 40.2749 143.99 40.2749C145.229 40.2749 146.456 40.5222 147.598 41.0023C148.74 41.4824 149.775 42.1857 150.642 43.0709C151.51 43.9561 152.191 45.0055 152.648 46.1575C153.104 47.3095 153.326 48.541 153.3 49.7799H134.68Z" stroke="#263238" stroke-linecap="round" stroke-linejoin="round"/>
<path d="M26.524 157.212H18.9" stroke="#263238" stroke-linecap="round" stroke-linejoin="round"/>
<path d="M57.428 107.52H49.432V157.216H57.428V107.52Z" stroke="#263238" stroke-linecap="round" stroke-linejoin="round"/>
<path d="M46.572 111.208H14.264V123.276H46.572V111.208Z" stroke="#263238" stroke-linecap="round" stroke-linejoin="round"/>
<path d="M46.572 124.592H14.264V136.66H46.572V124.592Z" stroke="#263238" stroke-linecap="round" stroke-linejoin="round"/>
<path d="M46.572 137.98H14.264V150.048H46.572V137.98Z" stroke="#263238" stroke-linecap="round" stroke-linejoin="round"/>
<path d="M27.02 112.08C27.02 112.437 27.1616 112.778 27.4136 113.03C27.6657 113.282 28.0075 113.424 28.364 113.424H32.472C32.6488 113.425 32.824 113.39 32.9875 113.323C33.1511 113.256 33.2997 113.157 33.4249 113.032C33.5502 112.907 33.6495 112.759 33.7173 112.595C33.7851 112.432 33.82 112.257 33.82 112.08" stroke="#263238" stroke-linecap="round" stroke-linejoin="round"/>
<path d="M27.02 125.464C27.0231 125.819 27.166 126.158 27.4176 126.408C27.6692 126.658 28.0092 126.799 28.364 126.8H32.472C32.8295 126.8 33.1724 126.658 33.4252 126.405C33.678 126.153 33.82 125.81 33.82 125.452" stroke="#263238" stroke-linecap="round" stroke-linejoin="round"/>
<path d="M27.02 138.852C27.02 139.209 27.1615 139.551 27.4134 139.804C27.6653 140.057 28.0072 140.199 28.364 140.2H32.472C32.649 140.2 32.8243 140.165 32.9878 140.097C33.1514 140.03 33.3 139.93 33.4252 139.805C33.5503 139.68 33.6496 139.531 33.7174 139.368C33.7851 139.204 33.82 139.029 33.82 138.852" stroke="#263238" stroke-linecap="round" stroke-linejoin="round"/>
<path d="M48.124 157.216H11.648V107.52H48.124" stroke="#263238" stroke-linecap="round" stroke-linejoin="round"/>
<path d="M79.28 133.088V151.888L89.124 155.356C89.2467 155.399 89.353 155.479 89.4282 155.585C89.5034 155.691 89.5439 155.818 89.544 155.948V156.532C89.5442 156.629 89.5218 156.725 89.4784 156.812C89.4351 156.899 89.3721 156.974 89.2944 157.032C89.2167 157.091 89.1265 157.13 89.031 157.147C88.9354 157.165 88.8372 157.159 88.744 157.132L78.632 154.164L78.448 156.592C78.4368 156.761 78.3614 156.919 78.2372 157.035C78.113 157.15 77.9494 157.213 77.78 157.212H77.26C77.0911 157.211 76.9286 157.147 76.8048 157.032C76.6811 156.918 76.6051 156.76 76.592 156.592L76.408 154.164L66.3 157.132C66.2069 157.158 66.1089 157.163 66.0137 157.145C65.9185 157.128 65.8286 157.088 65.7512 157.03C65.6737 156.972 65.6108 156.897 65.5672 156.811C65.5236 156.724 65.5006 156.629 65.5 156.532V155.948C65.5001 155.818 65.5406 155.691 65.6158 155.585C65.691 155.479 65.7973 155.399 65.92 155.356L75.768 151.888V133.088" stroke="#263238" stroke-linecap="round" stroke-linejoin="round"/>
<path d="M74.788 126.28V120.832" stroke="#263238" stroke-linecap="round" stroke-linejoin="round"/>
<path d="M72.48 120.832V126.28" stroke="#263238" stroke-linecap="round" stroke-linejoin="round"/>
<path d="M64.8 119.864C63.16 119.8 62 118.736 62 116.896V107.356C62.0266 106.779 62.2203 106.221 62.5576 105.752C62.8949 105.283 63.3613 104.921 63.9 104.712" stroke="#263238" stroke-linecap="round" stroke-linejoin="round"/>
<path d="M64.348 106.148V116.856C64.348 118.704 65.824 119.724 67.684 119.396C71.7414 118.648 75.9157 118.832 79.892 119.932C81.724 120.428 83.164 119.532 83.164 117.692V106.984C83.1407 106.517 82.984 106.066 82.7126 105.684C82.4411 105.303 82.0661 105.007 81.632 104.832C76.5635 103.116 71.1117 102.876 65.912 104.14C65.4741 104.269 65.0878 104.533 64.8073 104.893C64.5267 105.253 64.3661 105.692 64.348 106.148Z" stroke="#263238" stroke-linecap="round" stroke-linejoin="round"/>
<path d="M71.9 127.072H66.58C66.1316 127.072 65.6875 127.16 65.2731 127.331C64.8586 127.502 64.482 127.753 64.1648 128.07C63.8475 128.387 63.5958 128.763 63.4241 129.178C63.2524 129.592 63.164 130.036 63.164 130.484C63.164 130.899 63.3288 131.297 63.6221 131.59C63.9154 131.883 64.3132 132.048 64.728 132.048H70.916" stroke="#263238" stroke-linecap="round" stroke-linejoin="round"/>
<path d="M72.736 132.048H90.304C90.7188 132.048 91.1166 131.883 91.4099 131.59C91.7032 131.297 91.868 130.899 91.868 130.484C91.868 130.036 91.7796 129.592 91.6079 129.178C91.4362 128.763 91.1845 128.387 90.8672 128.07C90.55 127.753 90.1734 127.502 89.7589 127.331C89.3445 127.16 88.9004 127.072 88.452 127.072H74.588C74.1396 127.072 73.6955 127.16 73.2811 127.331C72.8666 127.502 72.49 127.753 72.1728 128.07C71.8555 128.387 71.6038 128.763 71.4321 129.178C71.2604 129.592 71.172 130.036 71.172 130.484C71.172 130.899 71.3368 131.297 71.6301 131.59C71.9234 131.883 72.3212 132.048 72.736 132.048Z" stroke="#263238" stroke-linecap="round" stroke-linejoin="round"/>
<path d="M155.452 99.136C155.661 99.1317 155.862 99.052 156.017 98.9116C156.172 98.7713 156.271 98.5796 156.296 98.372L158.048 82.064C158.061 81.9676 158.054 81.8696 158.025 81.7765C157.997 81.6835 157.949 81.5977 157.884 81.525C157.82 81.4524 157.74 81.3946 157.651 81.3558C157.562 81.3169 157.465 81.2979 157.368 81.3" stroke="#263238" stroke-linecap="round" stroke-linejoin="round"/>
<path d="M112.12 114.144H168.496V108.912H112.12V114.144Z" stroke="#263238" stroke-linecap="round" stroke-linejoin="round"/>
<path d="M92.052 108.908V114.14H111.248" stroke="#263238" stroke-linecap="round" stroke-linejoin="round"/>
<path d="M170.308 108.348V105.076H115.336" stroke="#263238" stroke-linecap="round" stroke-linejoin="round"/>
<path d="M90.236 108.352H114.46V105.08H90.236V108.352Z" stroke="#263238" stroke-linecap="round" stroke-linejoin="round"/>
<path d="M165.436 115.016V157.212H166.656L167.096 115.016" stroke="#263238" stroke-linecap="round" stroke-linejoin="round"/>
<path d="M163.78 115.016L164.216 157.212H165.436V115.016" stroke="#263238" stroke-linecap="round" stroke-linejoin="round"/>
<path d="M149.316 115.016V157.212H150.536L150.972 115.016" stroke="#263238" stroke-linecap="round" stroke-linejoin="round"/>
<path d="M147.66 115.016L148.096 157.212H149.316V115.016" stroke="#263238" stroke-linecap="round" stroke-linejoin="round"/>
<path d="M111.228 115.016V157.212H112.452L112.888 115.016" stroke="#263238" stroke-linecap="round" stroke-linejoin="round"/>
<path d="M109.572 115.016L110.008 157.212H111.228V115.016" stroke="#263238" stroke-linecap="round" stroke-linejoin="round"/>
<path d="M95.108 115.016V157.212H96.328L96.764 115.016" stroke="#263238" stroke-linecap="round" stroke-linejoin="round"/>
<path d="M93.452 115.016L93.888 157.212H95.108V115.016" stroke="#263238" stroke-linecap="round" stroke-linejoin="round"/>
<path d="M136.384 104.06H124.524V105.076H136.384V104.06Z" stroke="#263238" stroke-linecap="round" stroke-linejoin="round"/>
<path d="M158.18 105.076H155.428C155.244 105.076 155.068 105.003 154.939 104.873C154.809 104.744 154.736 104.568 154.736 104.384V103.512H158.872V104.384C158.872 104.568 158.799 104.744 158.669 104.873C158.54 105.003 158.364 105.076 158.18 105.076Z" stroke="#263238" stroke-linecap="round" stroke-linejoin="round"/>
<path d="M158.872 103.52C158.872 102.928 157.944 102.444 156.8 102.444C155.656 102.444 154.732 102.928 154.732 103.52H158.872Z" stroke="#263238" stroke-linecap="round" stroke-linejoin="round"/>
<path d="M154.732 103.52C154.732 102.928 155.66 102.444 156.8 102.444V103.52H154.732Z" stroke="#263238" stroke-linecap="round" stroke-linejoin="round"/>
<path d="M154.592 99.1359H131.472C131.375 99.138 131.278 99.1189 131.189 99.08C131.1 99.0412 131.02 98.9834 130.956 98.9108C130.891 98.8382 130.843 98.7524 130.815 98.6593C130.786 98.5663 130.779 98.4682 130.792 98.3719L132.544 82.0639C132.57 81.8565 132.669 81.6654 132.824 81.5251C132.979 81.3849 133.179 81.305 133.388 81.2999H156.512C156.609 81.2985 156.705 81.318 156.794 81.3571C156.883 81.3961 156.962 81.4539 157.027 81.5264C157.091 81.5988 157.139 81.6844 157.168 81.7771C157.196 81.8699 157.205 81.9677 157.192 82.0639L155.44 98.3719C155.415 98.5802 155.315 98.7724 155.159 98.9129C155.003 99.0533 154.802 99.1325 154.592 99.1359Z" stroke="#263238" stroke-linecap="round" stroke-linejoin="round"/>
<path d="M146.376 99.5718L146.772 103.244H147.644L147.248 99.5718" stroke="#263238" stroke-linecap="round" stroke-linejoin="round"/>
<path d="M140.704 99.5718L141.1 103.244H146.772L146.376 99.5718" stroke="#263238" stroke-linecap="round" stroke-linejoin="round"/>
<path d="M153.628 97.9561H132.692C132.607 97.9581 132.523 97.9417 132.446 97.908C132.368 97.8742 132.299 97.8241 132.243 97.7609C132.186 97.6978 132.144 97.6232 132.12 97.5422C132.095 97.4613 132.088 97.3759 132.1 97.2921L133.62 83.1441C133.642 82.9634 133.729 82.7967 133.864 82.6747C133.999 82.5527 134.174 82.4836 134.356 82.4801H155.292C155.377 82.4782 155.461 82.4946 155.538 82.5283C155.616 82.562 155.685 82.6122 155.741 82.6753C155.798 82.7385 155.84 82.8131 155.864 82.8941C155.889 82.975 155.896 83.0603 155.884 83.1441L154.364 97.2921C154.342 97.4729 154.255 97.6396 154.12 97.7616C153.985 97.8836 153.81 97.9527 153.628 97.9561Z" stroke="#263238" stroke-linecap="round" stroke-linejoin="round"/>
<path d="M148.52 103.244H137.02V105.08H148.52V103.244Z" stroke="#263238" stroke-linecap="round" stroke-linejoin="round"/>
<path d="M151.884 103.244H148.52V105.08H151.884V103.244Z" stroke="#263238" stroke-linecap="round" stroke-linejoin="round"/>
<path d="M162.8 85.9399H125.14V94.4239H162.8V85.9399Z" fill="white" stroke="#263238" stroke-linecap="round" stroke-linejoin="round"/>
<path d="M129.692 91.072L129.084 90.608L129.184 91.352C129.193 91.4011 129.191 91.4515 129.178 91.4997C129.165 91.5478 129.142 91.5926 129.11 91.6307C129.078 91.6689 129.038 91.6995 128.992 91.7205C128.947 91.7415 128.898 91.7522 128.848 91.752C128.798 91.7522 128.749 91.7415 128.704 91.7205C128.658 91.6995 128.618 91.6689 128.586 91.6307C128.554 91.5926 128.531 91.5478 128.518 91.4997C128.505 91.4515 128.503 91.4011 128.512 91.352L128.612 90.608L128 91.072C127.962 91.1006 127.918 91.1207 127.871 91.1311C127.825 91.1416 127.776 91.1421 127.73 91.1327C127.683 91.1232 127.639 91.1041 127.6 91.0764C127.561 91.0487 127.528 91.0132 127.504 90.972C127.48 90.9307 127.465 90.8847 127.46 90.837C127.455 90.7894 127.46 90.7412 127.475 90.6957C127.49 90.6503 127.515 90.6086 127.547 90.5734C127.58 90.5383 127.62 90.5106 127.664 90.492L128.364 90.2L127.664 89.908C127.62 89.8891 127.58 89.8609 127.547 89.8254C127.515 89.7899 127.49 89.7479 127.475 89.7021C127.46 89.6564 127.454 89.6079 127.459 89.56C127.465 89.512 127.48 89.4657 127.504 89.424C127.528 89.3824 127.56 89.3464 127.599 89.3184C127.638 89.2903 127.682 89.2709 127.729 89.2614C127.776 89.252 127.825 89.2526 127.871 89.2634C127.918 89.2742 127.962 89.2949 128 89.324L128.608 89.788L128.508 89.044C128.499 88.995 128.501 88.9446 128.514 88.8964C128.527 88.8483 128.55 88.8035 128.582 88.7654C128.614 88.7272 128.654 88.6965 128.7 88.6756C128.745 88.6546 128.794 88.6438 128.844 88.644C128.894 88.6438 128.943 88.6546 128.988 88.6756C129.034 88.6965 129.074 88.7272 129.106 88.7654C129.138 88.8035 129.161 88.8483 129.174 88.8964C129.187 88.9446 129.189 88.995 129.18 89.044L129.08 89.788L129.688 89.324C129.726 89.2949 129.77 89.2742 129.817 89.2634C129.863 89.2526 129.912 89.252 129.959 89.2614C130.006 89.2709 130.05 89.2903 130.089 89.3184C130.128 89.3464 130.16 89.3824 130.184 89.424C130.208 89.4657 130.223 89.512 130.228 89.56C130.234 89.6079 130.228 89.6564 130.213 89.7021C130.198 89.7479 130.173 89.7899 130.141 89.8254C130.108 89.8609 130.068 89.8891 130.024 89.908L129.324 90.2L130.024 90.492C130.068 90.5106 130.108 90.5383 130.141 90.5734C130.173 90.6086 130.198 90.6503 130.213 90.6957C130.228 90.7412 130.233 90.7894 130.228 90.837C130.223 90.8847 130.208 90.9307 130.184 90.972C130.16 91.0126 130.127 91.0476 130.089 91.0749C130.05 91.1022 130.006 91.1211 129.96 91.1305C129.914 91.1399 129.866 91.1396 129.82 91.1295C129.774 91.1195 129.73 91.0999 129.692 91.072Z" fill="#263238"/>
<path d="M135.12 91.072L134.512 90.6081L134.612 91.3521C134.621 91.4011 134.619 91.4515 134.606 91.4997C134.593 91.5478 134.57 91.5926 134.538 91.6307C134.506 91.6689 134.466 91.6996 134.42 91.7205C134.375 91.7415 134.326 91.7522 134.276 91.7521C134.226 91.7524 134.177 91.7416 134.132 91.7206C134.087 91.6997 134.047 91.6689 134.015 91.6306C133.984 91.5924 133.961 91.5475 133.948 91.4994C133.936 91.4512 133.935 91.4009 133.944 91.3521L134.044 90.6081L133.436 91.072C133.397 91.1006 133.353 91.1208 133.306 91.1313C133.259 91.1418 133.211 91.1423 133.164 91.1329C133.117 91.1235 133.072 91.1043 133.033 91.0766C132.994 91.0489 132.961 91.0133 132.936 90.972C132.912 90.9303 132.898 90.8841 132.894 90.8364C132.889 90.7887 132.895 90.7406 132.911 90.6953C132.926 90.65 132.951 90.6085 132.984 90.5735C133.016 90.5384 133.056 90.5107 133.1 90.492L133.796 90.2L133.1 89.9081C133.056 89.889 133.016 89.8608 132.983 89.8254C132.951 89.79 132.926 89.7482 132.91 89.7025C132.895 89.6569 132.889 89.6085 132.894 89.5606C132.898 89.5126 132.912 89.4661 132.936 89.424C132.96 89.3823 132.993 89.3462 133.032 89.3182C133.071 89.2901 133.116 89.2707 133.163 89.2612C133.211 89.2518 133.259 89.2525 133.306 89.2633C133.353 89.2741 133.398 89.2948 133.436 89.324L134.044 89.7881L133.944 89.044C133.935 88.9952 133.936 88.9449 133.948 88.8967C133.961 88.8486 133.984 88.8037 134.015 88.7654C134.047 88.7272 134.087 88.6964 134.132 88.6754C134.177 88.6545 134.226 88.6437 134.276 88.644C134.326 88.6439 134.375 88.6546 134.42 88.6756C134.466 88.6965 134.506 88.7272 134.538 88.7654C134.57 88.8035 134.593 88.8483 134.606 88.8964C134.619 88.9446 134.621 88.995 134.612 89.044L134.512 89.7881L135.12 89.324C135.158 89.2949 135.202 89.2742 135.249 89.2634C135.295 89.2526 135.344 89.252 135.391 89.2614C135.438 89.2709 135.482 89.2903 135.521 89.3184C135.56 89.3464 135.592 89.3824 135.616 89.424C135.64 89.4657 135.655 89.512 135.66 89.56C135.666 89.6079 135.66 89.6564 135.645 89.7021C135.63 89.7479 135.605 89.7899 135.573 89.8254C135.54 89.8609 135.5 89.8891 135.456 89.9081L134.76 90.2L135.456 90.492C135.5 90.5106 135.54 90.5383 135.573 90.5734C135.605 90.6086 135.63 90.6503 135.645 90.6957C135.66 90.7412 135.665 90.7894 135.66 90.837C135.655 90.8847 135.64 90.9307 135.616 90.972C135.592 91.0132 135.559 91.0487 135.52 91.0764C135.481 91.1041 135.437 91.1232 135.39 91.1327C135.344 91.1421 135.295 91.1416 135.249 91.1311C135.202 91.1207 135.158 91.1006 135.12 91.072Z" fill="#263238"/>
<path d="M140.548 91.0721L139.94 90.6081L140.04 91.3521C140.049 91.4009 140.048 91.4512 140.036 91.4994C140.023 91.5476 140 91.5924 139.969 91.6307C139.937 91.669 139.897 91.6997 139.852 91.7207C139.807 91.7417 139.758 91.7524 139.708 91.7521C139.658 91.753 139.608 91.7427 139.563 91.722C139.517 91.7013 139.477 91.6706 139.445 91.6323C139.412 91.5939 139.389 91.5489 139.377 91.5004C139.364 91.4519 139.362 91.4013 139.372 91.3521L139.472 90.6081L138.864 91.0721C138.826 91.1006 138.782 91.1207 138.735 91.1312C138.689 91.1416 138.64 91.1422 138.594 91.1327C138.547 91.1233 138.503 91.1041 138.464 91.0764C138.425 91.0488 138.392 91.0132 138.368 90.9721C138.344 90.9308 138.329 90.8847 138.324 90.8371C138.319 90.7894 138.324 90.7412 138.339 90.6958C138.354 90.6503 138.379 90.6086 138.411 90.5735C138.444 90.5384 138.484 90.5106 138.528 90.4921L139.224 90.2001L138.528 89.9081C138.484 89.8892 138.444 89.861 138.411 89.8255C138.379 89.79 138.354 89.748 138.339 89.7022C138.324 89.6564 138.318 89.6079 138.324 89.56C138.329 89.5121 138.344 89.4657 138.368 89.4241C138.392 89.3825 138.424 89.3465 138.463 89.3184C138.502 89.2904 138.546 89.271 138.593 89.2615C138.64 89.252 138.689 89.2527 138.735 89.2635C138.782 89.2743 138.826 89.295 138.864 89.3241L139.472 89.7881L139.372 89.0441C139.362 88.9949 139.364 88.9443 139.377 88.8958C139.389 88.8473 139.412 88.8023 139.445 88.7639C139.477 88.7256 139.517 88.6949 139.563 88.6742C139.608 88.6535 139.658 88.6432 139.708 88.6441C139.758 88.6438 139.807 88.6545 139.852 88.6755C139.897 88.6965 139.937 88.7272 139.969 88.7655C140 88.8038 140.023 88.8486 140.036 88.8968C140.048 88.945 140.049 88.9953 140.04 89.0441L139.94 89.7881L140.548 89.3241C140.586 89.295 140.63 89.2743 140.677 89.2635C140.723 89.2527 140.772 89.252 140.819 89.2615C140.866 89.271 140.91 89.2904 140.949 89.3184C140.988 89.3465 141.02 89.3825 141.044 89.4241C141.068 89.4661 141.082 89.5126 141.086 89.5606C141.091 89.6086 141.085 89.657 141.07 89.7026C141.054 89.7482 141.029 89.7901 140.997 89.8255C140.964 89.8609 140.924 89.889 140.88 89.9081L140.184 90.2001L140.88 90.4921C140.924 90.5106 140.964 90.5384 140.997 90.5735C141.029 90.6086 141.054 90.6503 141.069 90.6958C141.084 90.7412 141.089 90.7894 141.084 90.8371C141.079 90.8847 141.064 90.9308 141.04 90.9721C141.016 91.0126 140.983 91.0476 140.945 91.0749C140.906 91.1022 140.862 91.1212 140.816 91.1306C140.77 91.14 140.722 91.1396 140.676 91.1296C140.63 91.1195 140.586 91.0999 140.548 91.0721Z" fill="#263238"/>
<path d="M146 91.072L145.388 90.6081L145.488 91.3521C145.497 91.4009 145.496 91.4512 145.484 91.4994C145.471 91.5475 145.448 91.5924 145.417 91.6306C145.385 91.6689 145.345 91.6997 145.3 91.7206C145.255 91.7416 145.206 91.7524 145.156 91.7521C145.106 91.7522 145.057 91.7415 145.012 91.7205C144.966 91.6996 144.926 91.6689 144.894 91.6307C144.862 91.5926 144.839 91.5478 144.826 91.4997C144.813 91.4515 144.811 91.4011 144.82 91.3521L144.92 90.6081L144.312 91.072C144.274 91.1006 144.23 91.1207 144.183 91.1311C144.137 91.1416 144.088 91.1421 144.042 91.1327C143.995 91.1232 143.951 91.1041 143.912 91.0764C143.873 91.0487 143.84 91.0132 143.816 90.972C143.792 90.9307 143.777 90.8847 143.772 90.837C143.767 90.7894 143.772 90.7412 143.787 90.6957C143.802 90.6503 143.827 90.6086 143.859 90.5734C143.892 90.5383 143.932 90.5106 143.976 90.492L144.676 90.2L143.976 89.9081C143.932 89.8891 143.892 89.8609 143.859 89.8254C143.827 89.7899 143.802 89.7479 143.787 89.7021C143.772 89.6564 143.766 89.6079 143.772 89.56C143.777 89.512 143.792 89.4657 143.816 89.424C143.84 89.3824 143.872 89.3464 143.911 89.3184C143.95 89.2903 143.994 89.2709 144.041 89.2614C144.088 89.252 144.137 89.2526 144.183 89.2634C144.23 89.2742 144.274 89.2949 144.312 89.324L144.92 89.7881L144.82 89.044C144.811 88.995 144.813 88.9446 144.826 88.8964C144.839 88.8483 144.862 88.8035 144.894 88.7654C144.926 88.7272 144.966 88.6965 145.012 88.6756C145.057 88.6546 145.106 88.6439 145.156 88.644C145.206 88.6437 145.255 88.6545 145.3 88.6754C145.345 88.6964 145.385 88.7272 145.417 88.7654C145.448 88.8037 145.471 88.8486 145.484 88.8967C145.496 88.9449 145.497 88.9952 145.488 89.044L145.388 89.7881L146 89.324C146.038 89.2949 146.082 89.2742 146.129 89.2634C146.175 89.2526 146.224 89.252 146.271 89.2614C146.318 89.2709 146.362 89.2903 146.401 89.3184C146.44 89.3464 146.472 89.3824 146.496 89.424C146.52 89.4658 146.534 89.5121 146.539 89.5599C146.544 89.6077 146.538 89.6559 146.523 89.7015C146.508 89.7471 146.484 89.789 146.451 89.8246C146.419 89.8602 146.38 89.8886 146.336 89.9081L145.636 90.2L146.332 90.492C146.376 90.5107 146.416 90.5384 146.448 90.5735C146.481 90.6085 146.506 90.65 146.521 90.6953C146.537 90.7406 146.543 90.7887 146.538 90.8364C146.534 90.8841 146.519 90.9303 146.496 90.972C146.472 91.0132 146.439 91.0487 146.4 91.0764C146.361 91.1041 146.317 91.1232 146.27 91.1327C146.224 91.1421 146.175 91.1416 146.129 91.1311C146.082 91.1207 146.038 91.1006 146 91.072Z" fill="#263238"/>
<path d="M151.408 91.072L150.8 90.608L150.9 91.352C150.909 91.4011 150.907 91.4515 150.894 91.4997C150.881 91.5478 150.858 91.5926 150.826 91.6307C150.794 91.6689 150.754 91.6995 150.708 91.7205C150.663 91.7415 150.614 91.7522 150.564 91.752C150.514 91.7522 150.465 91.7415 150.42 91.7205C150.374 91.6995 150.334 91.6689 150.302 91.6307C150.27 91.5926 150.247 91.5478 150.234 91.4997C150.221 91.4515 150.219 91.4011 150.228 91.352L150.328 90.608L149.72 91.072C149.682 91.1006 149.638 91.1207 149.591 91.1311C149.545 91.1416 149.496 91.1421 149.45 91.1327C149.403 91.1232 149.359 91.1041 149.32 91.0764C149.281 91.0487 149.248 91.0132 149.224 90.972C149.2 90.9307 149.185 90.8847 149.18 90.837C149.175 90.7894 149.18 90.7412 149.195 90.6957C149.21 90.6503 149.235 90.6086 149.267 90.5734C149.3 90.5383 149.34 90.5106 149.384 90.492L150.084 90.2L149.384 89.908C149.34 89.8891 149.3 89.8609 149.267 89.8254C149.235 89.7899 149.21 89.7479 149.195 89.7021C149.18 89.6564 149.174 89.6079 149.179 89.56C149.185 89.512 149.2 89.4657 149.224 89.424C149.248 89.3824 149.28 89.3464 149.319 89.3184C149.358 89.2903 149.402 89.2709 149.449 89.2614C149.496 89.252 149.545 89.2526 149.591 89.2634C149.638 89.2742 149.682 89.2949 149.72 89.324L150.328 89.788L150.228 89.044C150.219 88.995 150.221 88.9446 150.234 88.8964C150.247 88.8483 150.27 88.8035 150.302 88.7654C150.334 88.7272 150.374 88.6965 150.42 88.6756C150.465 88.6546 150.514 88.6438 150.564 88.644C150.614 88.6438 150.663 88.6546 150.708 88.6756C150.754 88.6965 150.794 88.7272 150.826 88.7654C150.858 88.8035 150.881 88.8483 150.894 88.8964C150.907 88.9446 150.909 88.995 150.9 89.044L150.8 89.76L151.408 89.296C151.446 89.2669 151.49 89.2462 151.537 89.2354C151.583 89.2246 151.632 89.224 151.679 89.2334C151.726 89.2429 151.77 89.2623 151.809 89.2904C151.848 89.3184 151.88 89.3544 151.904 89.396C151.928 89.4377 151.943 89.484 151.948 89.532C151.954 89.5799 151.948 89.6284 151.933 89.6741C151.918 89.7199 151.893 89.7619 151.861 89.7974C151.828 89.8329 151.788 89.8611 151.744 89.88L151.044 90.172L151.744 90.464C151.788 90.4826 151.828 90.5103 151.861 90.5454C151.893 90.5806 151.918 90.6223 151.933 90.6677C151.948 90.7132 151.953 90.7614 151.948 90.809C151.943 90.8567 151.928 90.9027 151.904 90.944C151.882 90.9874 151.851 91.0256 151.814 91.0561C151.776 91.0866 151.732 91.1086 151.685 91.1207C151.638 91.1329 151.589 91.1348 151.541 91.1264C151.493 91.118 151.448 91.0995 151.408 91.072Z" fill="#263238"/>
<path d="M160.484 90.1838C160.484 90.1838 159.376 91.5638 158.012 91.5638C156.648 91.5638 155.544 90.1838 155.544 90.1838C155.544 90.1838 156.648 88.7998 158 88.7998C159.352 88.7998 160.484 90.1838 160.484 90.1838Z" fill="white" stroke="#263238" stroke-linecap="round" stroke-linejoin="round"/>
<path d="M158.864 90.184C158.865 90.3526 158.815 90.5177 158.722 90.6584C158.629 90.799 158.496 90.9088 158.341 90.9739C158.185 91.039 158.014 91.0565 157.848 91.0241C157.683 90.9916 157.531 90.9108 157.411 90.7918C157.291 90.6728 157.21 90.521 157.177 90.3556C157.143 90.1903 157.16 90.0187 157.224 89.8628C157.289 89.7069 157.398 89.5736 157.538 89.4798C157.678 89.386 157.843 89.3359 158.012 89.3359C158.124 89.3354 158.234 89.357 158.338 89.3993C158.441 89.4417 158.535 89.5041 158.614 89.5829C158.693 89.6617 158.756 89.7554 158.799 89.8585C158.842 89.9617 158.864 90.0723 158.864 90.184Z" fill="#999999" stroke="#263238" stroke-linecap="round" stroke-linejoin="round"/>
<path d="M150.952 127.144C150.952 127.144 146.372 136.604 142.348 131.804C138.324 127.004 145.124 125.204 145.124 125.204C145.124 125.204 136.932 126.172 136.932 121.732C136.932 117.292 142.764 120.068 142.764 120.068C142.764 120.068 135.188 114.16 138.876 111.668C141.444 109.932 147.62 116.2 147.62 116.2C147.62 116.2 145.26 110.072 148.02 109.932C150.78 109.792 152.604 118.68 152.604 118.68C152.604 118.68 154.128 112.132 156.904 114.016C159.68 115.9 154.724 123.172 154.724 123.172C154.724 123.172 158.292 119.648 159.264 122.148C160.236 124.648 154.724 126.312 154.724 126.312C154.724 126.312 154.684 135.476 151.632 134.364C148.58 133.252 150.952 127.144 150.952 127.144Z" fill="#50B780"/>
<path d="M160.716 147.688C160.716 147.688 160.716 126.592 148.164 120.204" stroke="#263238" stroke-linecap="round" stroke-linejoin="round"/>
<path d="M152.652 123.572C152.652 123.572 149.148 124.196 145.192 128.5" stroke="#263238" stroke-linecap="round" stroke-linejoin="round"/>
<path d="M150.2 121.444C150.2 121.444 146.336 122.624 142.6 122.196" stroke="#263238" stroke-linecap="round" stroke-linejoin="round"/>
<path d="M151.288 122.288C153.093 121.079 154.517 119.383 155.396 117.396" stroke="#263238" stroke-linecap="round" stroke-linejoin="round"/>
<path d="M174.764 133.364C174.764 133.364 178.628 141.344 182.024 137.296C185.42 133.248 179.68 131.724 179.68 131.724C179.68 131.724 186.592 132.544 186.592 128.796C186.592 125.048 181.672 127.388 181.672 127.388C181.672 127.388 188.072 122.404 184.952 120.3C182.784 118.84 177.572 124.124 177.572 124.124C177.572 124.124 179.572 118.956 177.224 118.84C174.876 118.724 173.356 126.22 173.356 126.22C173.356 126.22 172.068 120.692 169.728 122.284C167.388 123.876 171.568 130.012 171.568 130.012C171.568 130.012 168.556 127.036 167.736 129.148C166.916 131.26 171.568 132.66 171.568 132.66C171.568 132.66 171.6 140.388 174.176 139.46C176.752 138.532 174.764 133.364 174.764 133.364Z" fill="#50B780"/>
<mask id="mask0_207_14693" style="mask-type:luminance" maskUnits="userSpaceOnUse" x="167" y="118" width="20" height="22">
<path d="M174.764 133.364C174.764 133.364 178.628 141.344 182.024 137.296C185.42 133.248 179.68 131.724 179.68 131.724C179.68 131.724 186.592 132.544 186.592 128.796C186.592 125.048 181.672 127.388 181.672 127.388C181.672 127.388 188.072 122.404 184.952 120.3C182.784 118.84 177.572 124.124 177.572 124.124C177.572 124.124 179.572 118.956 177.224 118.84C174.876 118.724 173.356 126.22 173.356 126.22C173.356 126.22 172.068 120.692 169.728 122.284C167.388 123.876 171.568 130.012 171.568 130.012C171.568 130.012 168.556 127.036 167.736 129.148C166.916 131.26 171.568 132.66 171.568 132.66C171.568 132.66 171.6 140.388 174.176 139.46C176.752 138.532 174.764 133.364 174.764 133.364Z" fill="white"/>
</mask>
<g mask="url(#mask0_207_14693)">
<path opacity="0.1" d="M174.764 133.364C174.764 133.364 178.628 141.344 182.024 137.296C185.42 133.248 179.68 131.724 179.68 131.724C179.68 131.724 186.592 132.544 186.592 128.796C186.592 125.048 181.672 127.388 181.672 127.388C181.672 127.388 188.072 122.404 184.952 120.3C182.784 118.84 177.572 124.124 177.572 124.124C177.572 124.124 179.572 118.956 177.224 118.84C174.876 118.724 173.356 126.22 173.356 126.22C173.356 126.22 172.068 120.692 169.728 122.284C167.388 123.876 171.568 130.012 171.568 130.012C171.568 130.012 168.556 127.036 167.736 129.148C166.916 131.26 171.568 132.66 171.568 132.66C171.568 132.66 171.6 140.388 174.176 139.46C176.752 138.532 174.764 133.364 174.764 133.364Z" fill="black"/>
</g>
<path d="M174.296 128.968C168.836 132.908 168.056 146.568 168.056 146.568" stroke="#263238" stroke-linecap="round" stroke-linejoin="round"/>
<path d="M172.684 130.552C174.887 131.401 176.871 132.735 178.488 134.456" stroke="#263238" stroke-linecap="round" stroke-linejoin="round"/>
<path d="M176.06 122.288C176.06 125.272 174.292 128.968 174.292 128.968L175.588 129.368" stroke="#263238" stroke-linecap="round" stroke-linejoin="round"/>
<path d="M176.656 129.688C176.656 129.688 179.948 130.424 182.444 129.688" stroke="#263238" stroke-linecap="round" stroke-linejoin="round"/>
<path d="M163.02 112.8C163.02 112.8 153.776 113.2 154.356 108.248C154.84 104.112 161.384 106.876 161.384 106.876C161.384 106.876 156.016 100.616 159.704 98.1441C163.392 95.6721 165.6 102.872 165.6 102.872C165.6 102.872 167.952 92.4721 172.076 94.1321C174.948 95.3001 170.272 103.92 170.272 103.92C170.272 103.92 175.708 100.212 177.372 102.44C179.036 104.668 170.996 109.452 170.996 109.452C170.996 109.452 177.284 107.072 177.264 110.428C177.244 113.784 168.444 113.716 168.444 113.716C168.444 113.716 173.36 114.72 171.824 116.916C170.288 119.112 165.824 115.464 165.824 115.464C165.824 115.464 159.804 119.82 159.024 116.664C158.244 113.508 163.02 112.8 163.02 112.8Z" fill="#50B780"/>
<mask id="mask1_207_14693" style="mask-type:luminance" maskUnits="userSpaceOnUse" x="154" y="93" width="24" height="25">
<path d="M163.02 112.8C163.02 112.8 153.776 113.2 154.356 108.248C154.84 104.112 161.384 106.876 161.384 106.876C161.384 106.876 156.016 100.616 159.704 98.1441C163.392 95.6721 165.6 102.872 165.6 102.872C165.6 102.872 167.952 92.4721 172.076 94.1321C174.948 95.3001 170.272 103.92 170.272 103.92C170.272 103.92 175.708 100.212 177.372 102.44C179.036 104.668 170.996 109.452 170.996 109.452C170.996 109.452 177.284 107.072 177.264 110.428C177.244 113.784 168.444 113.716 168.444 113.716C168.444 113.716 173.36 114.72 171.824 116.916C170.288 119.112 165.824 115.464 165.824 115.464C165.824 115.464 159.804 119.82 159.024 116.664C158.244 113.508 163.02 112.8 163.02 112.8Z" fill="white"/>
</mask>
<g mask="url(#mask1_207_14693)">
<path opacity="0.2" d="M163.02 112.8C163.02 112.8 153.776 113.2 154.356 108.248C154.84 104.112 161.384 106.876 161.384 106.876C161.384 106.876 156.016 100.616 159.704 98.1441C163.392 95.6721 165.6 102.872 165.6 102.872C165.6 102.872 167.952 92.4721 172.076 94.1321C174.948 95.3001 170.272 103.92 170.272 103.92C170.272 103.92 175.708 100.212 177.372 102.44C179.036 104.668 170.996 109.452 170.996 109.452C170.996 109.452 177.284 107.072 177.264 110.428C177.244 113.784 168.444 113.716 168.444 113.716C168.444 113.716 173.36 114.72 171.824 116.916C170.288 119.112 165.824 115.464 165.824 115.464C165.824 115.464 159.804 119.82 159.024 116.664C158.244 113.508 163.02 112.8 163.02 112.8Z" fill="white"/>
</g>
<path d="M164.296 147.688C164.296 147.688 162.82 121.576 168.052 104.088" stroke="#263238" stroke-linecap="round" stroke-linejoin="round"/>
<path d="M157.876 108.856C157.876 108.856 161.772 108.528 166.376 111.056" stroke="#263238" stroke-linecap="round" stroke-linejoin="round"/>
<path d="M161.116 100.632C161.116 100.632 165.012 104.448 166.6 109.932" stroke="#263238" stroke-linecap="round" stroke-linejoin="round"/>
<path d="M166.948 108.316C166.948 108.316 169.48 105.516 172.684 104.796" stroke="#263238" stroke-linecap="round" stroke-linejoin="round"/>
<path d="M174.212 145.104H154.304L155.904 163.156C155.921 163.346 156.008 163.523 156.149 163.651C156.29 163.78 156.473 163.852 156.664 163.852L157.064 168.312C157.082 168.502 157.17 168.679 157.311 168.808C157.453 168.936 157.637 169.008 157.828 169.008H170.688C170.879 169.008 171.062 168.936 171.203 168.807C171.344 168.679 171.431 168.502 171.448 168.312L171.848 163.852C172.039 163.852 172.223 163.78 172.365 163.652C172.506 163.523 172.594 163.346 172.612 163.156L174.212 145.104Z" fill="white" stroke="#263238" stroke-linecap="round" stroke-linejoin="round"/>
<path d="M174.34 146.58H154.176C153.799 146.579 153.437 146.429 153.17 146.162C152.903 145.895 152.753 145.533 152.752 145.156C152.753 144.779 152.903 144.417 153.17 144.15C153.437 143.883 153.799 143.733 154.176 143.732H174.34C174.717 143.733 175.078 143.883 175.344 144.15C175.611 144.417 175.76 144.779 175.76 145.156C175.76 145.533 175.611 145.895 175.344 146.161C175.078 146.428 174.717 146.579 174.34 146.58Z" fill="#263238" stroke="#263238" stroke-linecap="round" stroke-linejoin="round"/>
<path d="M168.176 163.904H169.496" stroke="#263238" stroke-linecap="round" stroke-linejoin="round"/>
<path d="M159.016 163.904H166.852" stroke="#263238" stroke-linecap="round" stroke-linejoin="round"/>
<path d="M120.104 15.4922H114.652V119.764H120.104C120.972 119.763 121.804 119.418 122.418 118.803C123.031 118.189 123.376 117.356 123.376 116.488V18.7682C123.376 17.9 123.031 17.0674 122.418 16.4531C121.804 15.8389 120.972 15.4932 120.104 15.4922Z" fill="#999999" stroke="#263238" stroke-linecap="round" stroke-linejoin="round"/>
<path d="M118.632 15.4922H71.188C69.5311 15.4922 68.188 16.8353 68.188 18.4922V116.764C68.188 118.421 69.5311 119.764 71.188 119.764H118.632C120.289 119.764 121.632 118.421 121.632 116.764V18.4922C121.632 16.8353 120.289 15.4922 118.632 15.4922Z" fill="#263238" stroke="#263238" stroke-linecap="round" stroke-linejoin="round"/>
<path d="M104.164 20.0801C104.087 20.719 103.779 21.3076 103.298 21.7349C102.816 22.1623 102.196 22.3989 101.552 22.4001H87.816C87.1715 22.4007 86.5492 22.1649 86.0671 21.7372C85.5849 21.3096 85.2764 20.72 85.2 20.0801C85.1192 19.4445 84.8093 18.8602 84.3284 18.4367C83.8475 18.0133 83.2287 17.7798 82.588 17.7801H72.928C72.232 17.7801 71.5644 18.0557 71.0711 18.5467C70.5779 19.0377 70.2992 19.7041 70.296 20.4001V114.844C70.297 115.542 70.5747 116.211 71.0681 116.704C71.5614 117.197 72.2303 117.475 72.928 117.476H116.892C117.59 117.476 118.259 117.199 118.753 116.705C119.247 116.212 119.524 115.542 119.524 114.844V20.4001C119.525 20.0543 119.457 19.7118 119.325 19.3922C119.193 19.0727 118.999 18.7823 118.754 18.5378C118.51 18.2933 118.219 18.0994 117.9 17.9673C117.58 17.8353 117.238 17.7675 116.892 17.7681H106.776C106.133 17.7682 105.513 18.0033 105.032 18.4292C104.551 18.8551 104.242 19.4423 104.164 20.0801Z" fill="#50B780"/>
<mask id="mask2_207_14693" style="mask-type:luminance" maskUnits="userSpaceOnUse" x="70" y="17" width="50" height="101">
<path d="M104.164 20.0801C104.087 20.719 103.779 21.3076 103.298 21.7349C102.816 22.1623 102.196 22.3989 101.552 22.4001H87.816C87.1715 22.4007 86.5492 22.1649 86.0671 21.7372C85.5849 21.3096 85.2764 20.72 85.2 20.0801C85.1192 19.4445 84.8093 18.8602 84.3284 18.4367C83.8475 18.0133 83.2287 17.7798 82.588 17.7801H72.928C72.232 17.7801 71.5644 18.0557 71.0711 18.5467C70.5779 19.0377 70.2992 19.7041 70.296 20.4001V114.844C70.297 115.542 70.5747 116.211 71.0681 116.704C71.5614 117.197 72.2303 117.475 72.928 117.476H116.892C117.59 117.476 118.259 117.199 118.753 116.705C119.247 116.212 119.524 115.542 119.524 114.844V20.4001C119.525 20.0543 119.457 19.7118 119.325 19.3922C119.193 19.0727 118.999 18.7823 118.754 18.5378C118.51 18.2933 118.219 18.0994 117.9 17.9673C117.58 17.8353 117.238 17.7675 116.892 17.7681H106.776C106.133 17.7682 105.513 18.0033 105.032 18.4292C104.551 18.8551 104.242 19.4423 104.164 20.0801Z" fill="white"/>
</mask>
<g mask="url(#mask2_207_14693)">
<path opacity="0.4" d="M84.796 124.108H68.732L107.456 10.1079H123.52L84.796 124.108Z" fill="white"/>
<path opacity="0.4" d="M96.028 124.108H91.756L130.484 10.1079H134.756L96.028 124.108Z" fill="white"/>
</g>
<path d="M104.164 20.0801C104.087 20.719 103.779 21.3076 103.298 21.7349C102.816 22.1623 102.196 22.3989 101.552 22.4001H87.816C87.1715 22.4007 86.5492 22.1649 86.0671 21.7372C85.5849 21.3096 85.2764 20.72 85.2 20.0801C85.1192 19.4445 84.8093 18.8602 84.3284 18.4367C83.8475 18.0133 83.2287 17.7798 82.588 17.7801H72.928C72.232 17.7801 71.5644 18.0557 71.0711 18.5467C70.5779 19.0377 70.2992 19.7041 70.296 20.4001V114.844C70.297 115.542 70.5747 116.211 71.0681 116.704C71.5614 117.197 72.2303 117.475 72.928 117.476H116.892C117.59 117.476 118.259 117.199 118.753 116.705C119.247 116.212 119.524 115.542 119.524 114.844V20.4001C119.525 20.0543 119.457 19.7118 119.325 19.3922C119.193 19.0727 118.999 18.7823 118.754 18.5378C118.51 18.2933 118.219 18.0994 117.9 17.9673C117.58 17.8353 117.238 17.7675 116.892 17.7681H106.776C106.133 17.7682 105.513 18.0033 105.032 18.4292C104.551 18.8551 104.242 19.4423 104.164 20.0801Z" stroke="#263238" stroke-linecap="round" stroke-linejoin="round"/>
<path d="M90.184 19.1321C90.184 19.3695 90.1136 19.6015 89.9818 19.7988C89.8499 19.9962 89.6625 20.15 89.4432 20.2408C89.2239 20.3316 88.9827 20.3554 88.7499 20.3091C88.5171 20.2628 88.3033 20.1485 88.1355 19.9807C87.9676 19.8128 87.8534 19.599 87.8071 19.3662C87.7608 19.1335 87.7845 18.8922 87.8753 18.6729C87.9662 18.4536 88.12 18.2662 88.3173 18.1344C88.5147 18.0025 88.7467 17.9321 88.984 17.9321C89.3023 17.9321 89.6075 18.0586 89.8325 18.2836C90.0576 18.5086 90.184 18.8139 90.184 19.1321Z" fill="#50B780" stroke="#263238" stroke-linecap="round" stroke-linejoin="round"/>
<path d="M99.672 17.9683H93.6C93.2913 17.9683 92.9952 18.0909 92.7769 18.3092C92.5586 18.5275 92.436 18.8236 92.436 19.1323C92.436 19.441 92.5586 19.737 92.7769 19.9553C92.9952 20.1736 93.2913 20.2963 93.6 20.2963H99.672C99.9807 20.2963 100.277 20.1736 100.495 19.9553C100.713 19.737 100.836 19.441 100.836 19.1323C100.836 18.8236 100.713 18.5275 100.495 18.3092C100.277 18.0909 99.9807 17.9683 99.672 17.9683Z" fill="#999999" stroke="#263238" stroke-linecap="round" stroke-linejoin="round"/>
<path d="M100.4 112.348H88.728C88.4097 112.348 88.1045 112.475 87.8795 112.7C87.6544 112.925 87.528 113.23 87.528 113.548C87.528 113.866 87.6544 114.172 87.8795 114.397C88.1045 114.622 88.4097 114.748 88.728 114.748H100.4C100.718 114.748 101.023 114.622 101.249 114.397C101.474 114.172 101.6 113.866 101.6 113.548C101.6 113.23 101.474 112.925 101.249 112.7C101.023 112.475 100.718 112.348 100.4 112.348Z" fill="#999999" stroke="#263238" stroke-linecap="round" stroke-linejoin="round"/>
<path d="M123.972 42.0282V34.2282C123.972 34.0552 123.903 33.8894 123.781 33.7671C123.659 33.6449 123.493 33.5762 123.32 33.5762C123.147 33.5762 122.981 33.6449 122.859 33.7671C122.737 33.8894 122.668 34.0552 122.668 34.2282V42.0282C122.668 42.2011 122.737 42.3669 122.859 42.4892C122.981 42.6115 123.147 42.6802 123.32 42.6802C123.493 42.6802 123.659 42.6115 123.781 42.4892C123.903 42.3669 123.972 42.2011 123.972 42.0282Z" fill="#263238"/>
<path d="M123.972 47.8203V45.2243C123.972 45.0513 123.903 44.8855 123.781 44.7632C123.659 44.641 123.493 44.5723 123.32 44.5723C123.147 44.5723 122.981 44.641 122.859 44.7632C122.737 44.8855 122.668 45.0513 122.668 45.2243V47.8203C122.668 47.9932 122.737 48.159 122.859 48.2813C122.981 48.4036 123.147 48.4723 123.32 48.4723C123.493 48.4723 123.659 48.4036 123.781 48.2813C123.903 48.159 123.972 47.9932 123.972 47.8203Z" fill="#263238"/>
<path d="M125.184 53.5723H66.34V66.8283H125.184V53.5723Z" fill="white" stroke="#263238" stroke-linecap="round" stroke-linejoin="round"/>
<path d="M73.452 61.6002L72.5 60.8762L72.656 62.0402C72.6662 62.1146 72.6605 62.1904 72.6391 62.2625C72.6177 62.3345 72.5812 62.4012 72.5319 62.458C72.4827 62.5148 72.4219 62.5604 72.3536 62.5919C72.2854 62.6233 72.2112 62.6397 72.136 62.6402C72.0605 62.6403 71.9858 62.6243 71.9171 62.5931C71.8483 62.5619 71.787 62.5164 71.7374 62.4595C71.6877 62.4026 71.6508 62.3358 71.6292 62.2634C71.6076 62.1911 71.6017 62.115 71.612 62.0402L71.768 60.8762L70.8 61.6002C70.7406 61.6456 70.6723 61.6779 70.5995 61.6949C70.5267 61.7119 70.4511 61.7133 70.3778 61.6989C70.3044 61.6845 70.2349 61.6548 70.174 61.6115C70.113 61.5683 70.0619 61.5126 70.024 61.4482V61.4242C69.9863 61.3593 69.9629 61.2871 69.9553 61.2124C69.9477 61.1378 69.9561 61.0623 69.9799 60.9912C70.0038 60.92 70.0425 60.8548 70.0935 60.7998C70.1446 60.7447 70.2068 60.7013 70.276 60.6722L71.368 60.2162L70.276 59.7562C70.2068 59.7271 70.1446 59.6836 70.0935 59.6286C70.0425 59.5736 70.0038 59.5083 69.9799 59.4372C69.9561 59.366 69.9477 59.2906 69.9553 59.2159C69.9629 59.1413 69.9863 59.0691 70.024 59.0042V58.9842C70.059 58.9172 70.1081 58.8585 70.1678 58.8121C70.2275 58.7657 70.2964 58.7326 70.37 58.7152C70.4436 58.6977 70.5201 58.6963 70.5942 58.711C70.6684 58.7256 70.7386 58.7561 70.8 58.8002L71.752 59.5242L71.596 58.3602C71.5856 58.2856 71.5915 58.2096 71.6131 58.1375C71.6348 58.0654 71.6718 57.9987 71.7215 57.9422C71.7712 57.8856 71.8326 57.8404 71.9013 57.8097C71.9701 57.779 72.0447 57.7635 72.12 57.7642C72.195 57.764 72.2691 57.78 72.3374 57.811C72.4057 57.8419 72.4665 57.8872 72.5158 57.9437C72.5651 58.0002 72.6017 58.0666 72.6231 58.1385C72.6445 58.2103 72.6503 58.2859 72.64 58.3602L72.484 59.5242L73.436 58.8002C73.4956 58.7549 73.5642 58.7229 73.6372 58.7062C73.7101 58.6895 73.7858 58.6884 73.8592 58.7032C73.9326 58.7179 74.002 58.7481 74.0628 58.7917C74.1236 58.8354 74.1745 58.8914 74.212 58.9562V58.9762C74.2497 59.0411 74.2731 59.1133 74.2807 59.1879C74.2883 59.2626 74.2799 59.338 74.2561 59.4092C74.2322 59.4803 74.1935 59.5456 74.1424 59.6006C74.0914 59.6556 74.0292 59.6991 73.96 59.7282L72.868 60.1882L73.96 60.6442C74.0292 60.6733 74.0914 60.7168 74.1424 60.7718C74.1935 60.8268 74.2322 60.892 74.2561 60.9632C74.2799 61.0343 74.2883 61.1098 74.2807 61.1844C74.2731 61.2591 74.2497 61.3313 74.212 61.3962V61.4202C74.1764 61.4845 74.1277 61.5407 74.0691 61.5851C74.0105 61.6295 73.9433 61.6612 73.8718 61.6782C73.8002 61.6951 73.7259 61.6969 73.6537 61.6835C73.5814 61.6701 73.5127 61.6417 73.452 61.6002Z" fill="#263238"/>
<path d="M81.936 61.6L80.984 60.876L81.14 62.04C81.1496 62.1147 81.1433 62.1906 81.1214 62.2626C81.0995 62.3347 81.0626 62.4012 81.0131 62.458C80.9635 62.5147 80.9025 62.5602 80.8341 62.5916C80.7656 62.623 80.6913 62.6395 80.616 62.64C80.5408 62.6396 80.4666 62.6231 80.3984 62.5917C80.3301 62.5602 80.2693 62.5146 80.2201 62.4578C80.1708 62.401 80.1343 62.3344 80.1129 62.2623C80.0915 62.1902 80.0857 62.1145 80.096 62.04L80.248 60.876L79.3 61.6C79.2406 61.6454 79.1723 61.6777 79.0995 61.6947C79.0267 61.7117 78.9511 61.7131 78.8778 61.6987C78.8044 61.6844 78.7349 61.6546 78.674 61.6114C78.613 61.5681 78.5619 61.5124 78.524 61.448V61.424C78.4863 61.3591 78.4629 61.2869 78.4553 61.2123C78.4477 61.1376 78.4561 61.0622 78.4799 60.991C78.5038 60.9198 78.5425 60.8546 78.5935 60.7996C78.6446 60.7446 78.7068 60.7011 78.776 60.672L79.864 60.216L78.776 59.756C78.7068 59.7269 78.6446 59.6834 78.5935 59.6284C78.5425 59.5734 78.5038 59.5082 78.4799 59.437C78.4561 59.3658 78.4477 59.2904 78.4553 59.2157C78.4629 59.1411 78.4863 59.0689 78.524 59.004V58.984C78.5615 58.9192 78.6124 58.8632 78.6732 58.8196C78.734 58.7759 78.8034 58.7458 78.8768 58.731C78.9502 58.7163 79.0259 58.7173 79.0988 58.734C79.1718 58.7507 79.2404 58.7828 79.3 58.828L80.248 59.552L80.096 58.388C80.0857 58.3137 80.0914 58.2381 80.1129 58.1663C80.1343 58.0944 80.1709 58.028 80.2202 57.9715C80.2695 57.915 80.3303 57.8697 80.3986 57.8388C80.4669 57.8078 80.541 57.7919 80.616 57.792C80.6911 57.7919 80.7654 57.8079 80.8338 57.8388C80.9023 57.8698 80.9633 57.915 81.0129 57.9714C81.0625 58.0278 81.0995 58.0941 81.1214 58.166C81.1433 58.2378 81.1497 58.3135 81.14 58.388L80.984 59.552L81.936 58.828C81.9953 58.7828 82.0636 58.7508 82.1362 58.7341C82.2089 58.7174 82.2842 58.7164 82.3573 58.7312C82.4304 58.746 82.4995 58.7762 82.5599 58.8198C82.6204 58.8633 82.6709 58.9193 82.708 58.984V59.004C82.7457 59.0689 82.7691 59.1411 82.7767 59.2157C82.7843 59.2904 82.7759 59.3658 82.7521 59.437C82.7282 59.5082 82.6895 59.5734 82.6384 59.6284C82.5874 59.6834 82.5252 59.7269 82.456 59.756L81.364 60.216L82.456 60.672C82.5252 60.7011 82.5874 60.7446 82.6384 60.7996C82.6895 60.8546 82.7282 60.9198 82.7521 60.991C82.7759 61.0622 82.7843 61.1376 82.7767 61.2123C82.7691 61.2869 82.7457 61.3591 82.708 61.424V61.448C82.6705 61.5123 82.6198 61.568 82.5592 61.6112C82.4985 61.6544 82.4294 61.6841 82.3564 61.6985C82.2833 61.7129 82.208 61.7116 82.1356 61.6946C82.0631 61.6776 81.995 61.6453 81.936 61.6Z" fill="#263238"/>
<path d="M90.4 61.6L89.452 60.876L89.608 62.04C89.6176 62.1147 89.6113 62.1906 89.5894 62.2626C89.5675 62.3347 89.5306 62.4012 89.4811 62.458C89.4315 62.5147 89.3705 62.5602 89.3021 62.5916C89.2336 62.623 89.1593 62.6395 89.084 62.64C89.0087 62.6395 88.9344 62.623 88.8659 62.5916C88.7975 62.5602 88.7365 62.5147 88.6869 62.458C88.6374 62.4012 88.6005 62.3347 88.5786 62.2626C88.5567 62.1906 88.5504 62.1147 88.56 62.04L88.716 60.876L87.784 61.6C87.7246 61.6454 87.6563 61.6777 87.5835 61.6947C87.5107 61.7117 87.4351 61.7131 87.3618 61.6987C87.2884 61.6844 87.219 61.6546 87.158 61.6114C87.097 61.5681 87.0459 61.5124 87.008 61.448V61.424C86.9703 61.3591 86.9469 61.2869 86.9393 61.2122C86.9317 61.1376 86.9401 61.0622 86.9639 60.991C86.9878 60.9198 87.0265 60.8546 87.0776 60.7996C87.1286 60.7446 87.1908 60.7011 87.26 60.672L88.352 60.216L87.26 59.756C87.1908 59.7269 87.1286 59.6834 87.0776 59.6284C87.0265 59.5734 86.9878 59.5082 86.9639 59.437C86.9401 59.3658 86.9317 59.2904 86.9393 59.2157C86.9469 59.1411 86.9703 59.0689 87.008 59.004V58.984C87.0455 58.9192 87.0964 58.8632 87.1572 58.8196C87.218 58.7759 87.2874 58.7458 87.3608 58.731C87.4342 58.7163 87.5099 58.7173 87.5828 58.734C87.6558 58.7507 87.7244 58.7828 87.784 58.828L88.732 59.552L88.576 58.388C88.5663 58.3135 88.5727 58.2378 88.5946 58.166C88.6165 58.0941 88.6535 58.0278 88.7031 57.9714C88.7527 57.915 88.8137 57.8698 88.8822 57.8388C88.9506 57.8079 89.0249 57.7919 89.1 57.792C89.1751 57.7919 89.2494 57.8079 89.3178 57.8388C89.3863 57.8698 89.4473 57.915 89.4969 57.9714C89.5465 58.0278 89.5835 58.0941 89.6054 58.166C89.6274 58.2378 89.6337 58.3135 89.624 58.388L89.468 59.552L90.4 58.8C90.4596 58.7548 90.5282 58.7227 90.6012 58.706C90.6741 58.6893 90.7498 58.6883 90.8232 58.703C90.8966 58.7178 90.966 58.7479 91.0268 58.7916C91.0876 58.8352 91.1385 58.8912 91.176 58.956V58.976C91.2145 59.0405 91.2386 59.1125 91.2469 59.1871C91.2551 59.2618 91.2472 59.3373 91.2237 59.4086C91.2001 59.4799 91.1616 59.5453 91.1106 59.6004C91.0595 59.6556 90.9973 59.6991 90.928 59.728L89.836 60.188L90.924 60.644C90.9932 60.6731 91.0554 60.7166 91.1065 60.7716C91.1575 60.8266 91.1962 60.8918 91.2201 60.963C91.2439 61.0342 91.2523 61.1096 91.2447 61.1842C91.2371 61.2589 91.2137 61.3311 91.176 61.396V61.42C91.1406 61.4867 91.0913 61.545 91.0314 61.591C90.9716 61.637 90.9025 61.6696 90.829 61.6867C90.7554 61.7037 90.6791 61.7048 90.6051 61.6899C90.5311 61.6749 90.4612 61.6443 90.4 61.6Z" fill="#263238"/>
<path d="M98.9 61.6L97.948 60.876L98.104 62.04C98.1142 62.1145 98.1085 62.1903 98.0871 62.2623C98.0657 62.3344 98.0292 62.401 97.9799 62.4578C97.9307 62.5146 97.8699 62.5603 97.8016 62.5917C97.7333 62.6231 97.6592 62.6396 97.584 62.64C97.5085 62.6402 97.4338 62.6241 97.3651 62.5929C97.2963 62.5617 97.235 62.5162 97.1854 62.4593C97.1357 62.4025 97.0988 62.3356 97.0772 62.2633C97.0556 62.1909 97.0497 62.1148 97.06 62.04L97.216 60.876L96.264 61.6C96.2046 61.6454 96.1363 61.6777 96.0635 61.6947C95.9907 61.7117 95.9151 61.7131 95.8418 61.6987C95.7684 61.6844 95.6989 61.6546 95.638 61.6114C95.577 61.5682 95.5258 61.5125 95.488 61.448V61.424C95.4503 61.3591 95.4269 61.2869 95.4193 61.2123C95.4116 61.1376 95.42 61.0622 95.4439 60.991C95.4677 60.9199 95.5065 60.8546 95.5575 60.7996C95.6086 60.7446 95.6708 60.7011 95.74 60.672L96.832 60.216L95.74 59.756C95.6708 59.7269 95.6086 59.6834 95.5575 59.6284C95.5065 59.5734 95.4677 59.5082 95.4439 59.437C95.42 59.3659 95.4116 59.2904 95.4193 59.2158C95.4269 59.1411 95.4503 59.0689 95.488 59.004V58.984C95.5255 58.9193 95.5764 58.8632 95.6372 58.8196C95.698 58.776 95.7674 58.7458 95.8408 58.731C95.9142 58.7163 95.9899 58.7173 96.0628 58.734C96.1358 58.7507 96.2044 58.7828 96.264 58.828L97.216 59.552L97.06 58.388C97.0496 58.3134 97.0555 58.2375 97.0771 58.1653C97.0988 58.0932 97.1358 58.0266 97.1855 57.97C97.2352 57.9134 97.2966 57.8683 97.3653 57.8375C97.4341 57.8068 97.5087 57.7913 97.584 57.792C97.659 57.7919 97.7331 57.8078 97.8014 57.8388C97.8697 57.8698 97.9305 57.915 97.9798 57.9715C98.0291 58.028 98.0657 58.0944 98.0871 58.1663C98.1085 58.2381 98.1143 58.3138 98.104 58.388L97.948 59.552L98.9 58.828C98.9596 58.7828 99.0282 58.7507 99.1011 58.734C99.1741 58.7173 99.2498 58.7163 99.3232 58.731C99.3966 58.7458 99.466 58.776 99.5268 58.8196C99.5876 58.8632 99.6385 58.9193 99.676 58.984V59.004C99.7137 59.0689 99.7371 59.1411 99.7447 59.2158C99.7523 59.2904 99.7439 59.3659 99.7201 59.437C99.6962 59.5082 99.6575 59.5734 99.6064 59.6284C99.5554 59.6834 99.4932 59.7269 99.424 59.756L98.336 60.216L99.424 60.672C99.4932 60.7011 99.5554 60.7446 99.6064 60.7996C99.6575 60.8546 99.6962 60.9199 99.7201 60.991C99.7439 61.0622 99.7523 61.1376 99.7447 61.2123C99.7371 61.2869 99.7137 61.3591 99.676 61.424V61.448C99.6381 61.5125 99.587 61.5682 99.526 61.6114C99.465 61.6546 99.3956 61.6844 99.3222 61.6987C99.2489 61.7131 99.1733 61.7117 99.1005 61.6947C99.0277 61.6777 98.9594 61.6454 98.9 61.6Z" fill="#263238"/>
<path d="M107.384 61.6L106.432 60.876L106.588 62.04C106.598 62.1147 106.591 62.1906 106.569 62.2626C106.547 62.3347 106.511 62.4012 106.461 62.458C106.412 62.5147 106.35 62.5602 106.282 62.5916C106.214 62.623 106.139 62.6395 106.064 62.64C105.989 62.6396 105.915 62.6231 105.846 62.5917C105.778 62.5602 105.717 62.5146 105.668 62.4578C105.619 62.401 105.582 62.3344 105.561 62.2623C105.539 62.1902 105.534 62.1145 105.544 62.04L105.696 60.876L104.748 61.6C104.689 61.6454 104.62 61.6777 104.547 61.6947C104.475 61.7117 104.399 61.7131 104.326 61.6987C104.252 61.6844 104.183 61.6546 104.122 61.6114C104.061 61.5681 104.01 61.5124 103.972 61.448V61.424C103.934 61.3591 103.911 61.2869 103.903 61.2123C103.896 61.1376 103.904 61.0622 103.928 60.991C103.952 60.9198 103.99 60.8546 104.042 60.7996C104.093 60.7446 104.155 60.7011 104.224 60.672L105.312 60.216L104.224 59.756C104.155 59.7269 104.093 59.6834 104.042 59.6284C103.99 59.5734 103.952 59.5082 103.928 59.437C103.904 59.3658 103.896 59.2904 103.903 59.2157C103.911 59.1411 103.934 59.0689 103.972 59.004V58.984C104.009 58.9192 104.06 58.8632 104.121 58.8196C104.182 58.7759 104.251 58.7458 104.325 58.731C104.398 58.7163 104.474 58.7173 104.547 58.734C104.62 58.7507 104.688 58.7828 104.748 58.828L105.696 59.552L105.544 58.388C105.534 58.3137 105.539 58.2381 105.561 58.1663C105.582 58.0944 105.619 58.028 105.668 57.9715C105.717 57.915 105.778 57.8697 105.847 57.8388C105.915 57.8078 105.989 57.7919 106.064 57.792C106.139 57.7919 106.213 57.8079 106.282 57.8388C106.35 57.8698 106.411 57.915 106.461 57.9714C106.511 58.0278 106.547 58.0941 106.569 58.166C106.591 58.2378 106.598 58.3135 106.588 58.388L106.432 59.552L107.384 58.828C107.443 58.7828 107.512 58.7508 107.584 58.7341C107.657 58.7174 107.732 58.7164 107.805 58.7312C107.878 58.746 107.947 58.7762 108.008 58.8198C108.068 58.8633 108.119 58.9193 108.156 58.984V59.004C108.194 59.0689 108.217 59.1411 108.225 59.2157C108.232 59.2904 108.224 59.3658 108.2 59.437C108.176 59.5082 108.137 59.5734 108.086 59.6284C108.035 59.6834 107.973 59.7269 107.904 59.756L106.812 60.216L107.904 60.672C107.973 60.7011 108.035 60.7446 108.086 60.7996C108.137 60.8546 108.176 60.9198 108.2 60.991C108.224 61.0622 108.232 61.1376 108.225 61.2123C108.217 61.2869 108.194 61.3591 108.156 61.424V61.448C108.119 61.5123 108.068 61.568 108.007 61.6112C107.947 61.6544 107.877 61.6841 107.804 61.6985C107.731 61.7129 107.656 61.7116 107.584 61.6946C107.511 61.6776 107.443 61.6453 107.384 61.6Z" fill="#263238"/>
<path d="M121.564 60.2C121.564 60.2 119.836 62.356 117.704 62.356C115.572 62.356 113.848 60.2 113.848 60.2C113.848 60.2 115.572 58.04 117.704 58.04C119.836 58.04 121.564 60.2 121.564 60.2Z" fill="white" stroke="#263238" stroke-linecap="round" stroke-linejoin="round"/>
<path d="M119.032 60.2001C119.032 60.4627 118.954 60.7195 118.808 60.9379C118.662 61.1563 118.455 61.3265 118.212 61.427C117.97 61.5275 117.703 61.5538 117.445 61.5026C117.187 61.4513 116.951 61.3248 116.765 61.1391C116.579 60.9534 116.453 60.7168 116.401 60.4592C116.35 60.2015 116.377 59.9345 116.477 59.6919C116.578 59.4492 116.748 59.2418 116.966 59.0959C117.185 58.95 117.441 58.8721 117.704 58.8721C118.056 58.8721 118.394 59.012 118.643 59.261C118.892 59.5101 119.032 59.8479 119.032 60.2001Z" fill="#999999" stroke="#263238" stroke-linecap="round" stroke-linejoin="round"/>
<path d="M77.792 73.4482H74.284C73.407 73.4482 72.696 74.1592 72.696 75.0362V79.5562C72.696 80.4333 73.407 81.1442 74.284 81.1442H77.792C78.669 81.1442 79.38 80.4333 79.38 79.5562V75.0362C79.38 74.1592 78.669 73.4482 77.792 73.4482Z" fill="#50B780" stroke="#263238" stroke-linecap="round" stroke-linejoin="round"/>
<path d="M85.248 73.4482H81.74C80.863 73.4482 80.152 74.1592 80.152 75.0362V79.5562C80.152 80.4333 80.863 81.1442 81.74 81.1442H85.248C86.125 81.1442 86.836 80.4333 86.836 79.5562V75.0362C86.836 74.1592 86.125 73.4482 85.248 73.4482Z" fill="#50B780" stroke="#263238" stroke-linecap="round" stroke-linejoin="round"/>
<path d="M92.7 73.4482H89.192C88.315 73.4482 87.604 74.1592 87.604 75.0362V79.5562C87.604 80.4333 88.315 81.1442 89.192 81.1442H92.7C93.577 81.1442 94.288 80.4333 94.288 79.5562V75.0362C94.288 74.1592 93.577 73.4482 92.7 73.4482Z" fill="#50B780" stroke="#263238" stroke-linecap="round" stroke-linejoin="round"/>
<path d="M100.152 73.4482H96.644C95.767 73.4482 95.056 74.1592 95.056 75.0362V79.5562C95.056 80.4333 95.767 81.1442 96.644 81.1442H100.152C101.029 81.1442 101.74 80.4333 101.74 79.5562V75.0362C101.74 74.1592 101.029 73.4482 100.152 73.4482Z" fill="#50B780" stroke="#263238" stroke-linecap="round" stroke-linejoin="round"/>
<path d="M107.608 73.4482H104.1C103.223 73.4482 102.512 74.1592 102.512 75.0362V79.5562C102.512 80.4333 103.223 81.1442 104.1 81.1442H107.608C108.485 81.1442 109.196 80.4333 109.196 79.5562V75.0362C109.196 74.1592 108.485 73.4482 107.608 73.4482Z" fill="#50B780" stroke="#263238" stroke-linecap="round" stroke-linejoin="round"/>
<path d="M115.06 73.4482H111.552C110.675 73.4482 109.964 74.1592 109.964 75.0362V79.5562C109.964 80.4333 110.675 81.1442 111.552 81.1442H115.06C115.937 81.1442 116.648 80.4333 116.648 79.5562V75.0362C116.648 74.1592 115.937 73.4482 115.06 73.4482Z" fill="#50B780" stroke="#263238" stroke-linecap="round" stroke-linejoin="round"/>
<path d="M81.52 82.3682H78.012C77.135 82.3682 76.424 83.0791 76.424 83.9562V88.4762C76.424 89.3532 77.135 90.0642 78.012 90.0642H81.52C82.397 90.0642 83.108 89.3532 83.108 88.4762V83.9562C83.108 83.0791 82.397 82.3682 81.52 82.3682Z" fill="#50B780" stroke="#263238" stroke-linecap="round" stroke-linejoin="round"/>
<path d="M88.972 82.3682H85.464C84.587 82.3682 83.876 83.0791 83.876 83.9562V88.4762C83.876 89.3532 84.587 90.0642 85.464 90.0642H88.972C89.849 90.0642 90.56 89.3532 90.56 88.4762V83.9562C90.56 83.0791 89.849 82.3682 88.972 82.3682Z" fill="#50B780" stroke="#263238" stroke-linecap="round" stroke-linejoin="round"/>
<path d="M96.428 82.3682H92.92C92.043 82.3682 91.332 83.0791 91.332 83.9562V88.4762C91.332 89.3532 92.043 90.0642 92.92 90.0642H96.428C97.305 90.0642 98.016 89.3532 98.016 88.4762V83.9562C98.016 83.0791 97.305 82.3682 96.428 82.3682Z" fill="#50B780" stroke="#263238" stroke-linecap="round" stroke-linejoin="round"/>
<path d="M103.88 82.3682H100.372C99.495 82.3682 98.784 83.0791 98.784 83.9562V88.4762C98.784 89.3532 99.495 90.0642 100.372 90.0642H103.88C104.757 90.0642 105.468 89.3532 105.468 88.4762V83.9562C105.468 83.0791 104.757 82.3682 103.88 82.3682Z" fill="#50B780" stroke="#263238" stroke-linecap="round" stroke-linejoin="round"/>
<path d="M111.332 82.3682H107.824C106.947 82.3682 106.236 83.0791 106.236 83.9562V88.4762C106.236 89.3532 106.947 90.0642 107.824 90.0642H111.332C112.209 90.0642 112.92 89.3532 112.92 88.4762V83.9562C112.92 83.0791 112.209 82.3682 111.332 82.3682Z" fill="#50B780" stroke="#263238" stroke-linecap="round" stroke-linejoin="round"/>
<path d="M77.792 91.2881H74.284C73.407 91.2881 72.696 91.9991 72.696 92.8761V97.3961C72.696 98.2731 73.407 98.9841 74.284 98.9841H77.792C78.669 98.9841 79.38 98.2731 79.38 97.3961V92.8761C79.38 91.9991 78.669 91.2881 77.792 91.2881Z" fill="#50B780" stroke="#263238" stroke-linecap="round" stroke-linejoin="round"/>
<path d="M85.248 91.2881H81.74C80.863 91.2881 80.152 91.9991 80.152 92.8761V97.3961C80.152 98.2731 80.863 98.9841 81.74 98.9841H85.248C86.125 98.9841 86.836 98.2731 86.836 97.3961V92.8761C86.836 91.9991 86.125 91.2881 85.248 91.2881Z" fill="#50B780" stroke="#263238" stroke-linecap="round" stroke-linejoin="round"/>
<path d="M92.7 91.2881H89.192C88.315 91.2881 87.604 91.9991 87.604 92.8761V97.3961C87.604 98.2731 88.315 98.9841 89.192 98.9841H92.7C93.577 98.9841 94.288 98.2731 94.288 97.3961V92.8761C94.288 91.9991 93.577 91.2881 92.7 91.2881Z" fill="#50B780" stroke="#263238" stroke-linecap="round" stroke-linejoin="round"/>
<path d="M100.152 91.2881H96.644C95.767 91.2881 95.056 91.9991 95.056 92.8761V97.3961C95.056 98.2731 95.767 98.9841 96.644 98.9841H100.152C101.029 98.9841 101.74 98.2731 101.74 97.3961V92.8761C101.74 91.9991 101.029 91.2881 100.152 91.2881Z" fill="#50B780" stroke="#263238" stroke-linecap="round" stroke-linejoin="round"/>
<path d="M107.608 91.2881H104.1C103.223 91.2881 102.512 91.9991 102.512 92.8761V97.3961C102.512 98.2731 103.223 98.9841 104.1 98.9841H107.608C108.485 98.9841 109.196 98.2731 109.196 97.3961V92.8761C109.196 91.9991 108.485 91.2881 107.608 91.2881Z" fill="#50B780" stroke="#263238" stroke-linecap="round" stroke-linejoin="round"/>
<path d="M115.06 91.2881H111.552C110.675 91.2881 109.964 91.9991 109.964 92.8761V97.3961C109.964 98.2731 110.675 98.9841 111.552 98.9841H115.06C115.937 98.9841 116.648 98.2731 116.648 97.3961V92.8761C116.648 91.9991 115.937 91.2881 115.06 91.2881Z" fill="#50B780" stroke="#263238" stroke-linecap="round" stroke-linejoin="round"/>
<path d="M81.52 100.208H78.012C77.135 100.208 76.424 100.919 76.424 101.796V106.316C76.424 107.193 77.135 107.904 78.012 107.904H81.52C82.397 107.904 83.108 107.193 83.108 106.316V101.796C83.108 100.919 82.397 100.208 81.52 100.208Z" fill="#50B780" stroke="#263238" stroke-linecap="round" stroke-linejoin="round"/>
<path d="M88.972 100.208H85.464C84.587 100.208 83.876 100.919 83.876 101.796V106.316C83.876 107.193 84.587 107.904 85.464 107.904H88.972C89.849 107.904 90.56 107.193 90.56 106.316V101.796C90.56 100.919 89.849 100.208 88.972 100.208Z" fill="#50B780" stroke="#263238" stroke-linecap="round" stroke-linejoin="round"/>
<path d="M96.428 100.208H92.92C92.043 100.208 91.332 100.919 91.332 101.796V106.316C91.332 107.193 92.043 107.904 92.92 107.904H96.428C97.305 107.904 98.016 107.193 98.016 106.316V101.796C98.016 100.919 97.305 100.208 96.428 100.208Z" fill="#50B780" stroke="#263238" stroke-linecap="round" stroke-linejoin="round"/>
<path d="M103.88 100.208H100.372C99.495 100.208 98.784 100.919 98.784 101.796V106.316C98.784 107.193 99.495 107.904 100.372 107.904H103.88C104.757 107.904 105.468 107.193 105.468 106.316V101.796C105.468 100.919 104.757 100.208 103.88 100.208Z" fill="#50B780" stroke="#263238" stroke-linecap="round" stroke-linejoin="round"/>
<path d="M111.332 100.208H107.824C106.947 100.208 106.236 100.919 106.236 101.796V106.316C106.236 107.193 106.947 107.904 107.824 107.904H111.332C112.209 107.904 112.92 107.193 112.92 106.316V101.796C112.92 100.919 112.209 100.208 111.332 100.208Z" fill="#50B780" stroke="#263238" stroke-linecap="round" stroke-linejoin="round"/>
<path d="M104.415 42.9196C107.301 37.4838 105.235 30.7372 99.7991 27.8506C94.3633 24.964 87.6167 27.0305 84.7301 32.4663C81.8436 37.902 83.9101 44.6486 89.3458 47.5352C94.7816 50.4218 101.528 48.3553 104.415 42.9196Z" fill="white" stroke="#263238" stroke-linecap="round" stroke-linejoin="round"/>
<path d="M94.572 48.8323C97.0075 48.8374 99.3766 48.0388 101.312 46.5603C98.7 45.5907 95.9381 45.0871 93.152 45.0723C91.1563 45.0876 89.1781 45.4462 87.304 46.1323C89.3237 47.876 91.9037 48.8344 94.572 48.8323Z" fill="#50B780" stroke="#263238" stroke-linecap="round" stroke-linejoin="round"/>
<path d="M91.572 42.6601C91.572 42.6601 91.476 39.0281 90.456 36.3721C89.436 33.7161 88.856 29.7921 92.748 29.2481C96.64 28.7041 98.18 29.3481 100.408 29.1721C104.688 28.8401 99.972 33.7561 99.972 33.7561L94.24 36.0001C94.24 36.0001 92.252 42.8361 91.572 42.6601Z" fill="#263238" stroke="#263238" stroke-linecap="round" stroke-linejoin="round"/>
<path d="M91.312 43.7161L92.324 39.6001L95.124 40.4481L95.968 43.8001C96.0469 44.1208 96.1952 44.4204 96.4026 44.6775C96.6099 44.9346 96.8712 45.143 97.168 45.2881C97.5902 45.4842 97.9922 45.7213 98.368 45.9961C98.368 45.9961 95.032 50.2721 88.628 45.9961C89.0517 45.6876 89.511 45.4311 89.996 45.2321C90.3195 45.1014 90.6075 44.8958 90.8362 44.6323C91.065 44.3688 91.228 44.0548 91.312 43.7161Z" fill="white"/>
<mask id="mask3_207_14693" style="mask-type:luminance" maskUnits="userSpaceOnUse" x="88" y="39" width="11" height="9">
<path d="M91.312 43.7161L92.324 39.6001L95.124 40.4481L95.968 43.8001C96.0469 44.1208 96.1952 44.4204 96.4026 44.6775C96.6099 44.9346 96.8712 45.143 97.168 45.2881C97.5902 45.4842 97.9922 45.7213 98.368 45.9961C98.368 45.9961 95.032 50.2721 88.628 45.9961C89.0517 45.6876 89.511 45.4311 89.996 45.2321C90.3195 45.1014 90.6075 44.8958 90.8362 44.6323C91.065 44.3688 91.228 44.0548 91.312 43.7161Z" fill="white"/>
</mask>
<g mask="url(#mask3_207_14693)">
<path d="M100.06 33.8839L100.428 36.3359C100.465 36.5947 100.443 36.8586 100.364 37.1079L100.152 37.7759L100.276 39.3759C100.282 39.4584 100.282 39.5413 100.276 39.6239C100.22 40.4239 99.824 44.3519 97.476 44.5319C95.384 44.6919 93.296 42.5319 92.556 41.5079C92.371 41.2526 92.2354 40.965 92.156 40.6599L91.84 39.4159C91.5419 39.4138 91.2522 39.3176 91.0122 39.1408C90.7722 38.964 90.5943 38.7159 90.504 38.4319C90.188 37.4279 89.664 36.7799 90.68 36.2799C91.696 35.7799 92.048 37.1999 92.048 37.1999C92.048 37.1999 92.312 35.5479 92.592 35.0759C92.872 34.6039 93.736 34.1559 94 33.7519C94.1492 33.4312 94.2697 33.0979 94.36 32.7559C94.36 32.7559 97.452 33.3519 99.8 32.8759L100.06 33.8839Z" fill="#263238" stroke="#263238" stroke-linecap="round" stroke-linejoin="round"/>
</g>
<path d="M91.312 43.7161L92.324 39.6001L95.124 40.4481L95.968 43.8001C96.0469 44.1208 96.1952 44.4204 96.4026 44.6775C96.6099 44.9346 96.8712 45.143 97.168 45.2881C97.5902 45.4842 97.9922 45.7213 98.368 45.9961C98.368 45.9961 95.032 50.2721 88.628 45.9961C89.0517 45.6876 89.511 45.4311 89.996 45.2321C90.3195 45.1014 90.6075 44.8958 90.8362 44.6323C91.065 44.3688 91.228 44.0548 91.312 43.7161Z" stroke="#263238" stroke-linecap="round" stroke-linejoin="round"/>
<path d="M100.06 33.4484L100.428 35.9004C100.465 36.1593 100.443 36.4231 100.364 36.6724L100.152 37.3404L100.276 38.9404C100.282 39.0243 100.282 39.1085 100.276 39.1924C100.22 39.9924 99.824 43.9204 97.476 44.1004C95.384 44.2604 93.296 42.1004 92.556 41.0764C92.3718 40.8206 92.2363 40.5332 92.156 40.2284L91.84 38.9844C91.5406 38.9841 91.249 38.8886 91.0075 38.7117C90.7659 38.5348 90.5868 38.2857 90.496 38.0004C90.18 36.9964 89.656 36.3484 90.672 35.8484C91.688 35.3484 92.048 36.7604 92.048 36.7604C92.048 36.7604 92.312 35.1084 92.592 34.6364C92.872 34.1644 93.736 33.7164 94 33.3124C94.1492 32.9917 94.2697 32.6584 94.36 32.3164C94.36 32.3164 97.452 32.9124 99.8 32.4364L100.06 33.4484Z" fill="white" stroke="#263238" stroke-linecap="round" stroke-linejoin="round"/>
<path d="M98.4 37.54L99.168 39.396C99.196 39.4565 99.2084 39.5229 99.2042 39.5893C99.2 39.6558 99.1793 39.7201 99.1439 39.7765C99.1086 39.8329 99.0597 39.8796 99.0017 39.9124C98.9438 39.9451 98.8786 39.9629 98.812 39.964L97.856 40.028" stroke="#263238" stroke-width="0.75" stroke-linecap="round" stroke-linejoin="round"/>
<path d="M96.02 40.7202C96.0968 40.8783 96.2074 41.0175 96.3439 41.1282C96.4804 41.2388 96.6396 41.3181 96.8101 41.3604C96.9807 41.4028 97.1585 41.4072 97.3309 41.3733C97.5033 41.3394 97.6662 41.268 97.808 41.1642" stroke="#263238" stroke-width="0.75" stroke-linecap="round" stroke-linejoin="round"/>
<path d="M96 30.5201C91.856 30.0481 91.092 31.6841 91.092 31.6841" stroke="#7F7F7F" stroke-width="0.75" stroke-linecap="round" stroke-linejoin="round"/>
<path d="M100.548 30.0684C99.3584 30.3658 98.1381 30.5228 96.912 30.5364" stroke="#7F7F7F" stroke-width="0.75" stroke-linecap="round" stroke-linejoin="round"/>
<path d="M96.8 31.7123C97.98 31.7123 100.364 31.4923 101.316 30.4043" stroke="#7F7F7F" stroke-width="0.75" stroke-linecap="round" stroke-linejoin="round"/>
<path d="M95.056 31.5122C95.3619 31.5822 95.6718 31.6329 95.984 31.6642" stroke="#7F7F7F" stroke-width="0.75" stroke-linecap="round" stroke-linejoin="round"/>
<path d="M96.736 37.2723C96.736 37.5923 96.608 37.8483 96.448 37.8483C96.288 37.8483 96.16 37.5923 96.16 37.2723C96.16 36.9523 96.292 36.6963 96.448 36.6963C96.604 36.6963 96.736 36.9563 96.736 37.2723Z" fill="#263238"/>
<path d="M99.448 37.2002C99.448 37.4762 99.336 37.7002 99.2 37.7002C99.064 37.7002 98.948 37.4762 98.948 37.2002C98.948 36.9242 99.06 36.7002 99.2 36.7002C99.34 36.7002 99.448 36.9202 99.448 37.2002Z" fill="#263238"/>
<path d="M95.508 36.4244C95.508 36.4244 95.852 35.3964 96.448 35.4244C96.6319 35.4418 96.8083 35.5061 96.9603 35.6112C97.1122 35.7162 97.2347 35.8585 97.316 36.0244" stroke="#263238" stroke-width="0.75" stroke-linecap="round" stroke-linejoin="round"/>
<path d="M99.636 36.0003C99.524 35.7243 99.352 35.4123 99.124 35.4283C98.724 35.4523 98.528 36.0283 98.528 36.0283" stroke="#263238" stroke-width="0.75" stroke-linecap="round" stroke-linejoin="round"/>
<path d="M37.636 84.5681C38.436 82.6241 36.48 76.7441 35.604 74.3321C35.5531 74.1926 35.4687 74.0677 35.3583 73.9683C35.2479 73.869 35.1148 73.7982 34.9707 73.7623C34.8266 73.7264 34.6758 73.7264 34.5317 73.7622C34.3876 73.7981 34.2544 73.8688 34.144 73.9681C33.344 74.6761 32.388 76.0521 32.228 78.6041C32.228 78.6041 26.124 89.3521 26.124 94.2561C26.124 98.8521 35.212 108.424 35.212 108.424C36.2367 108.106 37.1028 107.411 37.636 106.48C37.636 106.48 34.24 98.0801 31.604 94.4801C31.6 94.4841 36.736 86.7201 37.636 84.5681Z" fill="#263238"/>
<mask id="mask4_207_14693" style="mask-type:luminance" maskUnits="userSpaceOnUse" x="26" y="73" width="12" height="36">
<path d="M37.636 84.5681C38.436 82.6241 36.48 76.7441 35.604 74.3321C35.5531 74.1926 35.4687 74.0677 35.3583 73.9683C35.2479 73.869 35.1148 73.7982 34.9707 73.7623C34.8266 73.7264 34.6758 73.7264 34.5317 73.7622C34.3876 73.7981 34.2544 73.8688 34.144 73.9681C33.344 74.6761 32.388 76.0521 32.228 78.6041C32.228 78.6041 26.124 89.3521 26.124 94.2561C26.124 98.8521 35.212 108.424 35.212 108.424C36.2367 108.106 37.1028 107.411 37.636 106.48C37.636 106.48 34.24 98.0801 31.604 94.4801C31.6 94.4841 36.736 86.7201 37.636 84.5681Z" fill="white"/>
</mask>
<g mask="url(#mask4_207_14693)">
<path opacity="0.2" d="M36.616 87.7119C36.616 87.7119 33.708 81.5159 32.616 82.0719C31.524 82.6279 28.692 93.0759 29.776 94.7399C30.86 96.4039 36.772 108.152 38.252 107.916C39.732 107.68 36.616 87.7119 36.616 87.7119Z" fill="black"/>
</g>
<path d="M37.636 84.5681C38.436 82.6241 36.48 76.7441 35.604 74.3321C35.5531 74.1926 35.4687 74.0677 35.3583 73.9683C35.2479 73.869 35.1148 73.7982 34.9707 73.7623C34.8266 73.7264 34.6758 73.7264 34.5317 73.7622C34.3876 73.7981 34.2544 73.8688 34.144 73.9681C33.344 74.6761 32.388 76.0521 32.228 78.6041C32.228 78.6041 26.124 89.3521 26.124 94.2561C26.124 98.8521 35.212 108.424 35.212 108.424C36.2367 108.106 37.1028 107.411 37.636 106.48C37.636 106.48 34.24 98.0801 31.604 94.4801C31.6 94.4841 36.736 86.7201 37.636 84.5681Z" stroke="#263238" stroke-linecap="round" stroke-linejoin="round"/>
<path d="M36.864 105.72L38.236 107.916C38.236 107.916 42.508 109.252 42.952 110.664C43.396 112.076 41.208 114.044 39.908 113.648C38.608 113.252 36.488 109.332 36.488 109.332L34.76 107.332L36.864 105.72Z" fill="white" stroke="#263238" stroke-linecap="round" stroke-linejoin="round"/>
<path d="M34.172 107.868L35.096 108.932C36.3954 108.569 37.5062 107.722 38.2 106.564L37.64 105.232C37.64 105.232 36.852 107.08 34.172 107.868Z" fill="#50B780" stroke="#263238" stroke-linecap="round" stroke-linejoin="round"/>
<path d="M39.648 166.74L38.448 171.72C38.4081 171.887 38.4066 172.061 38.4434 172.228C38.4803 172.396 38.5547 172.553 38.6609 172.688C38.7671 172.822 38.9025 172.931 39.0568 173.006C39.2111 173.081 39.3804 173.12 39.552 173.12H46.56C46.726 173.12 46.89 173.084 47.0405 173.014C47.191 172.944 47.3245 172.842 47.4315 172.716C47.5386 172.589 47.6166 172.44 47.6602 172.28C47.7038 172.12 47.712 171.952 47.684 171.788C47.6298 171.414 47.4979 171.055 47.2967 170.735C47.0956 170.414 46.8296 170.14 46.516 169.928C44.916 168.888 44.156 165.632 44.156 165.632L39.648 166.74Z" fill="#263238" stroke="#263238" stroke-linecap="round" stroke-linejoin="round"/>
<path d="M56.916 167.572C56.916 167.572 55.784 169.2 55.6 172.104C55.594 172.235 55.6148 172.367 55.661 172.49C55.7071 172.613 55.7778 172.725 55.8687 172.82C55.9595 172.915 56.0687 172.991 56.1896 173.042C56.3105 173.094 56.4406 173.12 56.572 173.12H69C69.2426 173.121 69.4795 173.047 69.6779 172.908C69.8764 172.768 70.0265 172.57 70.1074 172.342C70.1883 172.113 70.196 171.865 70.1295 171.632C70.0629 171.398 69.9254 171.192 69.736 171.04C69.2071 170.647 68.5803 170.406 67.924 170.344C64.876 169.944 62.176 168.544 61.688 166.744L56.916 167.572Z" fill="#263238" stroke="#263238" stroke-linecap="round" stroke-linejoin="round"/>
<path d="M37.636 106.48C37.636 106.48 36.228 112.304 36.784 124.88L37.144 139.12C37.144 139.12 35.12 149.12 39.004 167.224C39.004 167.224 40.204 169.904 45.04 166.552L45.6 138.932L50.66 108.424L37.636 106.48Z" fill="#999999"/>
<mask id="mask5_207_14693" style="mask-type:luminance" maskUnits="userSpaceOnUse" x="36" y="106" width="15" height="63">
<path d="M37.636 106.48C37.636 106.48 36.228 112.304 36.784 124.88L37.144 139.12C37.144 139.12 35.12 149.12 39.004 167.224C39.004 167.224 40.204 169.904 45.04 166.552L45.6 138.932L50.66 108.424L37.636 106.48Z" fill="white"/>
</mask>
<g mask="url(#mask5_207_14693)">
<path opacity="0.2" d="M47.7 119.332C47.7 119.332 45.636 127.56 44.804 132.368C43.972 137.176 39.024 136.808 38.428 139.968C37.832 143.128 43.628 139.412 43.064 150.768C42.5 162.124 40.472 168.332 43.656 168.24C46.84 168.148 46.932 159.2 46.932 159.2L48.872 131.928V128.136L49.336 120.936L47.7 119.332Z" fill="black"/>
</g>
<path d="M37.636 106.48C37.636 106.48 36.228 112.304 36.784 124.88L37.144 139.12C37.144 139.12 35.12 149.12 39.004 167.224C39.004 167.224 40.204 169.904 45.04 166.552L45.6 138.932L50.66 108.424L37.636 106.48Z" stroke="#263238" stroke-linecap="round" stroke-linejoin="round"/>
<path d="M38.428 142.208C38.2128 142.493 38.0139 142.789 37.832 143.096" stroke="#263238" stroke-linecap="round" stroke-linejoin="round"/>
<path d="M38.68 139.072C38.68 139.072 43.32 137.964 43.636 139.072C43.908 140.036 41.4 138.904 38.924 141.608" stroke="#263238" stroke-linecap="round" stroke-linejoin="round"/>
<path d="M46.724 121.332C50.324 127.144 55.392 138.58 55.392 138.58C55.392 138.58 54.628 139.904 55.392 142.124C55.392 142.124 53.392 149.848 56.292 168.316C56.292 168.316 58.788 169.916 62.396 167.116C62.396 167.116 64.196 139.356 63.504 135.612C62.812 131.868 56.304 107.14 56.304 107.14H42" fill="#999999"/>
<mask id="mask6_207_14693" style="mask-type:luminance" maskUnits="userSpaceOnUse" x="42" y="107" width="22" height="62">
<path d="M46.724 121.332C50.324 127.144 55.392 138.58 55.392 138.58C55.392 138.58 54.628 139.904 55.392 142.124C55.392 142.124 53.392 149.848 56.292 168.316C56.292 168.316 58.788 169.916 62.396 167.116C62.396 167.116 64.196 139.356 63.504 135.612C62.812 131.868 56.304 107.14 56.304 107.14H42" fill="white"/>
</mask>
<g mask="url(#mask6_207_14693)">
<path opacity="0.2" d="M45.912 121.736C45.912 121.736 48.092 122.844 52.272 121.736C56.452 120.628 52.988 125.336 54.372 130.472C55.756 135.608 59.644 137.964 59.02 140.18C58.396 142.396 56.548 142.956 56.152 148.92C55.756 154.884 60.988 165.9 58.928 168.156C56.868 170.412 51.876 165.076 51.876 165.076L47.7 136.8L45.912 121.736Z" fill="black"/>
</g>
<path d="M46.724 121.332C50.324 127.144 55.392 138.58 55.392 138.58C55.392 138.58 54.628 139.904 55.392 142.124C55.392 142.124 53.392 149.848 56.292 168.316C56.292 168.316 58.788 169.916 62.396 167.116C62.396 167.116 64.196 139.356 63.504 135.612C62.812 131.868 56.304 107.14 56.304 107.14H42" stroke="#263238" stroke-linecap="round" stroke-linejoin="round"/>
<path d="M58.04 139.56C59.684 139.312 61.784 139.16 61.7 139.904C61.564 141.152 58.632 139.884 56.848 141.984" stroke="#263238" stroke-linecap="round" stroke-linejoin="round"/>
<path d="M56.152 139.904C56.152 139.904 56.44 139.84 56.884 139.756" stroke="#263238" stroke-linecap="round" stroke-linejoin="round"/>
<path d="M67.6 67.8883L67.86 65.2483C67.86 65.2483 67.34 62.5003 67.6 61.5683C67.86 60.6363 70.14 54.7283 70.864 54.9883C71.588 55.2483 69.776 58.4603 69.828 59.3883C69.828 59.3883 70.792 59.4403 71.028 60.0603C71.028 60.0603 71.944 60.2163 71.996 61.0443C72.2196 61.187 72.4003 61.3878 72.5186 61.6253C72.637 61.8627 72.6886 62.1278 72.668 62.3923C72.568 63.2723 70.804 65.6563 70.804 65.6563L70.908 69.0763L67.6 67.8883Z" fill="white" stroke="#263238" stroke-linecap="round" stroke-linejoin="round"/>
<path d="M52.264 63.4283C52.264 63.4283 51.244 61.4283 51.096 60.6763C50.988 60.1523 51.204 59.0763 51.096 58.5483C50.848 57.3283 49.14 53.9723 49.14 53.9723C49.0715 53.828 48.9667 53.704 48.836 53.6123L47.836 54.8443H45.124L40.98 60.3163L43.02 65.2283L42.424 65.9363C42.788 66.2963 43.02 66.5043 43.02 66.5043L42.424 70.0683L48.264 70.6603L48.4 68.4003H50.176C50.4157 68.4003 50.6457 68.3051 50.8152 68.1355C50.9847 67.966 51.08 67.7361 51.08 67.4963V64.4003L51.88 64.1683C51.9572 64.1504 52.0296 64.116 52.0922 64.0674C52.1548 64.0188 52.2061 63.9572 52.2426 63.8869C52.2791 63.8165 52.3 63.7391 52.3036 63.6599C52.3073 63.5808 52.2938 63.5017 52.264 63.4283Z" fill="white" stroke="#263238" stroke-linecap="round" stroke-linejoin="round"/>
<path d="M38.14 61.6482C40.492 65.1122 43.02 66.5042 43.02 66.5042L44.016 64.0282C44.016 64.0282 42.016 63.8162 42.316 61.8722C42.784 59.0042 45.116 61.5842 45.116 61.5842L45.62 59.3682C45.62 59.3682 46.864 58.0322 46.776 57.5642C46.7094 57.2243 46.6212 56.8889 46.512 56.5602C46.512 56.5602 51.012 52.2762 50.536 49.8882C50.536 49.8882 46.788 50.6482 42.316 51.4882C36.872 52.4722 35.484 57.7442 38.14 61.6482Z" fill="#263238" stroke="#263238" stroke-linecap="round" stroke-linejoin="round"/>
<path d="M50.192 68.4001C50.192 68.4001 47.06 67.8681 45.864 66.4001C44.668 64.9321 45.62 66.5041 46.18 67.4041C47.38 69.3281 48.4 68.4001 50.192 68.4001Z" fill="#263238"/>
<path d="M48.264 63.896C48.48 64.1406 48.7526 64.3286 49.058 64.4437C49.3634 64.5587 49.6923 64.5973 50.016 64.556" stroke="#263238" stroke-width="0.75" stroke-linecap="round" stroke-linejoin="round"/>
<path d="M50.544 60.068C50.544 60.348 50.44 60.572 50.308 60.572C50.176 60.572 50.076 60.348 50.076 60.068C50.076 59.788 50.18 59.564 50.308 59.564C50.436 59.564 50.544 59.792 50.544 60.068Z" fill="#263238"/>
<path d="M50.5 58.596C50.1761 58.5249 49.8374 58.5712 49.5444 58.7265C49.2514 58.8818 49.023 59.136 48.9 59.444" stroke="#263238" stroke-width="0.75" stroke-linecap="round" stroke-linejoin="round"/>
<path d="M39.372 71.6242C39.372 71.6242 39.372 68.8882 44.088 69.3122C49.82 69.8322 52.132 72.7682 52.132 72.7682L39.372 71.6242Z" fill="#50B780" stroke="#263238" stroke-linecap="round" stroke-linejoin="round"/>
<path d="M48.62 71.1323C52.192 71.5323 58.42 72.3923 58.048 81.9963C57.676 91.6003 56.292 107.132 56.292 107.132C56.292 107.132 38.428 114.764 36.4 107.684C36.4 107.684 37.328 99.6843 34.368 87.2323C31.408 74.7803 32.748 69.4003 48.62 71.1323Z" fill="#263238"/>
<mask id="mask7_207_14693" style="mask-type:luminance" maskUnits="userSpaceOnUse" x="33" y="70" width="26" height="41">
<path d="M48.62 71.1323C52.192 71.5323 58.42 72.3923 58.048 81.9963C57.676 91.6003 56.292 107.132 56.292 107.132C56.292 107.132 38.428 114.764 36.4 107.684C36.4 107.684 37.328 99.6843 34.368 87.2323C31.408 74.7803 32.748 69.4003 48.62 71.1323Z" fill="white"/>
</mask>
<g mask="url(#mask7_207_14693)">
<path opacity="0.2" d="M58.952 98.0682C58.952 98.0682 56.62 98.6282 49.476 94.7402C38.276 88.6322 37.02 79.6682 33.876 81.1402C30.732 82.6122 36.984 111.52 36.984 111.52L48.584 112.248H59.336L58.952 98.0682Z" fill="black"/>
</g>
<path d="M48.62 71.1323C52.192 71.5323 58.42 72.3923 58.048 81.9963C57.676 91.6003 56.292 107.132 56.292 107.132C56.292 107.132 38.428 114.764 36.4 107.684C36.4 107.684 37.328 99.6843 34.368 87.2323C31.408 74.7803 32.748 69.4003 48.62 71.1323Z" stroke="#263238" stroke-linecap="round" stroke-linejoin="round"/>
<path d="M28 94.0801C27.8 94.1281 27.588 94.1881 27.364 94.2601" stroke="#7F7F7F" stroke-width="0.75" stroke-linecap="round" stroke-linejoin="round"/>
<path d="M30.952 94.2603C30.952 94.2603 30.2 93.7243 28.552 93.9723" stroke="#7F7F7F" stroke-width="0.75" stroke-linecap="round" stroke-linejoin="round"/>
<path d="M50 71.3083C50 71.3083 56.188 71.3483 58.96 73.0123C58.96 73.0123 63.86 72.1803 65.804 73.0123L67.56 66.4483C67.56 66.4483 69.872 65.3363 70.98 67.0003C70.98 67.0003 71.812 77.0003 70.428 77.8203C69.044 78.6403 58.052 81.1483 58.052 81.1483C58.052 81.1483 51.032 79.0363 50 71.3083Z" fill="#263238"/>
<mask id="mask8_207_14693" style="mask-type:luminance" maskUnits="userSpaceOnUse" x="50" y="66" width="22" height="16">
<path d="M50 71.3083C50 71.3083 56.188 71.3483 58.96 73.0123C58.96 73.0123 63.86 72.1803 65.804 73.0123L67.56 66.4483C67.56 66.4483 69.872 65.3363 70.98 67.0003C70.98 67.0003 71.812 77.0003 70.428 77.8203C69.044 78.6403 58.052 81.1483 58.052 81.1483C58.052 81.1483 51.032 79.0363 50 71.3083Z" fill="white"/>
</mask>
<g mask="url(#mask8_207_14693)">
<path opacity="0.2" d="M58 79.4524C58 79.4524 57.676 76.8804 62.4 77.2124C67.124 77.5444 70.8 77.6364 71.268 75.4164C71.736 73.1964 76.916 69.3564 75.268 76.5444L73.6 83.7444L63.664 84.4004L58 79.4524Z" fill="black"/>
</g>
<path d="M50 71.3083C50 71.3083 56.188 71.3483 58.96 73.0123C58.96 73.0123 63.86 72.1803 65.804 73.0123L67.56 66.4483C67.56 66.4483 69.872 65.3363 70.98 67.0003C70.98 67.0003 71.812 77.0003 70.428 77.8203C69.044 78.6403 58.052 81.1483 58.052 81.1483C58.052 81.1483 51.032 79.0363 50 71.3083Z" stroke="#263238" stroke-linecap="round" stroke-linejoin="round"/>
<path d="M66.952 73.5044C67.4862 73.9402 67.9456 74.4604 68.312 75.0444" stroke="#7F7F7F" stroke-width="0.75" stroke-linecap="round" stroke-linejoin="round"/>
<path d="M65.952 73.0762C66.1026 73.0756 66.2515 73.1084 66.388 73.1722" stroke="#7F7F7F" stroke-width="0.75" stroke-linecap="round" stroke-linejoin="round"/>
<path d="M34.236 84.4001C34.02 82.3281 33.436 78.5241 33.664 75.8921" stroke="#7F7F7F" stroke-width="0.75" stroke-linecap="round" stroke-linejoin="round"/>
<path d="M32.6 79.4521C32.6 79.4521 33.68 85.8521 34.2 85.8521" stroke="#7F7F7F" stroke-width="0.75" stroke-linecap="round" stroke-linejoin="round"/>
<path d="M36.484 103.22V106.812" stroke="#7F7F7F" stroke-width="0.75" stroke-linecap="round" stroke-linejoin="round"/>
<path d="M42.58 112.256C42.58 112.256 43.16 116.316 44.944 118.824L42.58 112.256Z" fill="#999999"/>
<path d="M42.58 112.256C42.58 112.256 43.16 116.316 44.944 118.824" stroke="#263238" stroke-linecap="round" stroke-linejoin="round"/>
<path d="M67.056 65.6922L66.656 67.1802C66.656 67.1802 69.36 66.5402 71.752 67.8242L71.508 66.0842C71.508 66.0842 69.96 64.9282 67.056 65.6922Z" fill="#50B780" stroke="#263238" stroke-linecap="round" stroke-linejoin="round"/>
<path d="M52.284 104.052C50.336 104.916 46.472 105.676 38.884 104.928" stroke="#7F7F7F" stroke-width="0.75" stroke-linecap="round" stroke-linejoin="round"/>
<path d="M54.236 102.46C54.0701 102.828 53.8039 103.141 53.468 103.364" stroke="#7F7F7F" stroke-width="0.75" stroke-linecap="round" stroke-linejoin="round"/>
<path d="M59.6 73.2002L62.756 75.1522" stroke="#7F7F7F" stroke-width="0.75" stroke-linecap="round" stroke-linejoin="round"/>
<path d="M54.672 89.628C56.6894 87.2537 57.944 84.3263 58.272 81.228" stroke="#7F7F7F" stroke-width="0.75" stroke-linecap="round" stroke-linejoin="round"/>
<path d="M52.832 89.0483C50.2675 92.0102 47.0644 94.3516 43.464 95.8963" stroke="#7F7F7F" stroke-width="0.75" stroke-linecap="round" stroke-linejoin="round"/>
<path d="M54.4 87.0161C54.1 87.4481 53.784 87.8681 53.452 88.2801" stroke="#7F7F7F" stroke-width="0.75" stroke-linecap="round" stroke-linejoin="round"/>
<path d="M55.364 85.5684C55.212 85.8244 55.052 86.0724 54.892 86.3204" stroke="#7F7F7F" stroke-width="0.75" stroke-linecap="round" stroke-linejoin="round"/>
<path d="M38.072 100.8C42.1202 102.65 46.6236 103.267 51.02 102.572" stroke="#7F7F7F" stroke-width="0.75" stroke-linecap="round" stroke-linejoin="round"/>
<path d="M48.9 51.1283C49.3132 50.9483 49.7072 50.7272 50.076 50.4683" stroke="#7F7F7F" stroke-width="0.75" stroke-linecap="round" stroke-linejoin="round"/>
<path d="M39.156 60.5721C39.156 60.5721 36.936 56.5001 39.5 54.2801C41.456 52.5921 44.944 52.4321 47.736 51.5601" stroke="#7F7F7F" stroke-width="0.75" stroke-linecap="round" stroke-linejoin="round"/>
<path d="M41.024 57.6803C40.8993 57.3102 40.8788 56.9128 40.9649 56.5318C41.051 56.1508 41.2402 55.8009 41.512 55.5203C43.036 54.0723 47.484 53.9203 49.7 51.7163" stroke="#7F7F7F" stroke-width="0.75" stroke-linecap="round" stroke-linejoin="round"/>
<path d="M41.928 59.5642C41.7443 59.3109 41.5811 59.0434 41.44 58.7642" stroke="#7F7F7F" stroke-width="0.75" stroke-linecap="round" stroke-linejoin="round"/>
</svg>
