<svg width="20" height="19" viewBox="0 0 20 19" fill="none" xmlns="http://www.w3.org/2000/svg">
<g clip-path="url(#clip0_289_2258)">
<path d="M0.54895 0.686878C0.54895 0.530218 0.611183 0.379975 0.721958 0.269199C0.832733 0.158424 0.982977 0.0961914 1.13964 0.0961914L4.68375 0.0961914C4.84041 0.0961914 4.99066 0.158424 5.10143 0.269199C5.21221 0.379975 5.27444 0.530218 5.27444 0.686878C5.27444 0.843538 5.21221 0.993781 5.10143 1.10456C4.99066 1.21533 4.84041 1.27756 4.68375 1.27756H1.73032V4.231C1.73032 4.38766 1.66809 4.5379 1.55731 4.64867C1.44654 4.75945 1.2963 4.82168 1.13964 4.82168C0.982977 4.82168 0.832733 4.75945 0.721958 4.64867C0.611183 4.5379 0.54895 4.38766 0.54895 4.231V0.686878ZM14.7254 0.686878C14.7254 0.530218 14.7877 0.379975 14.8984 0.269199C15.0092 0.158424 15.1594 0.0961914 15.3161 0.0961914L18.8602 0.0961914C19.0169 0.0961914 19.1671 0.158424 19.2779 0.269199C19.3887 0.379975 19.4509 0.530218 19.4509 0.686878V4.231C19.4509 4.38766 19.3887 4.5379 19.2779 4.64867C19.1671 4.75945 19.0169 4.82168 18.8602 4.82168C18.7036 4.82168 18.5533 4.75945 18.4425 4.64867C18.3318 4.5379 18.2695 4.38766 18.2695 4.231V1.27756H15.3161C15.1594 1.27756 15.0092 1.21533 14.8984 1.10456C14.7877 0.993781 14.7254 0.843538 14.7254 0.686878ZM1.13964 14.2727C1.2963 14.2727 1.44654 14.3349 1.55731 14.4457C1.66809 14.5564 1.73032 14.7067 1.73032 14.8634V17.8168H4.68375C4.84041 17.8168 4.99066 17.879 5.10143 17.9898C5.21221 18.1006 5.27444 18.2508 5.27444 18.4075C5.27444 18.5641 5.21221 18.7144 5.10143 18.8251C4.99066 18.9359 4.84041 18.9982 4.68375 18.9982H1.13964C0.982977 18.9982 0.832733 18.9359 0.721958 18.8251C0.611183 18.7144 0.54895 18.5641 0.54895 18.4075V14.8634C0.54895 14.7067 0.611183 14.5564 0.721958 14.4457C0.832733 14.3349 0.982977 14.2727 1.13964 14.2727ZM18.8602 14.2727C19.0169 14.2727 19.1671 14.3349 19.2779 14.4457C19.3887 14.5564 19.4509 14.7067 19.4509 14.8634V18.4075C19.4509 18.5641 19.3887 18.7144 19.2779 18.8251C19.1671 18.9359 19.0169 18.9982 18.8602 18.9982H15.3161C15.1594 18.9982 15.0092 18.9359 14.8984 18.8251C14.7877 18.7144 14.7254 18.5641 14.7254 18.4075C14.7254 18.2508 14.7877 18.1006 14.8984 17.9898C15.0092 17.879 15.1594 17.8168 15.3161 17.8168H18.2695V14.8634C18.2695 14.7067 18.3318 14.5564 18.4425 14.4457C18.5533 14.3349 18.7036 14.2727 18.8602 14.2727ZM5.27444 4.82168H6.45581V6.00306H5.27444V4.82168Z" fill="white"/>
<path d="M8.81824 2.45947H2.91138V8.36634H8.81824V2.45947ZM4.09275 3.64085H7.63687V7.18496H4.09275V3.64085ZM6.4555 13.0918H5.27412V14.2732H6.4555V13.0918Z" fill="white"/>
<path d="M8.81824 10.7267H2.91138V16.6336H8.81824V10.7267ZM4.09275 11.9081H7.63687V15.4522H4.09275V11.9081ZM13.5437 4.81982H14.7251V6.0012H13.5437V4.81982Z" fill="white"/>
<path d="M11.1805 2.45947H17.0874V8.36634H11.1805V2.45947ZM12.3619 3.64085V7.18496H15.906V3.64085H12.3619ZM9.99915 9.54771V11.9105H11.1805V13.0918H9.99915V14.2732H12.3619V11.9105H13.5433V14.2732H14.7246V13.0918H17.0874V11.9105H13.5433V9.54771H9.99915ZM12.3619 11.9105H11.1805V10.7291H12.3619V11.9105ZM17.0874 14.2732H15.906V15.4546H13.5433V16.6359H17.0874V14.2732ZM12.3619 16.6359V15.4546H9.99915V16.6359H12.3619Z" fill="white"/>
<path d="M14.7249 10.7282H17.0876V9.54688H14.7249V10.7282Z" fill="white"/>
</g>
<defs>
<clipPath id="clip0_289_2258">
<rect width="18.902" height="18.902" fill="white" transform="translate(0.549072 0.0981445)"/>
</clipPath>
</defs>
</svg>
