<svg width="25" height="24" viewBox="0 0 25 24" fill="none" xmlns="http://www.w3.org/2000/svg">
<path fill-rule="evenodd" clip-rule="evenodd" d="M22.416 16.9072L21.6224 18.2928C21.4032 18.676 20.9183 18.8064 20.5383 18.5856L18.3344 17.3024C17.216 18.5752 15.7032 19.4872 13.9864 19.8392V21.6C13.9864 22.0424 13.6319 22.4 13.1935 22.4H11.6064C11.168 22.4 10.8135 22.0424 10.8135 21.6V19.8392C9.09675 19.4872 7.58395 18.5752 6.46555 17.3024L4.26155 18.5856C3.88155 18.8064 3.39675 18.676 3.17755 18.2928L2.38395 16.9072C2.16475 16.5248 2.29515 16.0352 2.67435 15.8152L4.88715 14.5256C4.62395 13.7304 4.46635 12.8848 4.46635 12C4.46635 11.1152 4.62395 10.2704 4.88715 9.47439L2.67435 8.1856C2.29515 7.9648 2.16475 7.476 2.38395 7.0928L3.17755 5.7072C3.39675 5.3248 3.88155 5.1936 4.26155 5.4144L6.46555 6.69761C7.58395 5.42481 9.09675 4.51279 10.8135 4.16079V2.4C10.8135 1.9576 11.168 1.6 11.6064 1.6H13.1935C13.6319 1.6 13.9864 1.9576 13.9864 2.4V4.16079C15.7032 4.51279 17.216 5.42481 18.3344 6.69761L20.5383 5.4144C20.9183 5.1936 21.4032 5.3248 21.6224 5.7072L22.416 7.0928C22.6352 7.476 22.5047 7.9648 22.1255 8.1856L19.9128 9.47439C20.176 10.2704 20.3336 11.1152 20.3336 12C20.3336 12.8848 20.176 13.7304 19.9128 14.5256L22.1255 15.8152C22.5047 16.0352 22.6352 16.5248 22.416 16.9072ZM23.6063 14.8288L21.7479 13.7472C21.8519 13.1792 21.9208 12.5992 21.9208 12C21.9208 11.4016 21.8519 10.8208 21.7479 10.2528L23.6063 9.17119C24.3655 8.72959 24.6248 7.7504 24.1864 6.9856L22.6 4.2144C22.1624 3.4496 21.1912 3.18641 20.4328 3.62881L18.5552 4.7208C17.6784 3.9688 16.6816 3.35359 15.5736 2.95759V1.6C15.5736 0.7168 14.8632 0 13.9864 0H10.8135C9.93675 0 9.22635 0.7168 9.22635 1.6V2.95759C8.11835 3.35359 7.12155 3.9688 6.24475 4.7208L4.36715 3.62881C3.60875 3.18641 2.63755 3.4496 2.19995 4.2144L0.61355 6.9856C0.17515 7.7504 0.435149 8.72959 1.19355 9.17119L3.05195 10.2528C2.94795 10.8208 2.87915 11.4016 2.87915 12C2.87915 12.5992 2.94795 13.1792 3.05195 13.7472L1.19355 14.8288C0.435149 15.2704 0.17515 16.2496 0.61355 17.0144L2.19995 19.7856C2.63755 20.5504 3.60875 20.8136 4.36715 20.3712L6.24475 19.2792C7.12155 20.0312 8.11835 20.6472 9.22635 21.0424V22.4C9.22635 23.2832 9.93675 24 10.8135 24H13.9864C14.8632 24 15.5736 23.2832 15.5736 22.4V21.0424C16.6816 20.6472 17.6784 20.0312 18.5552 19.2792L20.4328 20.3712C21.1912 20.8136 22.1624 20.5504 22.6 19.7856L24.1864 17.0144C24.6248 16.2496 24.3655 15.2704 23.6063 14.8288ZM12.4 14.4C11.0856 14.4 10.02 13.3256 10.02 12C10.02 10.6752 11.0856 9.6 12.4 9.6C13.7144 9.6 14.78 10.6752 14.78 12C14.78 13.3256 13.7144 14.4 12.4 14.4ZM12.4 8C10.2088 8 8.43355 9.7904 8.43355 12C8.43355 14.2096 10.2088 16 12.4 16C14.5912 16 16.3672 14.2096 16.3672 12C16.3672 9.7904 14.5912 8 12.4 8Z" fill="#6C757D"/>
</svg>
