<svg width="301" height="301" viewBox="0 0 301 301" fill="none" xmlns="http://www.w3.org/2000/svg">
<path d="M276.462 82.7872C275.012 71.4937 272.182 60.6637 266.228 50.7969C255.248 32.466 235.382 21.3892 215.293 15.7726C198.437 11.0649 180.281 9.70442 163.467 14.5686C145.01 19.9083 129.52 32.2012 112.899 41.8392C100.732 48.7916 88.0296 54.7623 74.9128 59.6945C64.3297 63.746 50.881 66.0155 42.1821 73.7091C36.858 78.4618 32.1372 83.8498 28.1254 89.7524C11.8834 113.417 6.62195 143.649 9.10219 171.871C10.854 191.533 16.26 211.429 28.3662 227.002C45.3847 248.861 74.5998 259.631 102.165 256.916C133.469 253.833 163.118 235.129 194.229 239.62C209.719 241.854 224.54 249.812 240.12 248.331C255.477 246.874 268.618 236.291 277.883 223.98C285.312 214.089 290.254 202.128 290.712 189.666C291.211 176.188 285.107 163.895 282.043 151.024C276.715 128.527 279.382 105.513 276.462 82.7872Z" fill="#50B780"/>
<path opacity="0.7" d="M276.462 82.7872C275.012 71.4937 272.182 60.6637 266.228 50.7969C255.248 32.466 235.382 21.3892 215.293 15.7726C198.437 11.0649 180.281 9.70442 163.467 14.5686C145.01 19.9083 129.52 32.2012 112.899 41.8392C100.732 48.7916 88.0296 54.7623 74.9128 59.6945C64.3297 63.746 50.881 66.0155 42.1821 73.7091C36.858 78.4618 32.1372 83.8498 28.1254 89.7524C11.8834 113.417 6.62195 143.649 9.10219 171.871C10.854 191.533 16.26 211.429 28.3662 227.002C45.3847 248.861 74.5998 259.631 102.165 256.916C133.469 253.833 163.118 235.129 194.229 239.62C209.719 241.854 224.54 249.812 240.12 248.331C255.477 246.874 268.618 236.291 277.883 223.98C285.312 214.089 290.254 202.128 290.712 189.666C291.211 176.188 285.107 163.895 282.043 151.024C276.715 128.527 279.382 105.513 276.462 82.7872Z" fill="white"/>
<path d="M201.628 189.774H289.484V186.463H201.628V189.774Z" stroke="#1B422D" stroke-linecap="round" stroke-linejoin="round"/>
<path d="M205.703 279.328H285.408V189.87H205.703V279.328Z" stroke="#1B422D" stroke-linecap="round" stroke-linejoin="round"/>
<path d="M208.575 213.445H282.639V194.036H208.575V213.445Z" stroke="#1B422D" stroke-linecap="round" stroke-linejoin="round"/>
<path d="M242.028 205.522H249.433V201.947H242.028V205.522Z" fill="#1B422D" stroke="#1B422D" stroke-linecap="round" stroke-linejoin="round"/>
<path d="M208.575 237.964H282.639V218.556H208.575V237.964Z" stroke="#1B422D" stroke-linecap="round" stroke-linejoin="round"/>
<path d="M242.028 230.048H249.433V226.472H242.028V230.048Z" fill="#1B422D" stroke="#1B422D" stroke-linecap="round" stroke-linejoin="round"/>
<path d="M208.575 262.592H282.639V243.184H208.575V262.592Z" stroke="#1B422D" stroke-linecap="round" stroke-linejoin="round"/>
<path d="M242.028 254.676H249.433V251.1H242.028V254.676Z" fill="#1B422D" stroke="#1B422D" stroke-linecap="round" stroke-linejoin="round"/>
<path d="M249.228 147.327C250.125 147.718 252.322 147.67 252.322 147.67C252.322 147.67 251.853 146.231 251.81 146.141C251.329 145.136 249.806 143.468 248.566 143.637C248.359 143.669 248.162 143.745 247.986 143.859C247.811 143.973 247.662 144.122 247.548 144.298C247.434 144.473 247.359 144.671 247.327 144.878C247.295 145.084 247.307 145.295 247.362 145.497C247.523 145.919 247.773 146.3 248.095 146.616C248.417 146.932 248.803 147.175 249.228 147.327Z" fill="#1B422D"/>
<path d="M271.424 147.809C271.424 147.809 271.821 146.352 271.833 146.256C271.99 145.148 271.634 142.921 270.509 142.373C270.318 142.288 270.112 142.244 269.903 142.244C269.695 142.244 269.489 142.288 269.298 142.373C269.108 142.458 268.937 142.583 268.799 142.738C268.66 142.894 268.555 143.077 268.492 143.276C268.392 143.715 268.388 144.17 268.48 144.611C268.573 145.052 268.759 145.467 269.028 145.829C269.564 146.635 271.418 147.809 271.424 147.809Z" fill="#1B422D"/>
<path d="M277.979 139.85C276.733 139.718 275.252 141.422 274.801 142.439C274.759 142.529 274.307 143.98 274.331 143.98C274.097 144.245 273.844 144.534 273.579 144.859C273.091 145.461 272.549 146.135 272.008 146.918C271.413 147.75 270.868 148.616 270.376 149.513C269.816 150.516 269.349 151.567 268.98 152.655C268.98 152.655 268.98 152.655 268.98 152.691C268.98 152.324 268.98 151.3 268.98 151.222C268.835 150.115 267.908 148.056 266.674 147.827C266.469 147.795 266.259 147.808 266.058 147.862C265.858 147.917 265.671 148.014 265.511 148.145C265.35 148.277 265.219 148.441 265.126 148.627C265.033 148.813 264.98 149.016 264.97 149.224C264.991 149.674 265.109 150.115 265.317 150.515C265.525 150.915 265.817 151.266 266.174 151.541C266.879 152.143 268.823 152.775 268.98 152.824C268.633 153.937 268.357 155.071 268.155 156.219C268.04 156.893 267.938 157.567 267.848 158.248C267.848 157.935 267.848 157.646 267.848 157.609C267.703 156.502 266.776 154.443 265.548 154.22C265.343 154.187 265.132 154.197 264.931 154.251C264.73 154.305 264.543 154.4 264.381 154.532C264.22 154.663 264.088 154.827 263.994 155.013C263.901 155.199 263.848 155.403 263.838 155.611C263.858 156.061 263.977 156.502 264.185 156.903C264.392 157.303 264.685 157.653 265.042 157.928C265.88 158.483 266.798 158.906 267.764 159.181C267.733 159.446 267.697 159.704 267.667 159.969C267.517 161.221 267.372 162.48 267.192 163.702C267.131 164.135 267.053 164.557 266.975 164.984C266.975 164.701 266.975 164.46 266.975 164.424C266.83 163.316 265.903 161.264 264.669 161.035C264.464 161.002 264.255 161.014 264.054 161.068C263.854 161.122 263.667 161.218 263.506 161.349C263.346 161.48 263.214 161.644 263.121 161.83C263.028 162.015 262.975 162.218 262.966 162.425C262.986 162.876 263.104 163.317 263.312 163.717C263.52 164.118 263.812 164.468 264.17 164.743C264.982 165.28 265.874 165.687 266.812 165.947C266.722 166.381 266.632 166.814 266.523 167.229C266.439 167.506 266.385 167.783 266.289 168.06C266.192 168.337 266.108 168.614 266.024 168.885C265.837 169.403 265.644 169.938 265.422 170.438C265.289 170.781 265.157 171.112 265.024 171.443C265.091 171.016 265.205 170.173 265.205 170.101C265.191 169.117 264.926 168.154 264.434 167.302C264.445 167.071 264.404 166.841 264.314 166.629C264.224 166.416 264.087 166.227 263.913 166.075C263.739 165.923 263.534 165.812 263.311 165.75C263.089 165.688 262.856 165.677 262.628 165.718C261.424 166.043 260.654 168.162 260.594 169.282C260.594 169.348 260.636 170.065 260.672 170.516C260.606 170.257 260.552 169.999 260.485 169.728C260.359 169.192 260.214 168.662 260.064 168.096C259.986 167.819 259.901 167.542 259.817 167.266C259.733 166.989 259.618 166.706 259.522 166.423C259.287 165.767 259.01 165.116 258.721 164.466C259.699 164.261 260.639 163.908 261.509 163.419C261.884 163.17 262.2 162.842 262.435 162.458C262.67 162.075 262.818 161.644 262.869 161.197C262.875 160.989 262.837 160.782 262.757 160.59C262.678 160.398 262.558 160.224 262.407 160.081C262.256 159.938 262.077 159.828 261.88 159.759C261.684 159.69 261.475 159.663 261.268 159.68C260.022 159.819 258.944 161.799 258.721 162.895C258.721 162.961 258.631 163.768 258.601 164.207C258.42 163.816 258.246 163.431 258.053 163.039C257.499 161.92 256.897 160.806 256.307 159.686C256.127 159.349 255.952 159.006 255.772 158.663C255.94 158.621 257.921 158.163 258.661 157.591C259.036 157.343 259.352 157.015 259.587 156.631C259.822 156.247 259.971 155.817 260.022 155.37C260.028 155.162 259.989 154.955 259.91 154.763C259.83 154.57 259.711 154.397 259.56 154.254C259.409 154.111 259.229 154.001 259.033 153.932C258.837 153.863 258.628 153.836 258.42 153.853C257.18 153.991 256.097 155.972 255.874 157.068C255.874 157.146 255.754 158.302 255.742 158.597C255.35 157.844 254.965 157.092 254.616 156.327C254.146 155.303 253.744 154.249 253.412 153.173C253.49 153.173 255.561 152.685 256.319 152.101C256.694 151.852 257.01 151.525 257.245 151.141C257.48 150.757 257.629 150.327 257.68 149.88C257.686 149.672 257.648 149.465 257.568 149.272C257.488 149.08 257.369 148.907 257.218 148.764C257.067 148.62 256.887 148.511 256.691 148.442C256.495 148.373 256.286 148.346 256.079 148.363C254.839 148.501 253.755 150.482 253.532 151.571C253.532 151.644 253.436 152.529 253.406 152.95H253.34C253.025 151.858 252.812 150.74 252.701 149.609C252.629 149.007 252.599 148.405 252.581 147.803C253.592 147.709 254.583 147.462 255.519 147.068C255.919 146.861 256.269 146.569 256.544 146.212C256.82 145.855 257.014 145.443 257.114 145.004C257.142 144.798 257.126 144.588 257.068 144.388C257.01 144.189 256.91 144.004 256.775 143.846C256.641 143.687 256.474 143.559 256.287 143.469C256.099 143.379 255.895 143.33 255.687 143.324C254.435 143.324 253.147 145.172 252.804 146.238C252.804 146.292 252.659 146.9 252.575 147.345C252.575 147.086 252.575 146.816 252.575 146.563C252.575 145.612 252.635 144.757 252.695 143.98C252.732 143.547 252.774 143.149 252.816 142.776C253.666 142.229 254.427 141.555 255.073 140.778C255.332 140.409 255.508 139.989 255.588 139.546C255.668 139.104 255.651 138.648 255.537 138.213C255.466 138.017 255.356 137.839 255.212 137.689C255.068 137.539 254.895 137.42 254.702 137.342C254.51 137.263 254.303 137.225 254.095 137.231C253.888 137.237 253.684 137.286 253.496 137.376C252.388 137.978 252.093 140.188 252.292 141.289C252.292 141.386 252.726 142.848 252.744 142.836C252.695 143.192 252.647 143.571 252.599 143.986C252.527 144.751 252.449 145.618 252.425 146.569C252.39 147.593 252.414 148.618 252.497 149.639C252.585 150.781 252.774 151.913 253.063 153.022V153.064C252.864 152.751 252.286 151.908 252.232 151.86C251.503 151.018 249.589 149.814 248.439 150.301C248.251 150.388 248.082 150.513 247.945 150.669C247.808 150.825 247.705 151.007 247.644 151.206C247.582 151.404 247.562 151.613 247.586 151.819C247.61 152.025 247.677 152.224 247.783 152.402C248.046 152.768 248.385 153.072 248.777 153.293C249.169 153.515 249.604 153.648 250.053 153.684C250.986 153.817 252.942 153.251 253.099 153.203C253.428 154.326 253.83 155.426 254.303 156.496C254.574 157.098 254.863 157.736 255.164 158.356L254.796 157.832C254.062 156.983 252.154 155.785 251.004 156.273C250.815 156.359 250.646 156.484 250.508 156.639C250.37 156.795 250.267 156.978 250.205 157.177C250.143 157.375 250.124 157.584 250.148 157.79C250.173 157.997 250.241 158.196 250.348 158.374C250.61 158.74 250.949 159.044 251.341 159.265C251.733 159.487 252.168 159.62 252.617 159.656C253.622 159.656 254.621 159.502 255.579 159.199C255.699 159.433 255.814 159.674 255.928 159.909C256.53 161.041 257.066 162.167 257.596 163.286C257.782 163.678 257.951 164.075 258.119 164.49C257.963 164.256 257.824 164.063 257.8 164.033C257.072 163.19 255.158 161.986 254.008 162.474C253.819 162.561 253.651 162.687 253.513 162.843C253.376 162.999 253.274 163.183 253.212 163.381C253.15 163.58 253.13 163.789 253.154 163.996C253.179 164.202 253.246 164.402 253.352 164.581C253.615 164.945 253.955 165.247 254.347 165.467C254.738 165.688 255.173 165.821 255.621 165.857C256.599 165.86 257.571 165.714 258.505 165.423C258.667 165.833 258.83 166.242 258.968 166.627C259.053 166.904 259.161 167.169 259.233 167.452L259.468 168.283C259.594 168.819 259.727 169.366 259.841 169.896C259.919 170.257 259.992 170.607 260.064 170.956C259.883 170.564 259.516 169.794 259.462 169.752C258.86 168.807 257.162 167.344 255.952 167.639C255.753 167.696 255.567 167.795 255.408 167.928C255.249 168.062 255.12 168.227 255.028 168.414C254.937 168.601 254.886 168.804 254.878 169.012C254.87 169.219 254.906 169.426 254.983 169.619C255.188 170.02 255.478 170.371 255.833 170.649C256.187 170.926 256.598 171.124 257.036 171.227C258.051 171.382 259.085 171.382 260.1 171.227C260.22 171.829 260.329 172.376 260.419 172.912C260.624 174.086 260.78 175.14 260.901 176.037H255.97V186.403H268.937V176.019H263.923C264.248 175.296 264.603 174.477 264.976 173.568C265.205 173.009 265.44 172.407 265.675 171.793C265.909 171.841 267.836 172.232 268.733 172.027C269.176 171.958 269.6 171.793 269.973 171.544C270.346 171.294 270.661 170.966 270.894 170.583C270.987 170.397 271.04 170.193 271.049 169.985C271.058 169.778 271.023 169.57 270.946 169.377C270.87 169.184 270.753 169.009 270.604 168.864C270.455 168.719 270.277 168.607 270.081 168.536C268.877 168.132 267.071 169.481 266.421 170.384C266.379 170.432 266.018 171.058 265.819 171.455C265.915 171.203 266.012 170.956 266.102 170.697C266.295 170.179 266.469 169.655 266.656 169.102C266.74 168.825 266.818 168.548 266.903 168.271C266.987 167.994 267.053 167.669 267.125 167.404C267.288 166.724 267.42 166.031 267.535 165.327C268.461 165.7 269.44 165.926 270.436 165.995C270.886 165.996 271.331 165.897 271.739 165.707C272.147 165.517 272.508 165.239 272.796 164.894C272.916 164.724 272.999 164.53 273.039 164.326C273.079 164.122 273.076 163.912 273.029 163.709C272.983 163.506 272.894 163.315 272.769 163.149C272.643 162.983 272.485 162.845 272.303 162.744C271.189 162.173 269.196 163.232 268.402 164.021C268.353 164.069 267.848 164.695 267.577 165.05C267.643 164.623 267.709 164.201 267.764 163.774C267.92 162.534 268.034 161.27 268.161 160.017C268.197 159.632 268.239 159.247 268.281 158.862C268.438 158.922 270.346 159.632 271.291 159.566C272.122 159.506 273.169 159.205 273.651 158.464C273.77 158.294 273.851 158.1 273.891 157.896C273.93 157.691 273.926 157.481 273.879 157.279C273.831 157.076 273.742 156.886 273.617 156.72C273.492 156.554 273.333 156.416 273.151 156.315C272.044 155.713 270.045 156.797 269.256 157.585C269.196 157.646 268.468 158.555 268.299 158.789C268.39 157.941 268.486 157.098 268.612 156.273C268.782 155.157 269.023 154.053 269.335 152.968C269.407 152.968 271.394 153.745 272.345 153.678C272.795 153.677 273.239 153.578 273.646 153.388C274.054 153.198 274.415 152.921 274.705 152.577C274.824 152.407 274.907 152.213 274.947 152.009C274.987 151.805 274.984 151.595 274.937 151.392C274.891 151.189 274.802 150.999 274.677 150.832C274.552 150.666 274.393 150.528 274.211 150.428C273.097 149.856 271.105 150.909 270.31 151.698C270.256 151.752 269.708 152.444 269.449 152.775H269.389C269.731 151.691 270.171 150.639 270.701 149.633C270.984 149.079 271.303 148.561 271.592 148.068C272.489 148.545 273.453 148.884 274.452 149.073C274.9 149.119 275.352 149.068 275.778 148.923C276.205 148.777 276.594 148.541 276.92 148.23C277.057 148.074 277.159 147.891 277.221 147.693C277.282 147.495 277.301 147.286 277.277 147.08C277.252 146.874 277.185 146.675 277.079 146.497C276.973 146.319 276.83 146.165 276.661 146.045C275.614 145.353 273.519 146.183 272.646 146.882C272.598 146.918 272.158 147.357 271.839 147.682C271.984 147.46 272.122 147.225 272.266 147.02C272.784 146.232 273.314 145.539 273.79 144.931C274.06 144.588 274.313 144.287 274.548 144.004C275.567 144.014 276.582 143.87 277.558 143.577C277.978 143.415 278.357 143.162 278.669 142.838C278.981 142.513 279.218 142.125 279.364 141.699C279.42 141.484 279.427 141.259 279.385 141.041C279.342 140.823 279.251 140.618 279.118 140.44C278.985 140.263 278.813 140.117 278.616 140.015C278.419 139.913 278.201 139.857 277.979 139.85ZM264.2 173.279C263.754 174.315 263.321 175.236 262.948 176.019H261.629C261.491 175.092 261.304 173.99 261.027 172.756C260.913 172.154 260.774 171.552 260.63 170.896C261.214 170.658 261.785 170.389 262.339 170.089C263.095 170.737 263.935 171.278 264.838 171.696C264.645 172.244 264.422 172.774 264.2 173.279Z" fill="#1B422D"/>
<path d="M17.1389 190.81L24.1221 257.71" stroke="#1B422D" stroke-width="2" stroke-miterlimit="10"/>
<path d="M22.9964 244.906L19.8298 241.564" stroke="#1B422D" stroke-width="2" stroke-miterlimit="10"/>
<path d="M20.7931 242.564C20.7853 242.053 20.6691 241.549 20.4522 241.086C20.2353 240.623 19.9227 240.212 19.5349 239.879C18.7222 239.156 14.442 237.356 14.0386 238.861C13.5992 240.499 17.9757 243.714 20.7931 242.564Z" fill="#50B780" stroke="#1B422D" stroke-miterlimit="10"/>
<path d="M20.793 242.564L16.7235 240.029" stroke="#1B422D" stroke-width="0.5" stroke-miterlimit="10"/>
<path d="M23.791 252.515L20.6245 249.174" stroke="#1B422D" stroke-width="2" stroke-miterlimit="10"/>
<path d="M21.5878 250.173C21.58 249.662 21.4638 249.158 21.2469 248.696C21.03 248.233 20.7173 247.821 20.3296 247.488C19.5169 246.766 15.2367 244.966 14.8333 246.471C14.3939 248.108 18.7704 251.323 21.5878 250.173Z" fill="#50B780" stroke="#1B422D" stroke-miterlimit="10"/>
<path d="M21.5877 250.173L17.5182 247.639" stroke="#1B422D" stroke-width="0.5" stroke-miterlimit="10"/>
<path d="M21.058 226.34L17.8915 222.999" stroke="#1B422D" stroke-width="2" stroke-miterlimit="10"/>
<path d="M18.8546 223.998C18.8468 223.487 18.7306 222.984 18.5137 222.521C18.2968 222.058 17.9842 221.646 17.5964 221.313C16.7837 220.585 12.5035 218.791 12.1002 220.296C11.6607 221.933 16.0372 225.148 18.8546 223.998Z" fill="#50B780" stroke="#1B422D" stroke-miterlimit="10"/>
<path d="M18.8547 223.998L14.7852 221.464" stroke="#1B422D" stroke-width="0.5" stroke-miterlimit="10"/>
<path d="M21.8526 233.949L18.686 230.608" stroke="#1B422D" stroke-width="2" stroke-miterlimit="10"/>
<path d="M19.6493 231.608C19.6414 231.097 19.5253 230.593 19.3084 230.13C19.0915 229.667 18.7788 229.256 18.3911 228.923C17.5784 228.194 13.2982 226.4 12.8948 227.905C12.4554 229.543 16.856 232.758 19.6493 231.608Z" fill="#50B780" stroke="#1B422D" stroke-miterlimit="10"/>
<path d="M19.6492 231.608L15.5797 229.073" stroke="#1B422D" stroke-width="0.5" stroke-miterlimit="10"/>
<path d="M19.7697 213.981L16.6031 210.634" stroke="#1B422D" stroke-width="2" stroke-miterlimit="10"/>
<path d="M17.5664 211.639C17.5602 211.127 17.4441 210.623 17.226 210.16C17.0079 209.696 16.6928 209.285 16.3022 208.955C15.4895 208.226 11.2153 206.432 10.812 207.937C10.3725 209.575 14.749 212.789 17.5664 211.639Z" fill="#50B780" stroke="#1B422D" stroke-miterlimit="10"/>
<path d="M17.5663 211.639L13.4968 209.105" stroke="#1B422D" stroke-width="0.5" stroke-miterlimit="10"/>
<path d="M18.4754 201.568L15.3088 198.221" stroke="#1B422D" stroke-width="2" stroke-miterlimit="10"/>
<path d="M16.254 199.226C16.2478 198.714 16.1317 198.209 15.9136 197.746C15.6955 197.283 15.3805 196.872 14.9898 196.541C14.1771 195.813 9.90291 194.013 9.49957 195.524C9.07215 197.161 13.4487 200.376 16.254 199.226Z" fill="#50B780" stroke="#1B422D" stroke-miterlimit="10"/>
<path d="M16.2721 199.226L12.1965 196.686" stroke="#1B422D" stroke-width="0.5" stroke-miterlimit="10"/>
<path d="M22.4667 240.403L24.8687 236.478" stroke="#1B422D" stroke-width="2" stroke-miterlimit="10"/>
<path d="M24.1342 237.658C24.0381 237.157 24.0491 236.642 24.1663 236.146C24.2836 235.65 24.5045 235.185 24.8144 234.78C25.4586 233.901 29.2692 231.259 29.9796 232.649C30.7501 234.178 27.1321 238.206 24.1342 237.658Z" fill="#50B780" stroke="#1B422D" stroke-miterlimit="10"/>
<path d="M24.1342 237.657L27.8003 234.154" stroke="#1B422D" stroke-width="0.5" stroke-miterlimit="10"/>
<path d="M20.3717 220.38L22.7797 216.455" stroke="#1B422D" stroke-width="2" stroke-miterlimit="10"/>
<path d="M22.0452 217.635C21.9483 217.134 21.9589 216.617 22.0761 216.12C22.1934 215.623 22.4147 215.157 22.7255 214.751C23.3696 213.873 27.1803 211.23 27.8907 212.62C28.6612 214.131 25.0432 218.183 22.0452 217.635Z" fill="#50B780" stroke="#1B422D" stroke-miterlimit="10"/>
<path d="M22.0453 217.635L25.7115 214.131" stroke="#1B422D" stroke-width="0.5" stroke-miterlimit="10"/>
<path d="M19.4567 211.585L21.8647 207.66" stroke="#1B422D" stroke-width="2" stroke-miterlimit="10"/>
<path d="M21.1302 208.84C21.0315 208.338 21.0406 207.821 21.1569 207.323C21.2731 206.824 21.4938 206.357 21.8044 205.95C22.4546 205.071 26.2652 202.429 26.9696 203.819C27.7401 205.33 24.1221 209.382 21.1302 208.84Z" fill="#50B780" stroke="#1B422D" stroke-miterlimit="10"/>
<path d="M21.1302 208.84L24.7964 205.336" stroke="#1B422D" stroke-width="0.5" stroke-miterlimit="10"/>
<path d="M18.1082 198.684L20.5162 194.759" stroke="#1B422D" stroke-width="2" stroke-miterlimit="10"/>
<path d="M19.7818 195.939C19.684 195.437 19.694 194.919 19.8113 194.421C19.9286 193.923 20.1504 193.455 20.462 193.049C21.1062 192.17 24.9168 189.528 25.6272 190.918C26.3977 192.429 22.7797 196.481 19.7818 195.939Z" fill="#50B780" stroke="#1B422D" stroke-miterlimit="10"/>
<path d="M19.7817 195.939L23.4479 192.436" stroke="#1B422D" stroke-width="0.5" stroke-miterlimit="10"/>
<path d="M17.0788 190.437C16.981 189.935 16.991 189.417 17.1083 188.919C17.2256 188.421 17.4474 187.953 17.759 187.547C18.4032 186.668 22.2138 184.026 22.9242 185.416C23.6947 186.927 20.0767 190.979 17.0788 190.437Z" fill="#50B780" stroke="#1B422D" stroke-miterlimit="10"/>
<path d="M17.0787 190.437L20.7449 186.933" stroke="#1B422D" stroke-width="0.5" stroke-miterlimit="10"/>
<path d="M17.2955 190.587C16.7868 190.635 16.2737 190.575 15.7901 190.41C15.3065 190.245 14.8635 189.979 14.4902 189.63C13.6895 188.896 11.4802 184.814 12.9129 184.266C14.4962 183.64 18.1503 187.668 17.2955 190.587Z" fill="#50B780" stroke="#1B422D" stroke-miterlimit="10"/>
<path d="M17.2955 190.587L14.1952 186.572" stroke="#1B422D" stroke-width="0.5" stroke-miterlimit="10"/>
<path d="M35.5541 200.021L28.613 266.927" stroke="#1B422D" stroke-width="2" stroke-miterlimit="10"/>
<path d="M30.1481 254.165L27.7401 250.246" stroke="#1B422D" stroke-width="2" stroke-miterlimit="10"/>
<path d="M28.4746 251.419C28.5715 250.918 28.561 250.402 28.4437 249.905C28.3265 249.408 28.1051 248.941 27.7943 248.536C27.1442 247.657 23.3335 245.02 22.6232 246.405C21.8586 247.922 25.4766 251.967 28.4746 251.419Z" fill="#50B780" stroke="#1B422D" stroke-miterlimit="10"/>
<path d="M28.4746 251.42L25.0131 248.103" stroke="#1B422D" stroke-width="0.5" stroke-miterlimit="10"/>
<path d="M32.0746 235.599L29.6666 231.674" stroke="#1B422D" stroke-width="2" stroke-miterlimit="10"/>
<path d="M30.401 232.853C30.4988 232.351 30.4887 231.834 30.3715 231.336C30.2542 230.837 30.0324 230.37 29.7207 229.964C29.0766 229.085 25.2599 226.442 24.5556 227.833C23.785 229.362 27.403 233.401 30.401 232.853Z" fill="#50B780" stroke="#1B422D" stroke-miterlimit="10"/>
<path d="M30.401 232.854L26.9395 229.531" stroke="#1B422D" stroke-width="0.5" stroke-miterlimit="10"/>
<path d="M31.2859 243.208L28.8779 239.283" stroke="#1B422D" stroke-width="2" stroke-miterlimit="10"/>
<path d="M29.6124 240.463C29.7093 239.961 29.6988 239.445 29.5815 238.948C29.4643 238.451 29.243 237.984 28.9322 237.579C28.282 236.7 24.4713 234.057 23.761 235.448C22.9964 236.959 26.6145 241.011 29.6124 240.463Z" fill="#50B780" stroke="#1B422D" stroke-miterlimit="10"/>
<path d="M29.6124 240.463L26.1509 237.14" stroke="#1B422D" stroke-width="0.5" stroke-miterlimit="10"/>
<path d="M33.3569 223.239L30.9489 219.314" stroke="#1B422D" stroke-width="2" stroke-miterlimit="10"/>
<path d="M31.6832 220.494C31.781 219.992 31.771 219.475 31.6537 218.977C31.5364 218.478 31.3146 218.011 31.003 217.605C30.3588 216.732 26.5422 214.089 25.8378 215.48C25.0673 216.991 28.6853 221.042 31.6832 220.494Z" fill="#50B780" stroke="#1B422D" stroke-miterlimit="10"/>
<path d="M31.6833 220.494L28.2218 217.171" stroke="#1B422D" stroke-width="0.5" stroke-miterlimit="10"/>
<path d="M34.6451 210.826L32.2371 206.901" stroke="#1B422D" stroke-width="2" stroke-miterlimit="10"/>
<path d="M32.9716 208.081C33.0694 207.579 33.0593 207.062 32.942 206.564C32.8247 206.065 32.6029 205.598 32.2913 205.192C31.6472 204.313 27.8305 201.676 27.1261 203.067C26.3556 204.578 29.9736 208.623 32.9716 208.081Z" fill="#50B780" stroke="#1B422D" stroke-miterlimit="10"/>
<path d="M32.9715 208.081L29.51 204.758" stroke="#1B422D" stroke-width="0.5" stroke-miterlimit="10"/>
<path d="M30.5515 249.65L33.718 246.309" stroke="#1B422D" stroke-width="2" stroke-miterlimit="10"/>
<path d="M32.7549 247.308C32.7627 246.797 32.8789 246.293 33.0958 245.83C33.3127 245.367 33.6253 244.956 34.0131 244.623C34.8258 243.901 39.1 242.095 39.5093 243.6C39.9488 245.237 35.5722 248.458 32.7549 247.308Z" fill="#50B780" stroke="#1B422D" stroke-miterlimit="10"/>
<path d="M32.7549 247.308L37.0652 244.635" stroke="#1B422D" stroke-width="0.5" stroke-miterlimit="10"/>
<path d="M32.6284 229.627L35.7949 226.286" stroke="#1B422D" stroke-width="2" stroke-miterlimit="10"/>
<path d="M34.8318 227.285C34.8433 226.772 34.9642 226.267 35.1863 225.804C35.4085 225.341 35.7268 224.931 36.1201 224.6C36.9328 223.872 41.207 222.072 41.6163 223.577C42.0257 225.215 37.6552 228.435 34.8318 227.285Z" fill="#50B780" stroke="#1B422D" stroke-miterlimit="10"/>
<path d="M34.8318 227.285L39.1421 224.612" stroke="#1B422D" stroke-width="0.5" stroke-miterlimit="10"/>
<path d="M33.5435 220.825L36.71 217.484" stroke="#1B422D" stroke-width="2" stroke-miterlimit="10"/>
<path d="M35.7468 218.484C35.7546 217.973 35.8708 217.469 36.0877 217.007C36.3046 216.544 36.6173 216.132 37.005 215.799C37.8177 215.077 42.0919 213.271 42.4952 214.776C42.9407 216.419 38.5642 219.634 35.7468 218.484Z" fill="#50B780" stroke="#1B422D" stroke-miterlimit="10"/>
<path d="M35.7468 218.484L40.0571 215.811" stroke="#1B422D" stroke-width="0.5" stroke-miterlimit="10"/>
<path d="M34.8799 207.931L38.0464 204.584" stroke="#1B422D" stroke-width="2" stroke-miterlimit="10"/>
<path d="M37.0833 205.583C37.0876 205.068 37.2022 204.56 37.4192 204.092C37.6362 203.625 37.9507 203.21 38.3414 202.874C39.1541 202.152 43.4283 200.346 43.8377 201.857C44.2772 203.518 39.9066 206.733 37.0833 205.583Z" fill="#50B780" stroke="#1B422D" stroke-miterlimit="10"/>
<path d="M37.0833 205.583L41.3936 202.91" stroke="#1B422D" stroke-width="0.5" stroke-miterlimit="10"/>
<path d="M35.5721 199.647C35.5799 199.136 35.6961 198.633 35.913 198.17C36.1299 197.707 36.4426 197.295 36.8303 196.962C37.643 196.234 41.9172 194.434 42.3266 195.939C42.742 197.576 38.3955 200.797 35.5721 199.647Z" fill="#50B780" stroke="#1B422D" stroke-miterlimit="10"/>
<path d="M35.5721 199.647L39.8825 196.975" stroke="#1B422D" stroke-width="0.5" stroke-miterlimit="10"/>
<path d="M35.7528 199.864C35.2446 199.805 34.7549 199.639 34.3166 199.375C33.8784 199.111 33.5018 198.756 33.2123 198.335C32.5742 197.45 31.2318 193.013 32.7729 192.766C34.4464 192.465 37.1916 197.155 35.7528 199.864Z" fill="#50B780" stroke="#1B422D" stroke-miterlimit="10"/>
<path d="M35.7528 199.834L33.5435 195.271" stroke="#1B422D" stroke-width="0.5" stroke-miterlimit="10"/>
<path d="M27.5957 172.774V257.385" stroke="#1B422D" stroke-width="2" stroke-miterlimit="10"/>
<path d="M27.6679 244.665L24.8625 241.011" stroke="#1B422D" stroke-width="2" stroke-miterlimit="10"/>
<path d="M25.7175 242.106C25.7631 241.596 25.6997 241.082 25.5316 240.599C25.3634 240.115 25.0944 239.673 24.7423 239.301C24.0078 238.5 19.9263 236.291 19.3845 237.724C18.7764 239.301 22.7918 242.955 25.7175 242.106Z" fill="#50B780" stroke="#1B422D" stroke-miterlimit="10"/>
<path d="M25.7175 242.106L21.9309 239.163" stroke="#1B422D" stroke-width="0.5" stroke-miterlimit="10"/>
<path d="M27.6679 228.76L24.8625 225.112" stroke="#1B422D" stroke-width="2" stroke-miterlimit="10"/>
<path d="M25.7175 226.208C25.7631 225.698 25.6997 225.184 25.5316 224.7C25.3634 224.216 25.0944 223.774 24.7423 223.402C24.0078 222.596 19.9263 220.362 19.3845 221.819C18.7764 223.402 22.7918 227.056 25.7175 226.208Z" fill="#50B780" stroke="#1B422D" stroke-miterlimit="10"/>
<path d="M25.7175 226.208L21.9309 223.258" stroke="#1B422D" stroke-width="0.5" stroke-miterlimit="10"/>
<path d="M27.6679 210.098L24.8625 206.444" stroke="#1B422D" stroke-width="2" stroke-miterlimit="10"/>
<path d="M25.7175 207.539C25.7631 207.029 25.6997 206.516 25.5316 206.032C25.3634 205.548 25.0944 205.106 24.7423 204.734C24.0078 203.927 19.9263 201.724 19.3845 203.151C18.7764 204.734 22.7918 208.388 25.7175 207.539Z" fill="#50B780" stroke="#1B422D" stroke-miterlimit="10"/>
<path d="M25.7175 207.54L21.9309 204.59" stroke="#1B422D" stroke-width="0.5" stroke-miterlimit="10"/>
<path d="M27.6679 197.667L24.8625 194.013" stroke="#1B422D" stroke-width="2" stroke-miterlimit="10"/>
<path d="M25.7175 195.108C25.7622 194.599 25.6984 194.087 25.5303 193.604C25.3622 193.121 25.0936 192.68 24.7423 192.309C24.0078 191.502 19.9263 189.269 19.3845 190.726C18.7764 192.309 22.7918 195.963 25.7175 195.108Z" fill="#50B780" stroke="#1B422D" stroke-miterlimit="10"/>
<path d="M25.7175 195.108L21.9309 192.165" stroke="#1B422D" stroke-width="0.5" stroke-miterlimit="10"/>
<path d="M27.6679 185.187L24.8625 181.533" stroke="#1B422D" stroke-width="2" stroke-miterlimit="10"/>
<path d="M25.7175 182.629C25.7622 182.12 25.6984 181.607 25.5303 181.125C25.3622 180.642 25.0936 180.201 24.7423 179.83C24.0078 179.023 19.9263 176.789 19.3845 178.246C18.7764 179.83 22.7918 183.484 25.7175 182.629Z" fill="#50B780" stroke="#1B422D" stroke-miterlimit="10"/>
<path d="M25.7175 182.629L21.9309 179.685" stroke="#1B422D" stroke-width="0.5" stroke-miterlimit="10"/>
<path d="M27.6017 249.517L30.407 245.863" stroke="#1B422D" stroke-width="2" stroke-miterlimit="10"/>
<path d="M29.5522 246.958C29.5075 246.449 29.5713 245.937 29.7394 245.454C29.9075 244.972 30.1761 244.53 30.5274 244.159C31.2619 243.352 35.3434 241.119 35.8852 242.576C36.4932 244.159 32.508 247.813 29.5522 246.958Z" fill="#50B780" stroke="#1B422D" stroke-miterlimit="10"/>
<path d="M29.5522 246.959L33.5616 243.858" stroke="#1B422D" stroke-width="0.5" stroke-miterlimit="10"/>
<path d="M27.6017 224.227L30.407 220.579" stroke="#1B422D" stroke-width="2" stroke-miterlimit="10"/>
<path d="M29.5522 221.675C29.5066 221.165 29.57 220.651 29.7381 220.167C29.9063 219.683 30.1753 219.241 30.5274 218.869C31.2619 218.063 35.3434 215.859 35.8852 217.286C36.4932 218.869 32.508 222.523 29.5522 221.675Z" fill="#50B780" stroke="#1B422D" stroke-miterlimit="10"/>
<path d="M29.5522 221.675L33.5616 218.568" stroke="#1B422D" stroke-width="0.5" stroke-miterlimit="10"/>
<path d="M27.6017 211.747L30.407 208.093" stroke="#1B422D" stroke-width="2" stroke-miterlimit="10"/>
<path d="M29.5522 209.189C29.5075 208.68 29.5713 208.167 29.7394 207.685C29.9075 207.202 30.1761 206.761 30.5274 206.39C31.2619 205.583 35.3434 203.38 35.8852 204.807C36.4932 206.39 32.508 210.044 29.5522 209.189Z" fill="#50B780" stroke="#1B422D" stroke-miterlimit="10"/>
<path d="M29.5522 209.189L33.5616 206.089" stroke="#1B422D" stroke-width="0.5" stroke-miterlimit="10"/>
<path d="M27.6017 195.253L30.407 191.599" stroke="#1B422D" stroke-width="2" stroke-miterlimit="10"/>
<path d="M29.5522 192.694C29.5075 192.185 29.5713 191.672 29.7394 191.19C29.9075 190.707 30.1761 190.266 30.5274 189.895C31.2619 189.088 35.3434 186.855 35.8852 188.312C36.4932 189.895 32.508 193.549 29.5522 192.694Z" fill="#50B780" stroke="#1B422D" stroke-miterlimit="10"/>
<path d="M29.5522 192.694L33.5616 189.588" stroke="#1B422D" stroke-width="0.5" stroke-miterlimit="10"/>
<path d="M27.6017 182.28L30.407 178.625" stroke="#1B422D" stroke-width="2" stroke-miterlimit="10"/>
<path d="M29.5522 179.727C29.5066 179.217 29.57 178.703 29.7381 178.22C29.9063 177.736 30.1753 177.294 30.5274 176.922C31.2619 176.115 35.3434 173.882 35.8852 175.339C36.4932 176.922 32.508 180.6 29.5522 179.727Z" fill="#50B780" stroke="#1B422D" stroke-miterlimit="10"/>
<path d="M29.5522 179.727L33.5616 176.621" stroke="#1B422D" stroke-width="0.5" stroke-miterlimit="10"/>
<path d="M27.4392 173.978C27.3909 173.469 27.4525 172.956 27.6197 172.473C27.7869 171.99 28.0559 171.549 28.4084 171.179C29.1428 170.372 33.2244 168.169 33.7722 169.596C34.3802 171.173 30.3589 174.827 27.4392 173.978Z" fill="#50B780" stroke="#1B422D" stroke-miterlimit="10"/>
<path d="M27.4392 173.972L31.4485 170.866" stroke="#1B422D" stroke-width="0.5" stroke-miterlimit="10"/>
<path d="M27.6318 174.147C27.1203 174.138 26.6164 174.021 26.1535 173.803C25.6907 173.585 25.2794 173.271 24.9469 172.882C24.2245 172.07 22.4305 167.789 23.9355 167.386C25.573 166.947 28.7877 171.329 27.6318 174.147Z" fill="#50B780" stroke="#1B422D" stroke-miterlimit="10"/>
<path d="M27.6318 174.146L24.965 169.83" stroke="#1B422D" stroke-width="0.5" stroke-miterlimit="10"/>
<path d="M31.0813 279.328H22.1175L20.9978 256.699H32.201L31.0813 279.328Z" fill="#1B422D" stroke="#1B422D" stroke-miterlimit="10"/>
<path d="M69.2781 106.06H15.4473V20.3657H82.0947V106.06H72.7757" stroke="#1B422D" stroke-miterlimit="10"/>
<path d="M79.6807 23.4722H17.8673V102.954H79.6807V23.4722Z" stroke="#1B422D" stroke-miterlimit="10"/>
<path d="M30.2505 45.2402C31.3444 46.2525 32.5136 47.1803 33.7481 48.0155C47.7326 57.503 71.4514 53.0121 79.4399 66.4908" stroke="#1B422D" stroke-miterlimit="10"/>
<path d="M22.0151 23.7974C21.6801 27.3479 22.0838 30.9293 23.2006 34.3161C24.3175 37.703 26.1234 40.822 28.5047 43.4767" stroke="#1B422D" stroke-miterlimit="10"/>
<path d="M27.3127 67.5807C34.1334 63.9687 42.9647 61.4222 47.4858 68.7365C52.7292 77.2307 28.5047 92.2145 28.5047 102.942" stroke="#1B422D" stroke-miterlimit="10"/>
<path d="M18.0238 73.7329C20.3591 71.8461 22.8344 70.1395 25.4284 68.6279" stroke="#1B422D" stroke-miterlimit="10"/>
<path d="M50.2308 23.7974C50.2308 23.7974 59.2187 37.7818 79.6927 34.0314" stroke="#1B422D" stroke-miterlimit="10"/>
<path d="M52.9157 37.5288C52.9571 37.8603 52.9772 38.1941 52.9759 38.5282C52.9729 40.5376 52.2348 42.4765 50.9008 43.9793C49.5667 45.482 47.7289 46.4447 45.734 46.6858C43.739 46.927 41.7248 46.4298 40.0712 45.2882C38.4175 44.1465 37.2387 42.4392 36.7571 40.4884C36.2755 38.5375 36.5243 36.4778 37.4566 34.6977C38.389 32.9176 39.9404 31.5402 41.8184 30.8252C43.6963 30.1102 45.771 30.107 47.6511 30.8163C49.5313 31.5255 51.0869 32.8982 52.0247 34.6754" stroke="#1B422D" stroke-miterlimit="10"/>
<path d="M73.4439 49.6409C73.4404 50.4059 73.2102 51.1528 72.7824 51.7871C72.3546 52.4214 71.7485 52.9147 71.0405 53.2048C70.3326 53.4948 69.5545 53.5685 68.8047 53.4166C68.0549 53.2648 67.3668 52.8941 66.8275 52.3514C66.2882 51.8087 65.9218 51.1184 65.7746 50.3677C65.6274 49.6169 65.706 48.8393 66.0004 48.1332C66.2948 47.427 66.7919 46.824 67.4288 46.4002C68.0658 45.9763 68.814 45.7508 69.5791 45.752C70.0887 45.7519 70.5932 45.8527 71.0637 46.0484C71.5342 46.2442 71.9613 46.531 72.3205 46.8924C72.6797 47.2539 72.9639 47.6828 73.1567 48.1545C73.3495 48.6262 73.4471 49.1313 73.4439 49.6409Z" stroke="#1B422D" stroke-miterlimit="10"/>
<path d="M73.4982 75.7495C75.6784 76.3166 77.7124 77.3429 79.464 78.7595" stroke="#1B422D" stroke-miterlimit="10"/>
<path d="M58.6709 103.002C56.2997 100.828 54.6402 97.9878 53.9098 94.8544C53.1793 91.7211 53.4119 88.4402 54.577 85.4412C55.7421 82.4422 57.7855 79.8649 60.4397 78.0465C63.0939 76.2281 66.2353 75.2534 69.4527 75.25C69.7657 75.25 70.0547 75.25 70.3737 75.25" stroke="#1B422D" stroke-miterlimit="10"/>
<path d="M193.844 279.328H289.562" stroke="#1B422D" stroke-miterlimit="10"/>
<path d="M9.63196 279.328H189.028" stroke="#1B422D" stroke-miterlimit="10"/>
<path d="M238.109 25.585H116.607V250.667H238.109V25.585Z" fill="white"/>
<path d="M238.109 212.283H116.607V250.667H238.109V212.283Z" fill="#DEDEDE"/>
<path d="M241.757 69.8683C242.155 69.8683 242.536 69.7103 242.817 69.4292C243.098 69.1481 243.256 68.7668 243.256 68.3693V53.3614C243.256 52.9639 243.098 52.5826 242.817 52.3015C242.536 52.0204 242.155 51.8624 241.757 51.8624C241.663 51.8533 241.568 51.8533 241.474 51.8624V23.8153C241.474 21.2495 240.455 18.7889 238.641 16.9746C236.826 15.1604 234.366 14.1411 231.8 14.1411H125.156C123.885 14.1403 122.626 14.39 121.452 14.8758C120.277 15.3616 119.21 16.0741 118.311 16.9725C117.412 17.8709 116.699 18.9376 116.213 20.1117C115.726 21.2858 115.476 22.5443 115.476 23.8153V250.342C115.476 252.909 116.495 255.371 118.311 257.187C120.126 259.002 122.588 260.022 125.156 260.022H231.8C234.366 260.02 236.827 259 238.641 257.185C240.455 255.369 241.474 252.908 241.474 250.342V112.532C241.568 112.541 241.663 112.541 241.757 112.532C242.155 112.53 242.536 112.371 242.817 112.089C243.098 111.807 243.256 111.425 243.256 111.027V96.0492C243.256 95.6517 243.098 95.2704 242.817 94.9893C242.536 94.7082 242.155 94.5503 241.757 94.5503C241.662 94.551 241.567 94.5611 241.474 94.5804V91.1851C241.567 91.2043 241.662 91.2144 241.757 91.2152C242.154 91.2136 242.535 91.0551 242.815 90.7744C243.096 90.4936 243.255 90.1133 243.256 89.7162V74.7023C243.255 74.3052 243.096 73.9249 242.815 73.6441C242.535 73.3634 242.154 73.2049 241.757 73.2033C241.662 73.2041 241.567 73.2142 241.474 73.2334V69.8321C241.567 69.8534 241.662 69.8655 241.757 69.8683ZM235.87 245.43H121.08V30.8346H235.87V245.43Z" fill="#1B422D"/>
<path d="M231.963 33.062H222.445V38.2814H231.963V33.062Z" stroke="#1B422D" stroke-width="0.821067" stroke-linecap="round" stroke-linejoin="round"/>
<path d="M229.868 33.062H222.445V38.2814H229.868V33.062Z" fill="#1B422D" stroke="#1B422D" stroke-width="0.725073" stroke-linecap="round" stroke-linejoin="round"/>
<path d="M233.287 34.5249H231.945V36.8245H233.287V34.5249Z" fill="#1B422D" stroke="#1B422D" stroke-width="0.725073" stroke-linecap="round" stroke-linejoin="round"/>
<path d="M125.409 34.6812H123.663V37.6731H125.409V34.6812Z" fill="#1B422D" stroke="#1B422D" stroke-width="0.883086" stroke-linecap="round" stroke-linejoin="round"/>
<path d="M128.154 33.6338H126.408V37.6732H128.154V33.6338Z" fill="#1B422D" stroke="#1B422D" stroke-width="0.883086" stroke-linecap="round" stroke-linejoin="round"/>
<path d="M130.893 32.3877H129.147V37.6733H130.893V32.3877Z" fill="#1B422D" stroke="#1B422D" stroke-width="0.883086" stroke-linecap="round" stroke-linejoin="round"/>
<path d="M233.161 41.1831H122.928V70.1513H233.161V41.1831Z" fill="#50B780"/>
<path d="M150.789 45.355V66.6236" stroke="white" stroke-miterlimit="10"/>
<path d="M178.878 45.355V66.6236" stroke="white" stroke-miterlimit="10"/>
<path d="M206.974 45.355V66.6236" stroke="white" stroke-miterlimit="10"/>
<path opacity="0.15" d="M240.481 112.532C240.575 112.541 240.67 112.541 240.764 112.532C241.162 112.531 241.543 112.371 241.824 112.089C242.105 111.807 242.263 111.425 242.263 111.027V105.651L234.876 118.673V245.43H163.016L154.714 260.022H230.801C233.368 260.022 235.83 259.002 237.646 257.187C239.461 255.372 240.481 252.909 240.481 250.342V112.532Z" fill="white"/>
<path d="M173.815 170.023V163.142H177.253V159.681H173.827C173.827 158.531 173.827 157.375 173.827 156.225H180.72V152.788H184.164V156.207H187.619V149.296H197.974V152.734H201.399V149.296H197.962V145.829H191.057V138.978H180.696V142.421H173.827V149.326H177.247V152.77H173.809V156.219H170.366V152.764H160.018V149.326H170.366V121.707H173.827C173.827 125.03 173.827 128.353 173.827 131.676V132.049H177.277V125.168H180.714V132.061H184.182V135.498H201.435V138.942H204.891V142.415H201.453V145.877H204.879V152.788H208.34V159.687H204.915V166.574H208.292V170.023H215.185V173.466H204.879V180.359H201.435V176.916H194.512V173.466H191.069V170.023H197.938V166.574H180.726V170.005H173.815V170.023ZM194.512 159.669V156.237H191.087V159.663H194.524V163.1H201.399V159.669H194.512ZM187.601 159.669H184.212V163.082H187.625L187.601 159.669ZM194.53 142.373H197.944V138.954H194.53V142.373Z" fill="#1B422D"/>
<path d="M142.758 132.037V107.909H166.88V132.037H142.758ZM146.22 111.37V128.593H163.437V111.37H146.22Z" fill="#1B422D"/>
<path d="M215.203 132.043H191.081V107.92H215.203V132.043ZM211.76 111.37H194.542V128.587H211.76V111.37Z" fill="#1B422D"/>
<path d="M142.764 156.225H166.892V180.353H142.764V156.225ZM163.443 159.687H146.22V176.91H163.443V159.687Z" fill="#1B422D"/>
<path d="M173.809 121.706V114.801H170.366V107.915H187.589V114.789H184.212V118.245H187.625V125.132H184.188V121.706H180.72V118.263H177.277V121.694H173.803L173.809 121.706ZM177.271 114.777H180.69V111.37H177.271V114.777Z" fill="#1B422D"/>
<path d="M160 138.954V142.403H166.892V145.847H156.556V152.745H142.77V145.883H146.184V149.296H153.107V138.954H160.006H160Z" fill="#1B422D"/>
<path d="M173.803 170.017V173.467H177.253V176.91H180.69V180.359H170.366V170.023H173.791L173.803 170.017Z" fill="#1B422D"/>
<path d="M153.107 138.954H146.208V142.391H142.77V135.528H153.095V138.96L153.107 138.954Z" fill="#1B422D"/>
<path d="M215.203 145.847H211.784V138.966H208.34V135.522H215.203V145.847Z" fill="#1B422D"/>
<path d="M160.006 138.966V135.528H166.886V138.954H160L160.006 138.966Z" fill="#1B422D"/>
<path d="M208.328 152.769V149.332H211.753V152.757H208.292L208.328 152.769Z" fill="#1B422D"/>
<path d="M211.79 156.231H215.203V159.65H211.79V156.231Z" fill="#1B422D"/>
<path d="M184.164 132.061V128.624H187.595V132.049H184.158L184.164 132.061Z" fill="#1B422D"/>
<path d="M173.815 163.142H170.366V159.699H173.791V163.142H173.815Z" fill="#1B422D"/>
<path d="M208.328 166.573V163.142H211.754V166.567H208.328V166.573Z" fill="#1B422D"/>
<path d="M204.867 142.415H208.292V145.858H204.867V142.397V142.415Z" fill="#1B422D"/>
<path d="M187.595 176.91H184.176V173.497H187.595V176.91Z" fill="#1B422D"/>
<path d="M194.512 176.916V180.353H191.087V176.928H194.524L194.512 176.916Z" fill="#1B422D"/>
<path d="M215.203 180.365H211.79V176.946H215.203V180.365Z" fill="#1B422D"/>
<path d="M187.619 149.296H184.212V145.871H187.643V149.296H187.619Z" fill="#1B422D"/>
<path d="M159.981 125.138H149.663V114.819H159.981V125.138Z" fill="#1B422D"/>
<path d="M197.98 125.132V114.813H208.292V125.132H197.98Z" fill="#1B422D"/>
<path d="M149.663 173.454V163.142H159.981V173.46L149.663 173.454Z" fill="#1B422D"/>
<path d="M152.782 99.7334H137.671V116.403" stroke="#50B780" stroke-width="2" stroke-miterlimit="10"/>
<path d="M207.732 99.7334H222.836V116.403" stroke="#50B780" stroke-width="2" stroke-miterlimit="10"/>
<path d="M152.782 187.517H137.671V170.848" stroke="#50B780" stroke-width="2" stroke-miterlimit="10"/>
<path d="M207.732 187.517H222.836V170.848" stroke="#50B780" stroke-width="2" stroke-miterlimit="10"/>
<path d="M106.807 103.345H101.792C100.904 103.345 100.185 104.065 100.185 104.953V118.997C100.185 119.885 100.904 120.605 101.792 120.605H106.807C107.695 120.605 108.414 119.885 108.414 118.997V104.953C108.414 104.065 107.695 103.345 106.807 103.345Z" fill="#1B422D" stroke="#1B422D" stroke-miterlimit="10"/>
<path d="M107.68 104.868H100.907V119.075H107.68V104.868Z" fill="white" stroke="#1B422D" stroke-miterlimit="10"/>
<path d="M34.7113 187.926C37.1266 187.913 39.4905 187.227 41.538 185.946C41.4055 189.787 41.3032 192.694 41.3032 192.694C41.3032 192.694 41.9654 193.85 42.2965 194.35C42.6276 194.849 45.4389 196.499 45.77 197.992C46.1011 199.485 47.576 200.31 47.4255 202.459C47.275 204.608 45.4389 202.29 45.77 202.79C46.1011 203.289 47.0944 204.939 47.0944 206.432C47.0944 207.925 43.952 207.919 42.7901 206.926C41.6283 205.932 37.8297 203.615 37.4986 201.465L36.2043 196.649L34.7113 187.926Z" fill="white" stroke="#1B422D" stroke-miterlimit="10"/>
<path d="M41.5861 199.864L42.3927 203.476C42.3927 203.476 44.9994 205.48 45.1981 206.889" fill="white"/>
<path d="M41.5861 199.864L42.3927 203.476C42.3927 203.476 44.9994 205.48 45.1981 206.889" stroke="#1B422D" stroke-miterlimit="10"/>
<path d="M45.7639 202.79L44.5961 200.466" stroke="#1B422D" stroke-miterlimit="10"/>
<path d="M54.5953 276.179C54.5953 276.179 53.6502 283.927 54.3846 284.872C54.7987 285.467 55.3261 285.975 55.9365 286.367C56.547 286.758 57.2286 287.026 57.9424 287.154C59.616 287.364 62.4454 286.419 62.4454 286.419C64.3549 286.932 66.3388 287.109 68.3089 286.943C71.3189 286.63 73.3296 285.48 73.5403 284.011C73.751 282.542 71.1323 281.922 69.6694 280.351C68.2065 278.78 65.8708 275.999 65.8708 275.999L65.2688 273.964C65.2688 273.964 61.711 275.77 59.4113 275.848C58.1107 275.926 56.8057 275.82 55.5344 275.535L54.5953 276.179Z" fill="white" stroke="#1B422D" stroke-miterlimit="10"/>
<path d="M73.5403 284.03C73.5641 283.858 73.5476 283.682 73.4921 283.518C72.7998 283.807 71.9149 284.156 70.8192 284.553C67.6768 285.709 66.1056 284.764 64.5404 284.764C62.9752 284.764 62.8608 286.438 58.4662 285.288C55.5947 284.535 54.5171 283.566 54.1077 282.976C54.05 283.621 54.1449 284.271 54.3846 284.872C54.7987 285.468 55.3261 285.976 55.9365 286.367C56.547 286.759 57.2286 287.026 57.9425 287.154C59.616 287.365 62.4454 286.42 62.4454 286.42C64.3549 286.932 66.3388 287.109 68.3089 286.943C71.343 286.648 73.3296 285.498 73.5403 284.03Z" fill="white" stroke="#1B422D" stroke-miterlimit="10"/>
<path d="M49.0147 179.998C49.0147 179.998 44.8007 194.145 46.3057 204.078C47.8107 214.011 55.0347 232.673 55.0347 232.673C55.0347 232.673 54.1317 239.596 54.1317 242.004C54.1317 244.412 52.0247 248.927 53.5297 253.743C55.0347 258.559 55.0347 271.201 55.0347 272.104C55.0347 273.007 54.4327 277.823 54.4327 277.823C54.4327 277.823 55.6367 279.629 60.1517 279.629C64.6667 279.629 65.8707 276.017 65.8707 276.017C65.8707 276.017 70.3857 249.228 70.3857 245.014C70.3857 240.8 75.2017 225.148 77.0077 218.827C78.2155 214.475 79.965 210.293 82.215 206.377C83.419 204.27 82.7267 178.794 82.7267 178.794L48.4127 175.784L49.0147 179.998Z" fill="#737373" stroke="#1B422D" stroke-miterlimit="10"/>
<path d="M72.7034 278.172C72.7034 278.172 77.2064 279.948 79.4037 280.995C81.601 282.043 83.0639 282.145 83.0639 283.825C83.0639 285.504 79.0907 287.172 76.6827 287.593C74.2747 288.015 70.3978 287.906 69.9824 288.009C69.567 288.111 61.7109 289.267 60.7718 287.274C59.8327 285.282 60.8741 278.485 60.8741 278.485C64.7998 279.155 68.8188 279.049 72.7034 278.172Z" fill="white" stroke="#1B422D" stroke-miterlimit="10"/>
<path d="M69.9824 288.009C70.3978 287.907 74.2747 288.009 76.6827 287.593C79.0907 287.178 83.0639 285.499 83.0639 283.825C83.0654 283.605 83.0329 283.385 82.9676 283.175C81.9512 283.768 80.8997 284.298 79.8191 284.764C76.8874 286.022 73.0165 286.859 67.1771 286.757C64.9145 286.752 62.6614 286.462 60.4708 285.896C60.5044 286.37 60.6141 286.835 60.7959 287.274C61.7109 289.267 69.561 288.117 69.9824 288.009Z" fill="white" stroke="#1B422D" stroke-miterlimit="10"/>
<path d="M83.0278 181.202C83.0278 181.202 84.8338 205.583 81.2218 223.944C77.6098 242.305 71.5898 267.288 71.2888 268.492C70.9878 269.696 73.3958 273.007 73.3958 273.007V277.823C73.3958 277.823 71.2888 279.93 66.4728 280.532C61.6568 281.134 60.1518 279.629 60.1518 279.629C60.1518 279.629 58.9478 271.502 58.9478 265.783C58.9478 260.064 60.1518 240.499 60.1518 240.499C60.1518 240.499 62.8608 220.633 62.5598 217.623C62.2588 214.613 61.3558 205.282 61.3558 205.282L56.5398 199.563" fill="#737373"/>
<path d="M83.0278 181.202C83.0278 181.202 84.8338 205.583 81.2218 223.944C77.6098 242.305 71.5898 267.288 71.2888 268.492C70.9878 269.696 73.3958 273.007 73.3958 273.007V277.823C73.3958 277.823 71.2888 279.93 66.4728 280.532C61.6568 281.134 60.1518 279.629 60.1518 279.629C60.1518 279.629 58.9478 271.502 58.9478 265.783C58.9478 260.064 60.1518 240.499 60.1518 240.499C60.1518 240.499 62.8608 220.633 62.5598 217.623C62.2588 214.613 61.3558 205.282 61.3558 205.282L56.5398 199.563" stroke="#1B422D" stroke-miterlimit="10"/>
<path d="M32.4297 176.615L41.8991 174.953C41.857 176.235 42.1279 168.132 42.1279 167.53C42.1279 166.206 45.2703 157.898 45.2703 157.898C45.2703 157.898 47.7506 168.662 47.7506 169.987C47.7506 171.311 46.7573 181.425 48.0817 182.731C49.4061 184.037 54.0415 186.704 64.3056 186.373C74.5697 186.042 82.185 185.211 84.1716 183.225C86.1582 181.238 83.8405 175.116 83.6719 174.291C83.5034 173.466 86.3207 151.776 86.3207 151.776C86.3207 151.776 97.4096 163.365 104.032 161.709C110.654 160.054 107.511 134.246 107.511 134.246L107.842 126.799C107.842 126.799 109.991 121.339 109.991 120.508C109.991 119.677 107.842 113.724 107.842 113.724C107.842 113.724 106.518 112.562 105.687 115.379C105.222 116.892 104.889 118.443 104.694 120.015C104.694 120.015 102.707 121.502 102.888 123.657C102.987 124.957 103.265 126.237 103.713 127.461L99.2336 142.072C99.2336 142.072 94.2671 136.443 93.936 135.45C93.6049 134.457 93.7675 130.814 89.6317 128.659C85.496 126.504 77.0499 126.342 77.0499 126.342L53.7104 126.51C53.7104 126.51 42.7841 127.473 40.3339 129.623C37.8838 131.772 30.2384 159.09 30.2384 163.226C30.2384 164.52 30.9126 168.53 31.8578 173.49L32.4297 176.615Z" fill="white" stroke="#1B422D" stroke-miterlimit="10"/>
<path d="M107.842 113.736C107.842 113.736 107.343 117.872 107.674 118.702C108.148 120.142 108.262 121.676 108.005 123.169" stroke="#1B422D" stroke-miterlimit="10"/>
<path d="M104.032 161.739C110.654 160.084 107.511 134.258 107.511 134.258L107.583 132.591C106.86 132.042 106.021 131.665 105.13 131.489C104.239 131.313 103.32 131.342 102.442 131.573L99.2336 142.072C99.2336 142.072 94.2671 136.443 93.936 135.45C93.6049 134.457 93.7675 130.815 89.6317 128.66C85.496 126.504 77.0499 126.342 77.0499 126.342L53.7104 126.51C53.7104 126.51 42.7841 127.474 40.3339 129.623C37.8838 131.772 30.2384 159.091 30.2384 163.226C30.2384 165.683 32.6825 177.927 34.7414 187.908C37.1447 187.895 39.4973 187.216 41.5379 185.946C41.7787 178.788 42.1399 168.392 42.1399 167.531C42.1399 166.206 45.2824 157.899 45.2824 157.899C45.2824 157.899 47.7626 168.662 47.7626 169.987C47.7626 171.311 46.7693 181.425 48.0937 182.731C49.4181 184.037 54.0535 186.704 64.3176 186.373C74.5817 186.042 82.197 185.211 84.1836 183.225C86.1702 181.238 83.8525 175.116 83.684 174.291C83.5154 173.466 86.3328 151.776 86.3328 151.776C86.3328 151.776 97.4096 163.395 104.032 161.739Z" fill="#50B780" stroke="#1B422D" stroke-miterlimit="10"/>
<path d="M42.0195 148.82L45.2703 157.928L38.576 146.484" stroke="#1B422D" stroke-miterlimit="10"/>
<path d="M40.1835 143.679L41.3333 146.9" stroke="#1B422D" stroke-miterlimit="10"/>
<path d="M63.1077 149.464C64.5705 152.751 66.7197 156.875 69.2782 159.53" stroke="#1B422D" stroke-miterlimit="10"/>
<path d="M61.0548 144.281C61.0548 144.281 61.5063 145.636 62.313 147.604" stroke="#1B422D" stroke-miterlimit="10"/>
<path d="M64.6667 155.316C64.6667 155.316 68.2787 162.54 70.0847 163.943" stroke="#1B422D" stroke-miterlimit="10"/>
<path d="M91.9856 146.557L93.3582 145.281" stroke="#1B422D" stroke-miterlimit="10"/>
<path d="M89.7461 144.679L86.3207 151.806L90.7394 147.713" stroke="#1B422D" stroke-miterlimit="10"/>
<path d="M105.398 148.694C105.199 147.291 99.2336 142.042 99.2336 142.042C99.2336 142.042 105.398 144.48 107.005 146.689" stroke="#1B422D" stroke-miterlimit="10"/>
<path d="M79.3676 104.627C79.3676 104.627 79.6987 108.769 80.1984 109.443C80.698 110.118 81.0231 115.235 80.1984 116.728C79.3736 118.221 78.874 120.039 78.3924 120.532C77.9108 121.026 76.0747 121.032 75.3824 121.032C74.6901 121.032 67.2734 120.701 67.2734 120.701L67.442 110.268C67.442 110.268 69.2721 102.478 79.3676 104.627Z" fill="white" stroke="#1B422D" stroke-miterlimit="10"/>
<path d="M66.1296 93.045C66.1296 93.045 59.3391 95.1942 57.8521 101.136C56.3652 107.078 61.1631 113.88 61.1631 113.88C61.1631 113.88 62.4875 118.696 63.6434 119.678C64.7992 120.659 69.4346 119.678 70.9276 119.346C72.4205 119.015 75.7436 110.076 75.7436 110.076C75.7436 110.076 75.7436 112.225 76.7369 112.225C77.7302 112.225 77.5676 109.413 77.5676 108.914C77.5676 108.414 82.203 104.941 82.203 98.9868C82.203 93.033 77.0559 90.3963 72.2399 90.7274C67.4239 91.0585 66.1296 93.045 66.1296 93.045Z" fill="#1B422D" stroke="#1B422D" stroke-miterlimit="10"/>
<path d="M80.1984 125.981C80.1984 125.981 79.2051 122.507 78.7054 122.013C78.2058 121.52 75.0633 119.527 69.9343 119.196C64.8052 118.865 57.1899 119.034 56.5277 119.365C55.8655 119.696 55.697 122.507 55.697 122.507C55.697 122.507 53.5478 124.494 53.0482 125.656C52.5485 126.817 52.0549 127.305 56.6602 131.116C61.2655 134.926 63.7818 136.413 68.5798 135.251C73.3777 134.09 80.3308 127.142 80.3308 127.142L80.1984 125.981Z" fill="#50B780" stroke="#1B422D" stroke-miterlimit="10"/>
<path d="M68.3571 128.328C71.6154 127.214 74.7503 125.768 77.7121 124.012" stroke="#1B422D" stroke-miterlimit="10"/>
<path d="M55.697 123.169C55.697 123.169 58.707 129.129 63.9745 129.129C64.6925 129.12 65.4081 129.043 66.1116 128.9" stroke="#1B422D" stroke-miterlimit="10"/>
</svg>
